M48
;GenerationSoftware,Autodesk,EAGLE,9.4.2*%
;CreationDate,2019-07-28T14:53:57Z*%
FMAT,2
ICI,OFF
INCH,TZ,00.0000
T5C0.0276
T4C0.0320
T3C0.0400
T2C0.1180
T1C0.1220
%
G90
M72
T1
X15709Y5276
X15787Y17953
X2283Y16299
X2480Y7008
T2
X13476Y2394
X12295Y4244
X11114Y2394
T3
X7098Y6295
X9658Y8075
X7098Y8075
X2870Y2441
X2870Y3441
X15709Y8075
X2870Y4441
X9658Y6295
X2244Y14587
X2244Y13587
X2244Y12587
X2244Y11587
X2244Y10587
X2244Y9587
X2205Y22630
X2205Y21630
X2205Y20630
X2205Y19630
X2205Y18630
X15787Y19602
X15787Y20602
X15787Y21602
X15787Y22602
X15709Y7075
X15709Y9075
X15709Y10075
X15709Y11075
X15709Y12075
X15709Y13075
X15709Y14075
X15709Y15075
X15709Y16075
X14213Y7071
X14213Y8071
X14213Y9071
T4
X9862Y21594
X9862Y22594
X6862Y22594
X6862Y21594
X14543Y19075
X6862Y19594
X6862Y18594
X6862Y17594
X6862Y16594
X6862Y15594
X6862Y14594
X6862Y13594
X6862Y12594
X6862Y11594
X6862Y10594
X6862Y9594
X5028Y8386
X4028Y8386
X6102Y5783
X6102Y8783
X5657Y1476
X5657Y2476
X5697Y3980
X5697Y4980
X13524Y17028
X14524Y17028
X13543Y19075
X11142Y9508
X12142Y9508
X4898Y16102
X3898Y16102
X11150Y5358
X11150Y8358
X2972Y17669
X5972Y17669
X9862Y9594
X6862Y20594
X9862Y10594
X9862Y11594
X9862Y12594
X9862Y13594
X9862Y14594
X9862Y15594
X9862Y16594
X9862Y17594
X9862Y18594
X9862Y19594
X9862Y20594
T5
X11752Y19047
X11752Y17047
M30