G04 EAGLE Gerber X2 export*
%TF.Part,Single*%
%TF.FileFunction,Soldermask,Bot*%
%TF.FilePolarity,Positive*%
%TF.GenerationSoftware,Autodesk,EAGLE,9.4.2*%
%TF.CreationDate,2019-07-28T14:53:56Z*%
G75*
%MOIN*%
%FSLAX36Y36*%
%LPD*%
%INBottom Solder Mask*%
%AMOC8*
5,1,8,0,0,1.08239X$1,22.5*%
G01*
%ADD10C,0.130047*%
%ADD11P,0.076850X8X292.500000*%
%ADD12C,0.071000*%
%ADD13P,0.064943X8X22.500000*%
%ADD14C,0.178000*%
%ADD15P,0.064943X8X202.500000*%
%ADD16P,0.064943X8X112.500000*%
%ADD17C,0.082000*%
%ADD18C,0.068000*%
%ADD19C,0.072000*%
%ADD20C,0.073000*%
%ADD21R,0.047370X0.078866*%


D10*
X1570866Y527559D03*
X1578740Y1795276D03*
X228346Y1629921D03*
X248031Y700787D03*
D11*
X565748Y147638D03*
D12*
X565748Y247638D03*
D11*
X569685Y398031D03*
D12*
X569685Y498031D03*
D13*
X1352362Y1702756D03*
X1452362Y1702756D03*
X1354331Y1907480D03*
X1454331Y1907480D03*
X1114173Y950787D03*
X1214173Y950787D03*
D14*
X1111417Y239370D03*
X1347638Y239370D03*
X1229528Y424409D03*
D15*
X489764Y1610236D03*
X389764Y1610236D03*
D16*
X1114961Y535827D03*
X1114961Y835827D03*
D13*
X297244Y1766929D03*
X597244Y1766929D03*
D17*
X965795Y629504D03*
X709795Y629504D03*
X965795Y807504D03*
X709795Y807504D03*
D18*
X317008Y244094D02*
X257008Y244094D01*
X257008Y344094D02*
X317008Y344094D01*
X317008Y444094D02*
X257008Y444094D01*
D19*
X986220Y959449D03*
X986220Y1059449D03*
X986220Y1159449D03*
X986220Y1259449D03*
X986220Y1359449D03*
X986220Y1459449D03*
X986220Y1559449D03*
X986220Y1659449D03*
X986220Y1759449D03*
X986220Y1859449D03*
X986220Y1959449D03*
X986220Y2059449D03*
X986220Y2159449D03*
X986220Y2259449D03*
X686220Y2259449D03*
X686220Y2159449D03*
X686220Y2059449D03*
X686220Y1959449D03*
X686220Y1859449D03*
X686220Y1759449D03*
X686220Y1659449D03*
X686220Y1559449D03*
X686220Y1459449D03*
X686220Y1359449D03*
X686220Y1259449D03*
X686220Y1159449D03*
X686220Y1059449D03*
X686220Y959449D03*
D20*
X1175197Y1904724D03*
X1175197Y1704724D03*
D15*
X502756Y838583D03*
X402756Y838583D03*
D16*
X610236Y578346D03*
X610236Y878346D03*
D18*
X254409Y1458661D02*
X194409Y1458661D01*
X194409Y1358661D02*
X254409Y1358661D01*
X254409Y1258661D02*
X194409Y1258661D01*
X194409Y1158661D02*
X254409Y1158661D01*
X254409Y1058661D02*
X194409Y1058661D01*
X194409Y958661D02*
X254409Y958661D01*
X250472Y2262992D02*
X190472Y2262992D01*
X190472Y2162992D02*
X250472Y2162992D01*
X250472Y2062992D02*
X190472Y2062992D01*
X190472Y1962992D02*
X250472Y1962992D01*
X250472Y1862992D02*
X190472Y1862992D01*
X1548740Y1960236D02*
X1608740Y1960236D01*
X1608740Y2060236D02*
X1548740Y2060236D01*
X1548740Y2160236D02*
X1608740Y2160236D01*
X1608740Y2260236D02*
X1548740Y2260236D01*
X1540866Y707480D02*
X1600866Y707480D01*
X1600866Y807480D02*
X1540866Y807480D01*
X1540866Y907480D02*
X1600866Y907480D01*
X1600866Y1007480D02*
X1540866Y1007480D01*
X1540866Y1107480D02*
X1600866Y1107480D01*
X1600866Y1207480D02*
X1540866Y1207480D01*
X1540866Y1307480D02*
X1600866Y1307480D01*
X1600866Y1407480D02*
X1540866Y1407480D01*
X1540866Y1507480D02*
X1600866Y1507480D01*
X1600866Y1607480D02*
X1540866Y1607480D01*
D21*
X783465Y248031D03*
X893701Y248031D03*
D18*
X1391260Y707087D02*
X1451260Y707087D01*
X1451260Y807087D02*
X1391260Y807087D01*
X1391260Y907087D02*
X1451260Y907087D01*
M02*
