G04 EAGLE Gerber X2 export*
%TF.Part,Single*%
%TF.FileFunction,Legend,Bot,1*%
%TF.FilePolarity,Positive*%
%TF.GenerationSoftware,Autodesk,EAGLE,9.4.2*%
%TF.CreationDate,2019-07-28T14:53:56Z*%
G75*
%MOIN*%
%FSLAX36Y36*%
%LPD*%
%INBottom Silkscreen*%
%AMOC8*
5,1,8,0,0,1.08239X$1,22.5*%
G01*
%ADD10C,0.006000*%
%ADD11C,0.003000*%


D10*
X810236Y216535D02*
X866929Y216535D01*
X866929Y279528D02*
X810236Y279528D01*
D11*
X860220Y195350D02*
X860220Y158980D01*
X860220Y195350D02*
X844055Y195350D01*
X844055Y179186D02*
X860220Y179186D01*
X830761Y187268D02*
X820658Y195350D01*
X820658Y158980D01*
X830761Y158980D02*
X810555Y158980D01*
X1033255Y348894D02*
X1043358Y340811D01*
X1033255Y348894D02*
X1033255Y312524D01*
X1043358Y312524D02*
X1023152Y312524D01*
X987719Y339801D02*
X987722Y340024D01*
X987730Y340247D01*
X987744Y340470D01*
X987763Y340692D01*
X987787Y340914D01*
X987817Y341135D01*
X987853Y341356D01*
X987894Y341575D01*
X987940Y341793D01*
X987992Y342010D01*
X988048Y342226D01*
X988111Y342441D01*
X988178Y342653D01*
X988251Y342864D01*
X988328Y343073D01*
X988411Y343281D01*
X988499Y343486D01*
X988592Y343689D01*
X988690Y343889D01*
X988793Y344087D01*
X988900Y344283D01*
X989013Y344476D01*
X989130Y344666D01*
X989251Y344853D01*
X989378Y345037D01*
X989508Y345218D01*
X989644Y345395D01*
X989783Y345569D01*
X989927Y345740D01*
X990074Y345907D01*
X990226Y346071D01*
X990382Y346231D01*
X990542Y346387D01*
X990705Y346538D01*
X990873Y346686D01*
X991043Y346830D01*
X991218Y346969D01*
X991395Y347105D01*
X991576Y347235D01*
X991760Y347362D01*
X991947Y347483D01*
X992137Y347600D01*
X992330Y347713D01*
X992526Y347820D01*
X992724Y347923D01*
X992924Y348021D01*
X993127Y348114D01*
X993332Y348202D01*
X993539Y348285D01*
X993749Y348362D01*
X993960Y348435D01*
X994172Y348502D01*
X994387Y348565D01*
X994602Y348621D01*
X994820Y348673D01*
X995038Y348719D01*
X995257Y348760D01*
X995478Y348796D01*
X995699Y348826D01*
X995921Y348850D01*
X996143Y348869D01*
X996366Y348883D01*
X996589Y348891D01*
X996812Y348894D01*
X997094Y348891D01*
X997377Y348880D01*
X997659Y348863D01*
X997940Y348839D01*
X998221Y348809D01*
X998501Y348771D01*
X998780Y348727D01*
X999058Y348676D01*
X999334Y348618D01*
X999609Y348554D01*
X999883Y348483D01*
X1000155Y348406D01*
X1000424Y348321D01*
X1000692Y348231D01*
X1000957Y348134D01*
X1001220Y348030D01*
X1001480Y347921D01*
X1001738Y347805D01*
X1001993Y347682D01*
X1002244Y347554D01*
X1002493Y347420D01*
X1002738Y347279D01*
X1002980Y347133D01*
X1003218Y346981D01*
X1003452Y346823D01*
X1003682Y346660D01*
X1003909Y346491D01*
X1004131Y346317D01*
X1004349Y346137D01*
X1004563Y345952D01*
X1004772Y345762D01*
X1004976Y345567D01*
X1005176Y345367D01*
X1005371Y345163D01*
X1005560Y344953D01*
X1005745Y344739D01*
X1005924Y344521D01*
X1006099Y344299D01*
X1006267Y344072D01*
X1006430Y343841D01*
X1006588Y343607D01*
X1006739Y343369D01*
X1006885Y343127D01*
X1007026Y342881D01*
X1007160Y342633D01*
X1007288Y342381D01*
X1007410Y342126D01*
X1007525Y341868D01*
X1007635Y341608D01*
X1007738Y341345D01*
X1007835Y341079D01*
X1007925Y340812D01*
X990750Y332729D02*
X990579Y332896D01*
X990411Y333068D01*
X990248Y333243D01*
X990089Y333423D01*
X989935Y333606D01*
X989785Y333793D01*
X989640Y333984D01*
X989500Y334178D01*
X989364Y334376D01*
X989234Y334577D01*
X989108Y334781D01*
X988987Y334988D01*
X988872Y335198D01*
X988761Y335411D01*
X988656Y335626D01*
X988557Y335844D01*
X988462Y336064D01*
X988373Y336287D01*
X988290Y336511D01*
X988212Y336738D01*
X988139Y336967D01*
X988073Y337197D01*
X988012Y337428D01*
X987956Y337662D01*
X987907Y337896D01*
X987863Y338132D01*
X987825Y338368D01*
X987792Y338606D01*
X987766Y338844D01*
X987745Y339083D01*
X987731Y339322D01*
X987722Y339561D01*
X987719Y339801D01*
X990750Y332729D02*
X1007925Y312524D01*
X987719Y312524D01*
X972492Y330709D02*
X972483Y331424D01*
X972458Y332140D01*
X972415Y332854D01*
X972355Y333567D01*
X972279Y334278D01*
X972185Y334987D01*
X972074Y335694D01*
X971947Y336398D01*
X971803Y337099D01*
X971642Y337796D01*
X971464Y338490D01*
X971271Y339178D01*
X971060Y339862D01*
X970834Y340541D01*
X970591Y341214D01*
X970332Y341881D01*
X970057Y342542D01*
X969767Y343196D01*
X969461Y343843D01*
X969400Y344014D01*
X969335Y344184D01*
X969265Y344352D01*
X969192Y344518D01*
X969115Y344683D01*
X969033Y344845D01*
X968948Y345006D01*
X968859Y345164D01*
X968766Y345321D01*
X968669Y345474D01*
X968568Y345626D01*
X968464Y345775D01*
X968356Y345921D01*
X968245Y346065D01*
X968130Y346206D01*
X968012Y346345D01*
X967891Y346480D01*
X967766Y346612D01*
X967638Y346741D01*
X967507Y346867D01*
X967373Y346990D01*
X967236Y347110D01*
X967096Y347226D01*
X966953Y347339D01*
X966808Y347448D01*
X966660Y347554D01*
X966510Y347656D01*
X966357Y347754D01*
X966201Y347849D01*
X966044Y347940D01*
X965884Y348027D01*
X965722Y348110D01*
X965559Y348189D01*
X965393Y348264D01*
X965226Y348335D01*
X965057Y348402D01*
X964886Y348465D01*
X964714Y348523D01*
X964540Y348578D01*
X964366Y348628D01*
X964190Y348674D01*
X964013Y348716D01*
X963835Y348753D01*
X963656Y348786D01*
X963476Y348815D01*
X963296Y348839D01*
X963115Y348859D01*
X962934Y348874D01*
X962753Y348885D01*
X962571Y348892D01*
X962389Y348894D01*
X962207Y348892D01*
X962025Y348885D01*
X961844Y348874D01*
X961663Y348859D01*
X961482Y348839D01*
X961302Y348815D01*
X961122Y348786D01*
X960943Y348753D01*
X960765Y348716D01*
X960588Y348674D01*
X960413Y348628D01*
X960238Y348578D01*
X960064Y348523D01*
X959892Y348465D01*
X959721Y348402D01*
X959552Y348335D01*
X959385Y348264D01*
X959219Y348189D01*
X959056Y348110D01*
X958894Y348027D01*
X958734Y347940D01*
X958577Y347849D01*
X958421Y347754D01*
X958268Y347656D01*
X958118Y347554D01*
X957970Y347448D01*
X957825Y347339D01*
X957682Y347226D01*
X957542Y347110D01*
X957405Y346990D01*
X957271Y346868D01*
X957140Y346741D01*
X957012Y346612D01*
X956887Y346480D01*
X956766Y346345D01*
X956648Y346206D01*
X956533Y346065D01*
X956422Y345922D01*
X956314Y345775D01*
X956210Y345626D01*
X956109Y345475D01*
X956012Y345321D01*
X955919Y345164D01*
X955830Y345006D01*
X955745Y344845D01*
X955664Y344683D01*
X955586Y344518D01*
X955513Y344352D01*
X955443Y344184D01*
X955378Y344014D01*
X955317Y343843D01*
X955318Y343843D02*
X955012Y343196D01*
X954722Y342542D01*
X954447Y341881D01*
X954188Y341214D01*
X953946Y340541D01*
X953719Y339862D01*
X953509Y339178D01*
X953315Y338490D01*
X953137Y337796D01*
X952976Y337099D01*
X952832Y336398D01*
X952705Y335694D01*
X952594Y334987D01*
X952500Y334278D01*
X952424Y333567D01*
X952364Y332854D01*
X952321Y332140D01*
X952296Y331424D01*
X952287Y330709D01*
X972492Y330709D02*
X972483Y329994D01*
X972458Y329278D01*
X972415Y328564D01*
X972355Y327851D01*
X972279Y327140D01*
X972185Y326430D01*
X972074Y325724D01*
X971947Y325019D01*
X971803Y324319D01*
X971642Y323621D01*
X971464Y322928D01*
X971271Y322240D01*
X971060Y321556D01*
X970834Y320877D01*
X970591Y320204D01*
X970332Y319537D01*
X970057Y318876D01*
X969767Y318222D01*
X969461Y317575D01*
X969400Y317404D01*
X969335Y317234D01*
X969265Y317066D01*
X969192Y316900D01*
X969114Y316735D01*
X969033Y316573D01*
X968948Y316412D01*
X968859Y316254D01*
X968766Y316097D01*
X968669Y315943D01*
X968568Y315792D01*
X968464Y315643D01*
X968356Y315496D01*
X968245Y315353D01*
X968130Y315212D01*
X968012Y315073D01*
X967891Y314938D01*
X967766Y314806D01*
X967638Y314677D01*
X967507Y314550D01*
X967373Y314428D01*
X967236Y314308D01*
X967096Y314192D01*
X966953Y314079D01*
X966808Y313970D01*
X966660Y313864D01*
X966510Y313762D01*
X966357Y313664D01*
X966201Y313569D01*
X966044Y313478D01*
X965884Y313391D01*
X965722Y313308D01*
X965559Y313229D01*
X965393Y313154D01*
X965226Y313083D01*
X965057Y313016D01*
X964886Y312953D01*
X964714Y312895D01*
X964540Y312840D01*
X964365Y312790D01*
X964190Y312744D01*
X964013Y312702D01*
X963835Y312665D01*
X963656Y312632D01*
X963476Y312603D01*
X963296Y312579D01*
X963115Y312559D01*
X962934Y312544D01*
X962753Y312533D01*
X962571Y312526D01*
X962389Y312524D01*
X955317Y317575D02*
X955011Y318222D01*
X954721Y318876D01*
X954446Y319537D01*
X954187Y320204D01*
X953945Y320877D01*
X953718Y321556D01*
X953508Y322240D01*
X953314Y322928D01*
X953136Y323621D01*
X952975Y324319D01*
X952831Y325019D01*
X952704Y325724D01*
X952593Y326430D01*
X952499Y327140D01*
X952423Y327851D01*
X952363Y328564D01*
X952320Y329278D01*
X952295Y329994D01*
X952286Y330709D01*
X955317Y317575D02*
X955378Y317404D01*
X955443Y317234D01*
X955513Y317066D01*
X955586Y316900D01*
X955664Y316735D01*
X955745Y316573D01*
X955830Y316412D01*
X955919Y316254D01*
X956012Y316097D01*
X956109Y315943D01*
X956210Y315792D01*
X956314Y315643D01*
X956422Y315496D01*
X956533Y315353D01*
X956648Y315212D01*
X956766Y315073D01*
X956887Y314938D01*
X957012Y314806D01*
X957140Y314676D01*
X957271Y314550D01*
X957405Y314428D01*
X957542Y314308D01*
X957682Y314192D01*
X957825Y314079D01*
X957970Y313970D01*
X958118Y313864D01*
X958269Y313762D01*
X958421Y313664D01*
X958577Y313569D01*
X958734Y313478D01*
X958894Y313391D01*
X959056Y313308D01*
X959219Y313229D01*
X959385Y313154D01*
X959552Y313083D01*
X959722Y313016D01*
X959892Y312953D01*
X960064Y312895D01*
X960238Y312840D01*
X960413Y312790D01*
X960588Y312744D01*
X960765Y312702D01*
X960943Y312665D01*
X961122Y312632D01*
X961302Y312603D01*
X961482Y312579D01*
X961663Y312559D01*
X961844Y312544D01*
X962025Y312533D01*
X962207Y312526D01*
X962389Y312524D01*
X970472Y320606D02*
X954307Y340811D01*
X937059Y332729D02*
X924936Y332729D01*
X924738Y332727D01*
X924539Y332719D01*
X924341Y332707D01*
X924144Y332690D01*
X923947Y332668D01*
X923750Y332642D01*
X923554Y332610D01*
X923359Y332574D01*
X923165Y332533D01*
X922972Y332487D01*
X922780Y332436D01*
X922590Y332381D01*
X922401Y332321D01*
X922213Y332257D01*
X922027Y332187D01*
X921843Y332114D01*
X921661Y332036D01*
X921481Y331953D01*
X921302Y331866D01*
X921126Y331775D01*
X920952Y331679D01*
X920781Y331579D01*
X920612Y331475D01*
X920446Y331367D01*
X920282Y331255D01*
X920122Y331139D01*
X919964Y331018D01*
X919809Y330895D01*
X919657Y330767D01*
X919509Y330635D01*
X919363Y330500D01*
X919221Y330362D01*
X919083Y330220D01*
X918948Y330075D01*
X918816Y329926D01*
X918689Y329774D01*
X918565Y329619D01*
X918445Y329462D01*
X918328Y329301D01*
X918216Y329137D01*
X918108Y328971D01*
X918004Y328802D01*
X917904Y328631D01*
X917808Y328457D01*
X917717Y328281D01*
X917630Y328103D01*
X917547Y327922D01*
X917469Y327740D01*
X917396Y327556D01*
X917326Y327370D01*
X917262Y327182D01*
X917202Y326993D01*
X917147Y326803D01*
X917096Y326611D01*
X917050Y326418D01*
X917009Y326224D01*
X916973Y326029D01*
X916941Y325833D01*
X916915Y325636D01*
X916893Y325439D01*
X916876Y325242D01*
X916864Y325044D01*
X916856Y324845D01*
X916854Y324647D01*
X916854Y322626D01*
X916853Y322626D02*
X916856Y322380D01*
X916865Y322134D01*
X916880Y321889D01*
X916901Y321643D01*
X916928Y321399D01*
X916961Y321155D01*
X916999Y320912D01*
X917044Y320670D01*
X917095Y320429D01*
X917151Y320190D01*
X917213Y319952D01*
X917281Y319715D01*
X917355Y319481D01*
X917435Y319248D01*
X917520Y319017D01*
X917610Y318788D01*
X917707Y318562D01*
X917808Y318338D01*
X917915Y318116D01*
X918028Y317897D01*
X918146Y317681D01*
X918269Y317468D01*
X918397Y317258D01*
X918530Y317051D01*
X918668Y316848D01*
X918812Y316648D01*
X918960Y316451D01*
X919112Y316258D01*
X919270Y316069D01*
X919432Y315884D01*
X919598Y315703D01*
X919769Y315526D01*
X919944Y315353D01*
X920123Y315184D01*
X920306Y315020D01*
X920493Y314860D01*
X920684Y314705D01*
X920879Y314555D01*
X921077Y314409D01*
X921279Y314269D01*
X921485Y314133D01*
X921693Y314002D01*
X921905Y313877D01*
X922119Y313756D01*
X922336Y313641D01*
X922557Y313531D01*
X922779Y313427D01*
X923005Y313328D01*
X923232Y313234D01*
X923462Y313146D01*
X923694Y313064D01*
X923928Y312988D01*
X924163Y312917D01*
X924401Y312852D01*
X924639Y312792D01*
X924880Y312739D01*
X925121Y312691D01*
X925363Y312649D01*
X925607Y312613D01*
X925851Y312584D01*
X926096Y312560D01*
X926341Y312542D01*
X926587Y312530D01*
X926833Y312524D01*
X927079Y312524D01*
X927325Y312530D01*
X927571Y312542D01*
X927816Y312560D01*
X928061Y312584D01*
X928305Y312613D01*
X928549Y312649D01*
X928791Y312691D01*
X929032Y312739D01*
X929273Y312792D01*
X929511Y312852D01*
X929749Y312917D01*
X929984Y312988D01*
X930218Y313064D01*
X930450Y313146D01*
X930680Y313234D01*
X930907Y313328D01*
X931133Y313427D01*
X931355Y313531D01*
X931576Y313641D01*
X931793Y313756D01*
X932008Y313877D01*
X932219Y314002D01*
X932427Y314133D01*
X932633Y314269D01*
X932835Y314409D01*
X933033Y314555D01*
X933228Y314705D01*
X933419Y314860D01*
X933606Y315020D01*
X933789Y315184D01*
X933968Y315353D01*
X934143Y315526D01*
X934314Y315703D01*
X934480Y315884D01*
X934642Y316069D01*
X934800Y316258D01*
X934952Y316451D01*
X935100Y316648D01*
X935244Y316848D01*
X935382Y317051D01*
X935515Y317258D01*
X935643Y317468D01*
X935766Y317681D01*
X935884Y317897D01*
X935997Y318116D01*
X936104Y318338D01*
X936205Y318562D01*
X936302Y318788D01*
X936392Y319017D01*
X936477Y319248D01*
X936557Y319481D01*
X936631Y319715D01*
X936699Y319952D01*
X936761Y320190D01*
X936817Y320429D01*
X936868Y320670D01*
X936913Y320912D01*
X936951Y321155D01*
X936984Y321399D01*
X937011Y321643D01*
X937032Y321889D01*
X937047Y322134D01*
X937056Y322380D01*
X937059Y322626D01*
X937059Y332729D01*
X937054Y333120D01*
X937040Y333510D01*
X937017Y333900D01*
X936984Y334289D01*
X936941Y334677D01*
X936889Y335065D01*
X936828Y335450D01*
X936758Y335835D01*
X936678Y336217D01*
X936589Y336597D01*
X936491Y336975D01*
X936384Y337351D01*
X936268Y337724D01*
X936143Y338094D01*
X936009Y338461D01*
X935866Y338824D01*
X935714Y339184D01*
X935554Y339541D01*
X935385Y339893D01*
X935208Y340241D01*
X935022Y340584D01*
X934828Y340923D01*
X934626Y341258D01*
X934416Y341587D01*
X934198Y341911D01*
X933972Y342230D01*
X933739Y342543D01*
X933498Y342851D01*
X933249Y343152D01*
X932994Y343448D01*
X932731Y343737D01*
X932462Y344020D01*
X932186Y344296D01*
X931903Y344565D01*
X931614Y344828D01*
X931318Y345083D01*
X931017Y345332D01*
X930709Y345573D01*
X930396Y345806D01*
X930077Y346032D01*
X929753Y346250D01*
X929424Y346460D01*
X929089Y346662D01*
X928750Y346856D01*
X928407Y347042D01*
X928059Y347219D01*
X927707Y347388D01*
X927350Y347548D01*
X926990Y347700D01*
X926627Y347843D01*
X926260Y347977D01*
X925890Y348102D01*
X925517Y348218D01*
X925141Y348325D01*
X924763Y348423D01*
X924383Y348512D01*
X924001Y348592D01*
X923616Y348662D01*
X923231Y348723D01*
X922843Y348775D01*
X922455Y348818D01*
X922066Y348851D01*
X921676Y348874D01*
X921286Y348888D01*
X920895Y348893D01*
X900377Y348894D02*
X900377Y312524D01*
X884212Y312524D01*
X870917Y330709D02*
X870908Y331424D01*
X870883Y332140D01*
X870840Y332854D01*
X870780Y333567D01*
X870704Y334278D01*
X870610Y334987D01*
X870499Y335694D01*
X870372Y336398D01*
X870228Y337099D01*
X870067Y337796D01*
X869889Y338490D01*
X869696Y339178D01*
X869485Y339862D01*
X869259Y340541D01*
X869016Y341214D01*
X868757Y341881D01*
X868482Y342542D01*
X868192Y343196D01*
X867886Y343843D01*
X867887Y343843D02*
X867826Y344014D01*
X867761Y344184D01*
X867691Y344352D01*
X867618Y344518D01*
X867541Y344683D01*
X867459Y344845D01*
X867374Y345006D01*
X867285Y345164D01*
X867192Y345321D01*
X867095Y345474D01*
X866994Y345626D01*
X866890Y345775D01*
X866782Y345921D01*
X866671Y346065D01*
X866556Y346206D01*
X866438Y346345D01*
X866317Y346480D01*
X866192Y346612D01*
X866064Y346741D01*
X865933Y346867D01*
X865799Y346990D01*
X865662Y347110D01*
X865522Y347226D01*
X865379Y347339D01*
X865234Y347448D01*
X865086Y347554D01*
X864936Y347656D01*
X864783Y347754D01*
X864627Y347849D01*
X864470Y347940D01*
X864310Y348027D01*
X864148Y348110D01*
X863985Y348189D01*
X863819Y348264D01*
X863652Y348335D01*
X863483Y348402D01*
X863312Y348465D01*
X863140Y348523D01*
X862966Y348578D01*
X862792Y348628D01*
X862616Y348674D01*
X862439Y348716D01*
X862261Y348753D01*
X862082Y348786D01*
X861902Y348815D01*
X861722Y348839D01*
X861541Y348859D01*
X861360Y348874D01*
X861179Y348885D01*
X860997Y348892D01*
X860815Y348894D01*
X860633Y348892D01*
X860451Y348885D01*
X860270Y348874D01*
X860089Y348859D01*
X859908Y348839D01*
X859728Y348815D01*
X859548Y348786D01*
X859369Y348753D01*
X859191Y348716D01*
X859014Y348674D01*
X858839Y348628D01*
X858664Y348578D01*
X858490Y348523D01*
X858318Y348465D01*
X858147Y348402D01*
X857978Y348335D01*
X857811Y348264D01*
X857645Y348189D01*
X857482Y348110D01*
X857320Y348027D01*
X857160Y347940D01*
X857003Y347849D01*
X856847Y347754D01*
X856694Y347656D01*
X856544Y347554D01*
X856396Y347448D01*
X856251Y347339D01*
X856108Y347226D01*
X855968Y347110D01*
X855831Y346990D01*
X855697Y346868D01*
X855566Y346741D01*
X855438Y346612D01*
X855313Y346480D01*
X855192Y346345D01*
X855074Y346206D01*
X854959Y346065D01*
X854848Y345922D01*
X854740Y345775D01*
X854636Y345626D01*
X854535Y345475D01*
X854438Y345321D01*
X854345Y345164D01*
X854256Y345006D01*
X854171Y344845D01*
X854090Y344683D01*
X854012Y344518D01*
X853939Y344352D01*
X853869Y344184D01*
X853804Y344014D01*
X853743Y343843D01*
X853437Y343196D01*
X853147Y342542D01*
X852872Y341881D01*
X852613Y341214D01*
X852371Y340541D01*
X852144Y339862D01*
X851934Y339178D01*
X851740Y338490D01*
X851562Y337796D01*
X851401Y337099D01*
X851257Y336398D01*
X851130Y335694D01*
X851019Y334987D01*
X850925Y334278D01*
X850849Y333567D01*
X850789Y332854D01*
X850746Y332140D01*
X850721Y331424D01*
X850712Y330709D01*
X870918Y330709D02*
X870909Y329994D01*
X870884Y329278D01*
X870841Y328564D01*
X870781Y327851D01*
X870705Y327140D01*
X870611Y326430D01*
X870500Y325724D01*
X870373Y325019D01*
X870229Y324319D01*
X870068Y323621D01*
X869890Y322928D01*
X869697Y322240D01*
X869486Y321556D01*
X869260Y320877D01*
X869017Y320204D01*
X868758Y319537D01*
X868483Y318876D01*
X868193Y318222D01*
X867887Y317575D01*
X867826Y317404D01*
X867761Y317234D01*
X867691Y317066D01*
X867618Y316900D01*
X867540Y316735D01*
X867459Y316573D01*
X867374Y316412D01*
X867285Y316254D01*
X867192Y316097D01*
X867095Y315943D01*
X866994Y315792D01*
X866890Y315643D01*
X866782Y315496D01*
X866671Y315353D01*
X866556Y315212D01*
X866438Y315073D01*
X866317Y314938D01*
X866192Y314806D01*
X866064Y314677D01*
X865933Y314550D01*
X865799Y314428D01*
X865662Y314308D01*
X865522Y314192D01*
X865379Y314079D01*
X865234Y313970D01*
X865086Y313864D01*
X864936Y313762D01*
X864783Y313664D01*
X864627Y313569D01*
X864470Y313478D01*
X864310Y313391D01*
X864148Y313308D01*
X863985Y313229D01*
X863819Y313154D01*
X863652Y313083D01*
X863483Y313016D01*
X863312Y312953D01*
X863140Y312895D01*
X862966Y312840D01*
X862791Y312790D01*
X862616Y312744D01*
X862439Y312702D01*
X862261Y312665D01*
X862082Y312632D01*
X861902Y312603D01*
X861722Y312579D01*
X861541Y312559D01*
X861360Y312544D01*
X861179Y312533D01*
X860997Y312526D01*
X860815Y312524D01*
X853743Y317575D02*
X853437Y318222D01*
X853147Y318876D01*
X852872Y319537D01*
X852613Y320204D01*
X852371Y320877D01*
X852144Y321556D01*
X851934Y322240D01*
X851740Y322928D01*
X851562Y323621D01*
X851401Y324319D01*
X851257Y325019D01*
X851130Y325724D01*
X851019Y326430D01*
X850925Y327140D01*
X850849Y327851D01*
X850789Y328564D01*
X850746Y329278D01*
X850721Y329994D01*
X850712Y330709D01*
X853743Y317575D02*
X853804Y317404D01*
X853869Y317234D01*
X853939Y317066D01*
X854012Y316900D01*
X854090Y316735D01*
X854171Y316573D01*
X854256Y316412D01*
X854345Y316254D01*
X854438Y316097D01*
X854535Y315943D01*
X854636Y315792D01*
X854740Y315643D01*
X854848Y315496D01*
X854959Y315353D01*
X855074Y315212D01*
X855192Y315073D01*
X855313Y314938D01*
X855438Y314806D01*
X855566Y314676D01*
X855697Y314550D01*
X855831Y314428D01*
X855968Y314308D01*
X856108Y314192D01*
X856251Y314079D01*
X856396Y313970D01*
X856544Y313864D01*
X856695Y313762D01*
X856847Y313664D01*
X857003Y313569D01*
X857160Y313478D01*
X857320Y313391D01*
X857482Y313308D01*
X857645Y313229D01*
X857811Y313154D01*
X857978Y313083D01*
X858148Y313016D01*
X858318Y312953D01*
X858490Y312895D01*
X858664Y312840D01*
X858839Y312790D01*
X859014Y312744D01*
X859191Y312702D01*
X859369Y312665D01*
X859548Y312632D01*
X859728Y312603D01*
X859908Y312579D01*
X860089Y312559D01*
X860270Y312544D01*
X860451Y312533D01*
X860633Y312526D01*
X860815Y312524D01*
X868897Y320606D02*
X852733Y340811D01*
X835485Y344852D02*
X835485Y348894D01*
X815279Y348894D01*
X825382Y312524D01*
X800052Y312524D02*
X787929Y312524D01*
X787731Y312526D01*
X787532Y312534D01*
X787334Y312546D01*
X787137Y312563D01*
X786940Y312585D01*
X786743Y312611D01*
X786547Y312643D01*
X786352Y312679D01*
X786158Y312720D01*
X785965Y312766D01*
X785773Y312817D01*
X785583Y312872D01*
X785394Y312932D01*
X785206Y312996D01*
X785020Y313066D01*
X784836Y313139D01*
X784654Y313217D01*
X784474Y313300D01*
X784295Y313387D01*
X784119Y313478D01*
X783945Y313574D01*
X783774Y313674D01*
X783605Y313778D01*
X783439Y313886D01*
X783275Y313998D01*
X783115Y314114D01*
X782957Y314235D01*
X782802Y314358D01*
X782650Y314486D01*
X782502Y314618D01*
X782356Y314753D01*
X782214Y314891D01*
X782076Y315033D01*
X781941Y315178D01*
X781809Y315327D01*
X781682Y315479D01*
X781558Y315634D01*
X781438Y315791D01*
X781321Y315952D01*
X781209Y316116D01*
X781101Y316282D01*
X780997Y316451D01*
X780897Y316622D01*
X780801Y316796D01*
X780710Y316972D01*
X780623Y317150D01*
X780540Y317331D01*
X780462Y317513D01*
X780389Y317697D01*
X780320Y317883D01*
X780255Y318071D01*
X780195Y318260D01*
X780140Y318450D01*
X780089Y318642D01*
X780043Y318835D01*
X780002Y319029D01*
X779966Y319224D01*
X779935Y319420D01*
X779908Y319616D01*
X779886Y319814D01*
X779869Y320011D01*
X779857Y320209D01*
X779849Y320407D01*
X779847Y320606D01*
X779846Y320606D02*
X779846Y324647D01*
X779848Y324842D01*
X779855Y325037D01*
X779867Y325232D01*
X779884Y325427D01*
X779905Y325621D01*
X779931Y325815D01*
X779961Y326008D01*
X779997Y326200D01*
X780036Y326391D01*
X780081Y326581D01*
X780130Y326770D01*
X780183Y326958D01*
X780242Y327144D01*
X780304Y327330D01*
X780371Y327513D01*
X780443Y327695D01*
X780518Y327875D01*
X780599Y328053D01*
X780683Y328229D01*
X780772Y328403D01*
X780865Y328575D01*
X780962Y328744D01*
X781063Y328911D01*
X781168Y329076D01*
X781277Y329238D01*
X781390Y329398D01*
X781506Y329554D01*
X781627Y329708D01*
X781751Y329859D01*
X781879Y330006D01*
X782010Y330151D01*
X782145Y330292D01*
X782283Y330431D01*
X782424Y330565D01*
X782569Y330697D01*
X782716Y330824D01*
X782867Y330948D01*
X783021Y331069D01*
X783178Y331186D01*
X783337Y331298D01*
X783499Y331407D01*
X783664Y331512D01*
X783831Y331613D01*
X784000Y331710D01*
X784172Y331803D01*
X784346Y331892D01*
X784522Y331976D01*
X784700Y332057D01*
X784880Y332132D01*
X785062Y332204D01*
X785246Y332271D01*
X785431Y332333D01*
X785617Y332392D01*
X785805Y332445D01*
X785994Y332494D01*
X786184Y332539D01*
X786375Y332578D01*
X786567Y332614D01*
X786760Y332644D01*
X786954Y332670D01*
X787148Y332691D01*
X787343Y332708D01*
X787538Y332720D01*
X787733Y332727D01*
X787928Y332729D01*
X787929Y332729D02*
X800052Y332729D01*
X800052Y348894D01*
X779846Y348894D01*
X749977Y352935D02*
X766141Y308483D01*
X736272Y340811D02*
X726170Y348894D01*
X726170Y312524D01*
X736272Y312524D02*
X716067Y312524D01*
X700839Y332729D02*
X688716Y332729D01*
X688518Y332727D01*
X688319Y332719D01*
X688121Y332707D01*
X687924Y332690D01*
X687727Y332668D01*
X687530Y332642D01*
X687334Y332610D01*
X687139Y332574D01*
X686945Y332533D01*
X686752Y332487D01*
X686560Y332436D01*
X686370Y332381D01*
X686181Y332321D01*
X685993Y332257D01*
X685807Y332187D01*
X685623Y332114D01*
X685441Y332036D01*
X685261Y331953D01*
X685082Y331866D01*
X684906Y331775D01*
X684732Y331679D01*
X684561Y331579D01*
X684392Y331475D01*
X684226Y331367D01*
X684062Y331255D01*
X683902Y331139D01*
X683744Y331018D01*
X683589Y330895D01*
X683437Y330767D01*
X683289Y330635D01*
X683143Y330500D01*
X683001Y330362D01*
X682863Y330220D01*
X682728Y330075D01*
X682596Y329926D01*
X682469Y329774D01*
X682345Y329619D01*
X682225Y329462D01*
X682108Y329301D01*
X681996Y329137D01*
X681888Y328971D01*
X681784Y328802D01*
X681684Y328631D01*
X681588Y328457D01*
X681497Y328281D01*
X681410Y328103D01*
X681327Y327922D01*
X681249Y327740D01*
X681176Y327556D01*
X681106Y327370D01*
X681042Y327182D01*
X680982Y326993D01*
X680927Y326803D01*
X680876Y326611D01*
X680830Y326418D01*
X680789Y326224D01*
X680753Y326029D01*
X680721Y325833D01*
X680695Y325636D01*
X680673Y325439D01*
X680656Y325242D01*
X680644Y325044D01*
X680636Y324845D01*
X680634Y324647D01*
X680634Y322626D01*
X680637Y322380D01*
X680646Y322134D01*
X680661Y321889D01*
X680682Y321643D01*
X680709Y321399D01*
X680742Y321155D01*
X680780Y320912D01*
X680825Y320670D01*
X680876Y320429D01*
X680932Y320190D01*
X680994Y319952D01*
X681062Y319715D01*
X681136Y319481D01*
X681216Y319248D01*
X681301Y319017D01*
X681391Y318788D01*
X681488Y318562D01*
X681589Y318338D01*
X681696Y318116D01*
X681809Y317897D01*
X681927Y317681D01*
X682050Y317468D01*
X682178Y317258D01*
X682311Y317051D01*
X682449Y316848D01*
X682593Y316648D01*
X682741Y316451D01*
X682893Y316258D01*
X683051Y316069D01*
X683213Y315884D01*
X683379Y315703D01*
X683550Y315526D01*
X683725Y315353D01*
X683904Y315184D01*
X684087Y315020D01*
X684274Y314860D01*
X684465Y314705D01*
X684660Y314555D01*
X684858Y314409D01*
X685060Y314269D01*
X685266Y314133D01*
X685474Y314002D01*
X685686Y313877D01*
X685900Y313756D01*
X686117Y313641D01*
X686338Y313531D01*
X686560Y313427D01*
X686786Y313328D01*
X687013Y313234D01*
X687243Y313146D01*
X687475Y313064D01*
X687709Y312988D01*
X687944Y312917D01*
X688182Y312852D01*
X688420Y312792D01*
X688661Y312739D01*
X688902Y312691D01*
X689144Y312649D01*
X689388Y312613D01*
X689632Y312584D01*
X689877Y312560D01*
X690122Y312542D01*
X690368Y312530D01*
X690614Y312524D01*
X690860Y312524D01*
X691106Y312530D01*
X691352Y312542D01*
X691597Y312560D01*
X691842Y312584D01*
X692086Y312613D01*
X692330Y312649D01*
X692572Y312691D01*
X692813Y312739D01*
X693054Y312792D01*
X693292Y312852D01*
X693530Y312917D01*
X693765Y312988D01*
X693999Y313064D01*
X694231Y313146D01*
X694461Y313234D01*
X694688Y313328D01*
X694914Y313427D01*
X695136Y313531D01*
X695357Y313641D01*
X695574Y313756D01*
X695789Y313877D01*
X696000Y314002D01*
X696208Y314133D01*
X696414Y314269D01*
X696616Y314409D01*
X696814Y314555D01*
X697009Y314705D01*
X697200Y314860D01*
X697387Y315020D01*
X697570Y315184D01*
X697749Y315353D01*
X697924Y315526D01*
X698095Y315703D01*
X698261Y315884D01*
X698423Y316069D01*
X698581Y316258D01*
X698733Y316451D01*
X698881Y316648D01*
X699025Y316848D01*
X699163Y317051D01*
X699296Y317258D01*
X699424Y317468D01*
X699547Y317681D01*
X699665Y317897D01*
X699778Y318116D01*
X699885Y318338D01*
X699986Y318562D01*
X700083Y318788D01*
X700173Y319017D01*
X700258Y319248D01*
X700338Y319481D01*
X700412Y319715D01*
X700480Y319952D01*
X700542Y320190D01*
X700598Y320429D01*
X700649Y320670D01*
X700694Y320912D01*
X700732Y321155D01*
X700765Y321399D01*
X700792Y321643D01*
X700813Y321889D01*
X700828Y322134D01*
X700837Y322380D01*
X700840Y322626D01*
X700839Y322626D02*
X700839Y332729D01*
X700834Y333120D01*
X700820Y333510D01*
X700797Y333900D01*
X700764Y334289D01*
X700721Y334677D01*
X700669Y335065D01*
X700608Y335450D01*
X700538Y335835D01*
X700458Y336217D01*
X700369Y336597D01*
X700271Y336975D01*
X700164Y337351D01*
X700048Y337724D01*
X699923Y338094D01*
X699789Y338461D01*
X699646Y338824D01*
X699494Y339184D01*
X699334Y339541D01*
X699165Y339893D01*
X698988Y340241D01*
X698802Y340584D01*
X698608Y340923D01*
X698406Y341258D01*
X698196Y341587D01*
X697978Y341911D01*
X697752Y342230D01*
X697519Y342543D01*
X697278Y342851D01*
X697029Y343152D01*
X696774Y343448D01*
X696511Y343737D01*
X696242Y344020D01*
X695966Y344296D01*
X695683Y344565D01*
X695394Y344828D01*
X695098Y345083D01*
X694797Y345332D01*
X694489Y345573D01*
X694176Y345806D01*
X693857Y346032D01*
X693533Y346250D01*
X693204Y346460D01*
X692869Y346662D01*
X692530Y346856D01*
X692187Y347042D01*
X691839Y347219D01*
X691487Y347388D01*
X691130Y347548D01*
X690770Y347700D01*
X690407Y347843D01*
X690040Y347977D01*
X689670Y348102D01*
X689297Y348218D01*
X688921Y348325D01*
X688543Y348423D01*
X688163Y348512D01*
X687781Y348592D01*
X687396Y348662D01*
X687011Y348723D01*
X686623Y348775D01*
X686235Y348818D01*
X685846Y348851D01*
X685456Y348874D01*
X685066Y348888D01*
X684675Y348893D01*
M02*
