G04 EAGLE Gerber X2 export*
%TF.Part,Single*%
%TF.FileFunction,Copper,L2,Bot,Mixed*%
%TF.FilePolarity,Positive*%
%TF.GenerationSoftware,Autodesk,EAGLE,9.4.2*%
%TF.CreationDate,2019-07-28T14:53:56Z*%
G75*
%MOIN*%
%FSLAX36Y36*%
%LPD*%
%INBottom Copper Layer*%
%AMOC8*
5,1,8,0,0,1.08239X$1,22.5*%
G01*
%ADD10P,0.068191X8X292.500000*%
%ADD11C,0.063000*%
%ADD12P,0.056284X8X22.500000*%
%ADD13C,0.170000*%
%ADD14P,0.056284X8X202.500000*%
%ADD15P,0.056284X8X112.500000*%
%ADD16C,0.074000*%
%ADD17C,0.060000*%
%ADD18C,0.064000*%
%ADD19C,0.065000*%
%ADD20R,0.039370X0.070866*%
%ADD21C,0.040000*%
%ADD22C,0.016000*%
%ADD23C,0.024000*%
%ADD24C,0.012000*%

G36*
X1723723Y40008D02*
X1723723Y40008D01*
X1723792Y40002D01*
X1724510Y40086D01*
X1725231Y40158D01*
X1725297Y40178D01*
X1725366Y40186D01*
X1726053Y40410D01*
X1726747Y40623D01*
X1726808Y40656D01*
X1726874Y40677D01*
X1727502Y41032D01*
X1728141Y41378D01*
X1728194Y41422D01*
X1728254Y41456D01*
X1728803Y41929D01*
X1729359Y42393D01*
X1729402Y42446D01*
X1729455Y42492D01*
X1729900Y43065D01*
X1730352Y43628D01*
X1730384Y43689D01*
X1730427Y43744D01*
X1730750Y44394D01*
X1731083Y45035D01*
X1731102Y45101D01*
X1731133Y45164D01*
X1731322Y45865D01*
X1731522Y46558D01*
X1731527Y46627D01*
X1731546Y46694D01*
X1731653Y48000D01*
X1731653Y2314205D01*
X1731646Y2314274D01*
X1731652Y2314343D01*
X1731568Y2315061D01*
X1731496Y2315782D01*
X1731475Y2315849D01*
X1731467Y2315918D01*
X1731243Y2316604D01*
X1731031Y2317298D01*
X1730997Y2317359D01*
X1730976Y2317425D01*
X1730622Y2318053D01*
X1730276Y2318692D01*
X1730231Y2318745D01*
X1730197Y2318806D01*
X1729724Y2319354D01*
X1729261Y2319910D01*
X1729207Y2319953D01*
X1729161Y2320006D01*
X1728588Y2320451D01*
X1728026Y2320903D01*
X1727964Y2320935D01*
X1727909Y2320978D01*
X1727259Y2321301D01*
X1726619Y2321634D01*
X1726552Y2321653D01*
X1726490Y2321684D01*
X1725789Y2321873D01*
X1725095Y2322073D01*
X1725026Y2322079D01*
X1724959Y2322097D01*
X1723654Y2322204D01*
X48000Y2322204D01*
X47931Y2322197D01*
X47862Y2322203D01*
X47143Y2322119D01*
X46422Y2322047D01*
X46356Y2322027D01*
X46287Y2322018D01*
X45601Y2321795D01*
X44907Y2321582D01*
X44845Y2321549D01*
X44780Y2321527D01*
X44152Y2321173D01*
X43513Y2320827D01*
X43459Y2320782D01*
X43399Y2320748D01*
X42851Y2320275D01*
X42295Y2319812D01*
X42251Y2319758D01*
X42199Y2319713D01*
X41754Y2319139D01*
X41301Y2318577D01*
X41269Y2318515D01*
X41227Y2318460D01*
X40903Y2317811D01*
X40570Y2317170D01*
X40551Y2317104D01*
X40520Y2317041D01*
X40331Y2316340D01*
X40132Y2315647D01*
X40126Y2315577D01*
X40108Y2315510D01*
X40001Y2314205D01*
X40001Y48000D01*
X40008Y47931D01*
X40002Y47862D01*
X40086Y47143D01*
X40158Y46422D01*
X40178Y46356D01*
X40186Y46287D01*
X40410Y45601D01*
X40623Y44907D01*
X40656Y44845D01*
X40677Y44780D01*
X41032Y44152D01*
X41378Y43513D01*
X41422Y43459D01*
X41456Y43399D01*
X41929Y42851D01*
X42393Y42295D01*
X42446Y42251D01*
X42492Y42199D01*
X43065Y41754D01*
X43628Y41301D01*
X43689Y41269D01*
X43744Y41227D01*
X44394Y40903D01*
X45035Y40570D01*
X45101Y40551D01*
X45164Y40520D01*
X45865Y40331D01*
X46558Y40132D01*
X46627Y40126D01*
X46694Y40108D01*
X48000Y40001D01*
X1723654Y40001D01*
X1723723Y40008D01*
G37*
%LPC*%
G36*
X249847Y408094D02*
X249847Y408094D01*
X236615Y413574D01*
X226488Y423702D01*
X221007Y436933D01*
X221007Y451255D01*
X226488Y464487D01*
X236615Y474614D01*
X249847Y480095D01*
X282925Y480095D01*
X283028Y480105D01*
X283132Y480098D01*
X283815Y480184D01*
X284502Y480252D01*
X284602Y480283D01*
X284705Y480296D01*
X285357Y480515D01*
X286018Y480717D01*
X286110Y480767D01*
X286208Y480800D01*
X286805Y481144D01*
X287412Y481472D01*
X287492Y481539D01*
X287582Y481591D01*
X288581Y482438D01*
X317777Y511634D01*
X326217Y520074D01*
X335773Y524032D01*
X539338Y524032D01*
X539442Y524042D01*
X539546Y524035D01*
X540229Y524121D01*
X540916Y524189D01*
X541015Y524220D01*
X541118Y524233D01*
X541771Y524452D01*
X542431Y524654D01*
X542523Y524704D01*
X542621Y524737D01*
X543218Y525080D01*
X543825Y525409D01*
X543905Y525476D01*
X543995Y525528D01*
X544995Y526375D01*
X548443Y529823D01*
X562226Y535532D01*
X577144Y535532D01*
X579448Y534578D01*
X579531Y534553D01*
X579608Y534514D01*
X580287Y534324D01*
X580965Y534119D01*
X581052Y534111D01*
X581135Y534088D01*
X581840Y534036D01*
X582544Y533969D01*
X582630Y533978D01*
X582716Y533972D01*
X583418Y534060D01*
X584120Y534133D01*
X584203Y534159D01*
X584289Y534170D01*
X584958Y534394D01*
X585634Y534605D01*
X585710Y534646D01*
X585792Y534674D01*
X586405Y535027D01*
X587025Y535366D01*
X587091Y535421D01*
X587166Y535465D01*
X588165Y536312D01*
X591934Y540080D01*
X591978Y540134D01*
X592031Y540179D01*
X592479Y540746D01*
X592938Y541307D01*
X592971Y541368D01*
X593014Y541423D01*
X593341Y542067D01*
X593681Y542707D01*
X593701Y542774D01*
X593732Y542836D01*
X593926Y543530D01*
X594133Y544227D01*
X594139Y544296D01*
X594158Y544363D01*
X594211Y545081D01*
X594277Y545806D01*
X594269Y545875D01*
X594274Y545944D01*
X594184Y546659D01*
X594106Y547382D01*
X594085Y547448D01*
X594076Y547517D01*
X593846Y548203D01*
X593628Y548893D01*
X593594Y548954D01*
X593572Y549020D01*
X593210Y549649D01*
X592861Y550281D01*
X592816Y550334D01*
X592781Y550394D01*
X591934Y551393D01*
X578235Y565091D01*
X578235Y591601D01*
X596981Y610347D01*
X623491Y610347D01*
X642237Y591601D01*
X642237Y565091D01*
X626580Y549434D01*
X626514Y549354D01*
X626435Y549286D01*
X626012Y548741D01*
X625575Y548208D01*
X625527Y548116D01*
X625463Y548034D01*
X625156Y547417D01*
X624833Y546807D01*
X624803Y546708D01*
X624757Y546614D01*
X624577Y545950D01*
X624381Y545288D01*
X624371Y545184D01*
X624344Y545084D01*
X624237Y543778D01*
X624237Y532031D01*
X624244Y531962D01*
X624238Y531893D01*
X624322Y531175D01*
X624394Y530454D01*
X624414Y530388D01*
X624422Y530319D01*
X624646Y529632D01*
X624859Y528938D01*
X624892Y528877D01*
X624914Y528811D01*
X625268Y528183D01*
X625614Y527544D01*
X625658Y527491D01*
X625692Y527430D01*
X626165Y526882D01*
X626629Y526326D01*
X626683Y526283D01*
X626728Y526230D01*
X627302Y525785D01*
X627864Y525333D01*
X627926Y525301D01*
X627980Y525258D01*
X628630Y524935D01*
X629271Y524602D01*
X629337Y524583D01*
X629400Y524552D01*
X630101Y524363D01*
X630794Y524163D01*
X630863Y524157D01*
X630930Y524139D01*
X632236Y524032D01*
X747728Y524032D01*
X747831Y524042D01*
X747935Y524035D01*
X748618Y524121D01*
X749305Y524189D01*
X749405Y524220D01*
X749508Y524233D01*
X750160Y524452D01*
X750821Y524654D01*
X750913Y524704D01*
X751011Y524737D01*
X751607Y525080D01*
X752215Y525409D01*
X752295Y525476D01*
X752385Y525528D01*
X753384Y526375D01*
X814176Y587167D01*
X814242Y587248D01*
X814321Y587315D01*
X814744Y587861D01*
X815180Y588394D01*
X815229Y588485D01*
X815293Y588568D01*
X815600Y589185D01*
X815923Y589794D01*
X815953Y589894D01*
X815999Y589987D01*
X816178Y590652D01*
X816375Y591314D01*
X816385Y591418D01*
X816412Y591518D01*
X816519Y592823D01*
X816519Y1589066D01*
X816509Y1589170D01*
X816516Y1589274D01*
X816430Y1589955D01*
X816362Y1590644D01*
X816331Y1590743D01*
X816318Y1590847D01*
X816100Y1591499D01*
X815897Y1592159D01*
X815847Y1592251D01*
X815814Y1592350D01*
X815471Y1592946D01*
X815142Y1593554D01*
X815075Y1593633D01*
X815023Y1593724D01*
X814176Y1594723D01*
X777794Y1631105D01*
X777713Y1631171D01*
X777645Y1631250D01*
X777100Y1631673D01*
X776567Y1632109D01*
X776475Y1632158D01*
X776393Y1632222D01*
X775776Y1632529D01*
X775166Y1632852D01*
X775067Y1632882D01*
X774974Y1632928D01*
X774309Y1633108D01*
X773647Y1633304D01*
X773543Y1633314D01*
X773443Y1633341D01*
X772137Y1633448D01*
X717274Y1633448D01*
X717171Y1633438D01*
X717067Y1633445D01*
X716384Y1633359D01*
X715697Y1633291D01*
X715597Y1633260D01*
X715494Y1633247D01*
X714842Y1633029D01*
X714181Y1632826D01*
X714089Y1632776D01*
X713991Y1632743D01*
X713395Y1632400D01*
X712787Y1632071D01*
X712707Y1632004D01*
X712617Y1631953D01*
X711618Y1631105D01*
X707746Y1627233D01*
X693779Y1621448D01*
X678662Y1621448D01*
X664695Y1627233D01*
X654005Y1637923D01*
X648220Y1651890D01*
X648220Y1667008D01*
X654005Y1680974D01*
X664695Y1691664D01*
X678662Y1697449D01*
X692137Y1697449D01*
X692172Y1697453D01*
X692207Y1697450D01*
X692965Y1697532D01*
X693715Y1697607D01*
X693748Y1697617D01*
X693783Y1697620D01*
X694504Y1697849D01*
X695231Y1698072D01*
X695261Y1698088D01*
X695294Y1698099D01*
X695956Y1698465D01*
X696625Y1698827D01*
X696651Y1698849D01*
X696682Y1698866D01*
X697262Y1699358D01*
X697842Y1699841D01*
X697864Y1699868D01*
X697891Y1699891D01*
X698365Y1700491D01*
X698836Y1701077D01*
X698852Y1701107D01*
X698874Y1701135D01*
X699219Y1701815D01*
X699567Y1702484D01*
X699576Y1702517D01*
X699592Y1702548D01*
X699795Y1703277D01*
X700006Y1704007D01*
X700008Y1704042D01*
X700018Y1704075D01*
X700073Y1704831D01*
X700135Y1705587D01*
X700131Y1705621D01*
X700134Y1705656D01*
X700039Y1706408D01*
X699951Y1707162D01*
X699940Y1707195D01*
X699936Y1707229D01*
X699695Y1707949D01*
X699460Y1708669D01*
X699443Y1708699D01*
X699432Y1708732D01*
X699049Y1709396D01*
X698681Y1710050D01*
X698659Y1710076D01*
X698641Y1710106D01*
X697794Y1711105D01*
X689793Y1719105D01*
X689713Y1719171D01*
X689645Y1719250D01*
X689101Y1719673D01*
X688567Y1720110D01*
X688475Y1720159D01*
X688393Y1720222D01*
X687776Y1720529D01*
X687166Y1720852D01*
X687067Y1720882D01*
X686974Y1720928D01*
X686308Y1721108D01*
X685647Y1721304D01*
X685543Y1721314D01*
X685443Y1721341D01*
X684137Y1721448D01*
X678662Y1721448D01*
X664695Y1727233D01*
X654005Y1737923D01*
X648220Y1751890D01*
X648220Y1767008D01*
X654005Y1780974D01*
X664695Y1791664D01*
X678662Y1797449D01*
X693779Y1797449D01*
X707746Y1791664D01*
X718436Y1780974D01*
X724221Y1767008D01*
X724221Y1761532D01*
X724231Y1761428D01*
X724224Y1761325D01*
X724310Y1760641D01*
X724378Y1759954D01*
X724409Y1759855D01*
X724422Y1759752D01*
X724641Y1759100D01*
X724843Y1758439D01*
X724893Y1758347D01*
X724926Y1758249D01*
X725269Y1757652D01*
X725598Y1757045D01*
X725665Y1756965D01*
X725717Y1756875D01*
X726564Y1755876D01*
X864562Y1617878D01*
X868520Y1608321D01*
X868520Y1566335D01*
X868524Y1566301D01*
X868521Y1566266D01*
X868603Y1565504D01*
X868677Y1564757D01*
X868688Y1564724D01*
X868691Y1564690D01*
X868920Y1563968D01*
X869142Y1563242D01*
X869159Y1563211D01*
X869170Y1563178D01*
X869535Y1562516D01*
X869897Y1561848D01*
X869920Y1561821D01*
X869936Y1561791D01*
X870426Y1561213D01*
X870912Y1560630D01*
X870940Y1560608D01*
X870962Y1560582D01*
X871558Y1560111D01*
X872148Y1559636D01*
X872178Y1559620D01*
X872206Y1559599D01*
X872885Y1559253D01*
X873554Y1558906D01*
X873588Y1558896D01*
X873619Y1558880D01*
X874348Y1558677D01*
X875078Y1558467D01*
X875112Y1558464D01*
X875146Y1558454D01*
X875903Y1558399D01*
X876658Y1558337D01*
X876692Y1558341D01*
X876727Y1558338D01*
X877478Y1558433D01*
X878232Y1558521D01*
X878266Y1558532D01*
X878300Y1558536D01*
X879018Y1558777D01*
X879740Y1559012D01*
X879770Y1559029D01*
X879803Y1559040D01*
X880464Y1559421D01*
X881120Y1559791D01*
X881147Y1559814D01*
X881177Y1559831D01*
X882176Y1560679D01*
X894548Y1573051D01*
X894549Y1573052D01*
X902988Y1581491D01*
X912545Y1585449D01*
X955167Y1585449D01*
X955270Y1585460D01*
X955374Y1585452D01*
X956058Y1585538D01*
X956744Y1585607D01*
X956844Y1585637D01*
X956947Y1585650D01*
X957601Y1585869D01*
X958260Y1586072D01*
X958351Y1586121D01*
X958450Y1586154D01*
X959047Y1586498D01*
X959654Y1586827D01*
X959734Y1586893D01*
X959824Y1586945D01*
X960823Y1587792D01*
X964695Y1591664D01*
X978662Y1597449D01*
X993779Y1597449D01*
X1007746Y1591664D01*
X1019445Y1579965D01*
X1019601Y1579776D01*
X1019672Y1579718D01*
X1019733Y1579648D01*
X1020287Y1579218D01*
X1020830Y1578775D01*
X1020912Y1578732D01*
X1020985Y1578675D01*
X1021614Y1578363D01*
X1022233Y1578037D01*
X1022321Y1578011D01*
X1022404Y1577969D01*
X1023082Y1577787D01*
X1023754Y1577589D01*
X1023846Y1577581D01*
X1023935Y1577557D01*
X1025241Y1577449D01*
X1050431Y1577449D01*
X1057047Y1574709D01*
X1095664Y1536092D01*
X1095745Y1536026D01*
X1095813Y1535947D01*
X1096358Y1535524D01*
X1096891Y1535087D01*
X1096983Y1535039D01*
X1097065Y1534975D01*
X1097682Y1534668D01*
X1098291Y1534344D01*
X1098391Y1534315D01*
X1098484Y1534268D01*
X1099149Y1534089D01*
X1099811Y1533892D01*
X1099915Y1533883D01*
X1100015Y1533856D01*
X1101321Y1533749D01*
X1512908Y1533749D01*
X1513012Y1533759D01*
X1513116Y1533751D01*
X1513799Y1533837D01*
X1514486Y1533906D01*
X1514586Y1533936D01*
X1514689Y1533949D01*
X1515341Y1534168D01*
X1516001Y1534371D01*
X1516093Y1534421D01*
X1516192Y1534453D01*
X1516788Y1534797D01*
X1517396Y1535126D01*
X1517476Y1535192D01*
X1517566Y1535244D01*
X1518565Y1536092D01*
X1520473Y1538000D01*
X1533705Y1543481D01*
X1608027Y1543481D01*
X1621259Y1538000D01*
X1631386Y1527873D01*
X1636867Y1514641D01*
X1636867Y1500319D01*
X1631386Y1487088D01*
X1621259Y1476960D01*
X1608027Y1471480D01*
X1533705Y1471480D01*
X1520473Y1476960D01*
X1510346Y1487087D01*
X1507976Y1492809D01*
X1507935Y1492886D01*
X1507908Y1492968D01*
X1507562Y1493582D01*
X1507227Y1494206D01*
X1507172Y1494273D01*
X1507130Y1494349D01*
X1506667Y1494885D01*
X1506218Y1495429D01*
X1506151Y1495483D01*
X1506094Y1495549D01*
X1505535Y1495983D01*
X1504987Y1496428D01*
X1504910Y1496468D01*
X1504842Y1496521D01*
X1504208Y1496836D01*
X1503583Y1497164D01*
X1503500Y1497189D01*
X1503422Y1497228D01*
X1502739Y1497412D01*
X1502062Y1497610D01*
X1501975Y1497617D01*
X1501891Y1497640D01*
X1500586Y1497747D01*
X1086971Y1497747D01*
X1080355Y1500488D01*
X1041737Y1539105D01*
X1041657Y1539171D01*
X1041589Y1539250D01*
X1041044Y1539673D01*
X1040511Y1540109D01*
X1040419Y1540158D01*
X1040336Y1540222D01*
X1039719Y1540529D01*
X1039110Y1540852D01*
X1039010Y1540882D01*
X1038917Y1540928D01*
X1038252Y1541108D01*
X1037591Y1541304D01*
X1037487Y1541314D01*
X1037386Y1541341D01*
X1036081Y1541448D01*
X1025241Y1541448D01*
X1025149Y1541439D01*
X1025056Y1541446D01*
X1024359Y1541360D01*
X1023663Y1541291D01*
X1023575Y1541264D01*
X1023483Y1541253D01*
X1022818Y1541031D01*
X1022148Y1540826D01*
X1022066Y1540782D01*
X1021979Y1540753D01*
X1021370Y1540405D01*
X1020754Y1540071D01*
X1020683Y1540012D01*
X1020602Y1539966D01*
X1020074Y1539505D01*
X1019536Y1539056D01*
X1019478Y1538984D01*
X1019408Y1538923D01*
X1019317Y1538804D01*
X1007746Y1527233D01*
X993779Y1521448D01*
X978662Y1521448D01*
X964695Y1527233D01*
X960823Y1531105D01*
X960743Y1531171D01*
X960675Y1531250D01*
X960130Y1531673D01*
X959597Y1532109D01*
X959504Y1532158D01*
X959422Y1532222D01*
X958804Y1532530D01*
X958196Y1532852D01*
X958097Y1532882D01*
X958003Y1532928D01*
X957335Y1533108D01*
X956677Y1533304D01*
X956573Y1533314D01*
X956472Y1533341D01*
X955167Y1533448D01*
X931800Y1533448D01*
X931696Y1533438D01*
X931592Y1533445D01*
X930909Y1533359D01*
X930222Y1533291D01*
X930123Y1533260D01*
X930019Y1533247D01*
X929367Y1533029D01*
X928707Y1532826D01*
X928615Y1532776D01*
X928516Y1532743D01*
X927920Y1532400D01*
X927313Y1532071D01*
X927232Y1532004D01*
X927142Y1531953D01*
X926143Y1531105D01*
X870863Y1475825D01*
X870797Y1475744D01*
X870719Y1475677D01*
X870295Y1475131D01*
X869859Y1474598D01*
X869810Y1474507D01*
X869746Y1474424D01*
X869439Y1473807D01*
X869116Y1473198D01*
X869086Y1473098D01*
X869040Y1473005D01*
X868861Y1472340D01*
X868664Y1471678D01*
X868655Y1471574D01*
X868628Y1471474D01*
X868520Y1470169D01*
X868520Y581509D01*
X868531Y581406D01*
X868523Y581302D01*
X868609Y580619D01*
X868677Y579932D01*
X868708Y579832D01*
X868721Y579729D01*
X868940Y579077D01*
X869142Y578416D01*
X869192Y578325D01*
X869225Y578226D01*
X869568Y577630D01*
X869897Y577022D01*
X869964Y576942D01*
X870016Y576852D01*
X870863Y575853D01*
X890546Y556170D01*
X890627Y556104D01*
X890695Y556026D01*
X891240Y555602D01*
X891773Y555166D01*
X891864Y555117D01*
X891947Y555053D01*
X892564Y554746D01*
X893173Y554423D01*
X893273Y554393D01*
X893366Y554347D01*
X894031Y554168D01*
X894693Y553971D01*
X894797Y553962D01*
X894897Y553935D01*
X896202Y553827D01*
X1084392Y553827D01*
X1084496Y553838D01*
X1084600Y553830D01*
X1085283Y553916D01*
X1085970Y553984D01*
X1086069Y554015D01*
X1086172Y554028D01*
X1086825Y554247D01*
X1087485Y554450D01*
X1087577Y554499D01*
X1087675Y554532D01*
X1088273Y554876D01*
X1088879Y555204D01*
X1088959Y555271D01*
X1089050Y555323D01*
X1090049Y556170D01*
X1101705Y567827D01*
X1118191Y567827D01*
X1118295Y567838D01*
X1118398Y567830D01*
X1119082Y567916D01*
X1119769Y567984D01*
X1119868Y568015D01*
X1119971Y568028D01*
X1120624Y568247D01*
X1121284Y568450D01*
X1121376Y568499D01*
X1121474Y568532D01*
X1122071Y568875D01*
X1122678Y569204D01*
X1122758Y569271D01*
X1122848Y569323D01*
X1123848Y570170D01*
X1276418Y722740D01*
X1283034Y725481D01*
X1355428Y725481D01*
X1355532Y725491D01*
X1355635Y725484D01*
X1356319Y725570D01*
X1357006Y725638D01*
X1357105Y725669D01*
X1357208Y725682D01*
X1357860Y725900D01*
X1358521Y726103D01*
X1358613Y726153D01*
X1358711Y726186D01*
X1359308Y726529D01*
X1359915Y726858D01*
X1359995Y726925D01*
X1360085Y726977D01*
X1361084Y727824D01*
X1370867Y737607D01*
X1384099Y743087D01*
X1458421Y743087D01*
X1471652Y737607D01*
X1481435Y727824D01*
X1481516Y727758D01*
X1481584Y727679D01*
X1482129Y727256D01*
X1482662Y726820D01*
X1482754Y726771D01*
X1482836Y726707D01*
X1483453Y726400D01*
X1484062Y726077D01*
X1484162Y726047D01*
X1484255Y726001D01*
X1484920Y725821D01*
X1485582Y725625D01*
X1485686Y725615D01*
X1485786Y725588D01*
X1487092Y725481D01*
X1504641Y725481D01*
X1504744Y725491D01*
X1504848Y725484D01*
X1505531Y725570D01*
X1506218Y725638D01*
X1506318Y725669D01*
X1506421Y725682D01*
X1507073Y725900D01*
X1507734Y726103D01*
X1507826Y726153D01*
X1507924Y726186D01*
X1508520Y726529D01*
X1509128Y726858D01*
X1509208Y726925D01*
X1509298Y726977D01*
X1510297Y727824D01*
X1520473Y738000D01*
X1533705Y743481D01*
X1608027Y743481D01*
X1621259Y738000D01*
X1631386Y727873D01*
X1636867Y714641D01*
X1636867Y700319D01*
X1631386Y687088D01*
X1621259Y676960D01*
X1608027Y671480D01*
X1533705Y671480D01*
X1520473Y676960D01*
X1510297Y687137D01*
X1510216Y687203D01*
X1510148Y687281D01*
X1509603Y687705D01*
X1509070Y688141D01*
X1508979Y688190D01*
X1508896Y688254D01*
X1508279Y688561D01*
X1507670Y688884D01*
X1507570Y688914D01*
X1507477Y688960D01*
X1506812Y689139D01*
X1506150Y689336D01*
X1506046Y689345D01*
X1505946Y689372D01*
X1504641Y689480D01*
X1487879Y689480D01*
X1487775Y689469D01*
X1487672Y689477D01*
X1486988Y689391D01*
X1486301Y689322D01*
X1486202Y689292D01*
X1486099Y689279D01*
X1485447Y689060D01*
X1484786Y688857D01*
X1484694Y688808D01*
X1484596Y688775D01*
X1483999Y688431D01*
X1483392Y688102D01*
X1483312Y688036D01*
X1483222Y687984D01*
X1482223Y687137D01*
X1471652Y676567D01*
X1458421Y671086D01*
X1384099Y671086D01*
X1370867Y676567D01*
X1360297Y687137D01*
X1360216Y687203D01*
X1360148Y687281D01*
X1359603Y687705D01*
X1359070Y688141D01*
X1358979Y688190D01*
X1358896Y688254D01*
X1358279Y688561D01*
X1357670Y688884D01*
X1357570Y688914D01*
X1357477Y688960D01*
X1356812Y689139D01*
X1356150Y689336D01*
X1356046Y689345D01*
X1355946Y689372D01*
X1354641Y689480D01*
X1297384Y689480D01*
X1297280Y689469D01*
X1297176Y689477D01*
X1296493Y689391D01*
X1295806Y689322D01*
X1295706Y689292D01*
X1295603Y689279D01*
X1294951Y689060D01*
X1294290Y688857D01*
X1294199Y688808D01*
X1294100Y688775D01*
X1293504Y688431D01*
X1292896Y688102D01*
X1292816Y688036D01*
X1292726Y687984D01*
X1291727Y687137D01*
X1149304Y544714D01*
X1149238Y544633D01*
X1149159Y544565D01*
X1148736Y544020D01*
X1148300Y543487D01*
X1148251Y543395D01*
X1148187Y543313D01*
X1147879Y542694D01*
X1147557Y542087D01*
X1147527Y541987D01*
X1147481Y541894D01*
X1147302Y541229D01*
X1147105Y540567D01*
X1147095Y540463D01*
X1147069Y540363D01*
X1146961Y539057D01*
X1146961Y522572D01*
X1128216Y503826D01*
X1101705Y503826D01*
X1090049Y515483D01*
X1089968Y515549D01*
X1089900Y515628D01*
X1089354Y516052D01*
X1088822Y516487D01*
X1088730Y516536D01*
X1088648Y516600D01*
X1088031Y516907D01*
X1087422Y517230D01*
X1087322Y517260D01*
X1087229Y517306D01*
X1086564Y517485D01*
X1085902Y517682D01*
X1085798Y517692D01*
X1085698Y517719D01*
X1084392Y517826D01*
X881852Y517826D01*
X875236Y520567D01*
X869048Y526755D01*
X853833Y541970D01*
X853779Y542015D01*
X853734Y542067D01*
X853171Y542512D01*
X852606Y542975D01*
X852545Y543007D01*
X852491Y543050D01*
X851848Y543377D01*
X851206Y543717D01*
X851139Y543737D01*
X851077Y543769D01*
X850384Y543962D01*
X849686Y544169D01*
X849617Y544176D01*
X849550Y544194D01*
X848832Y544247D01*
X848107Y544313D01*
X848038Y544305D01*
X847969Y544310D01*
X847254Y544220D01*
X846531Y544142D01*
X846465Y544121D01*
X846396Y544112D01*
X845711Y543882D01*
X845020Y543664D01*
X844959Y543630D01*
X844893Y543608D01*
X844265Y543247D01*
X843632Y542897D01*
X843579Y542852D01*
X843519Y542818D01*
X842520Y541970D01*
X776539Y475989D01*
X766983Y472031D01*
X600032Y472031D01*
X599928Y472020D01*
X599824Y472028D01*
X599141Y471942D01*
X598454Y471874D01*
X598355Y471843D01*
X598251Y471830D01*
X597599Y471611D01*
X596939Y471409D01*
X596847Y471359D01*
X596749Y471326D01*
X596152Y470983D01*
X595545Y470654D01*
X595465Y470587D01*
X595375Y470535D01*
X594375Y469688D01*
X590927Y466240D01*
X577144Y460531D01*
X562226Y460531D01*
X548443Y466240D01*
X544995Y469688D01*
X544947Y469727D01*
X544916Y469763D01*
X544887Y469785D01*
X544846Y469833D01*
X544301Y470256D01*
X543768Y470692D01*
X543676Y470741D01*
X543594Y470805D01*
X542977Y471112D01*
X542367Y471435D01*
X542268Y471465D01*
X542175Y471511D01*
X541510Y471690D01*
X540848Y471887D01*
X540744Y471897D01*
X540644Y471923D01*
X539338Y472031D01*
X356375Y472031D01*
X356323Y472026D01*
X356271Y472030D01*
X355530Y471947D01*
X354797Y471874D01*
X354748Y471859D01*
X354696Y471853D01*
X353989Y471625D01*
X353282Y471409D01*
X353236Y471384D01*
X353186Y471368D01*
X352540Y471007D01*
X351888Y470654D01*
X351848Y470620D01*
X351802Y470595D01*
X351240Y470114D01*
X350670Y469639D01*
X350637Y469598D01*
X350598Y469564D01*
X350139Y468979D01*
X349676Y468404D01*
X349652Y468358D01*
X349620Y468316D01*
X349284Y467649D01*
X348945Y466997D01*
X348931Y466947D01*
X348907Y466900D01*
X348710Y466181D01*
X348507Y465473D01*
X348502Y465422D01*
X348488Y465371D01*
X348437Y464630D01*
X348377Y463893D01*
X348383Y463842D01*
X348379Y463790D01*
X348475Y463055D01*
X348561Y462319D01*
X348577Y462269D01*
X348584Y462218D01*
X348984Y460970D01*
X353008Y451255D01*
X353008Y436933D01*
X347528Y423702D01*
X337400Y413574D01*
X324169Y408094D01*
X249847Y408094D01*
G37*
%LPD*%
%LPC*%
G36*
X957242Y764503D02*
X957242Y764503D01*
X941437Y771050D01*
X929341Y783146D01*
X922795Y798950D01*
X922795Y816057D01*
X929341Y831862D01*
X941437Y843958D01*
X957242Y850505D01*
X974349Y850505D01*
X990153Y843958D01*
X1002250Y831862D01*
X1004494Y826443D01*
X1004535Y826366D01*
X1004562Y826284D01*
X1004907Y825671D01*
X1005243Y825045D01*
X1005298Y824978D01*
X1005341Y824903D01*
X1005801Y824370D01*
X1006253Y823823D01*
X1006320Y823768D01*
X1006377Y823703D01*
X1006935Y823269D01*
X1007484Y822824D01*
X1007560Y822784D01*
X1007629Y822731D01*
X1008263Y822415D01*
X1008887Y822087D01*
X1008970Y822063D01*
X1009048Y822024D01*
X1009732Y821840D01*
X1010409Y821642D01*
X1010495Y821634D01*
X1010579Y821612D01*
X1011884Y821505D01*
X1074961Y821505D01*
X1075030Y821511D01*
X1075099Y821506D01*
X1075817Y821590D01*
X1076538Y821662D01*
X1076604Y821682D01*
X1076673Y821690D01*
X1077360Y821914D01*
X1078054Y822127D01*
X1078115Y822160D01*
X1078181Y822181D01*
X1078809Y822536D01*
X1079448Y822882D01*
X1079501Y822926D01*
X1079562Y822960D01*
X1080110Y823433D01*
X1080666Y823897D01*
X1080709Y823950D01*
X1080762Y823996D01*
X1081207Y824569D01*
X1081659Y825132D01*
X1081691Y825193D01*
X1081734Y825248D01*
X1082057Y825898D01*
X1082390Y826539D01*
X1082409Y826605D01*
X1082440Y826667D01*
X1082629Y827368D01*
X1082829Y828062D01*
X1082835Y828131D01*
X1082853Y828198D01*
X1082960Y829504D01*
X1082960Y849082D01*
X1098617Y864739D01*
X1098683Y864819D01*
X1098762Y864887D01*
X1099185Y865432D01*
X1099621Y865965D01*
X1099670Y866057D01*
X1099734Y866140D01*
X1100041Y866757D01*
X1100364Y867366D01*
X1100394Y867466D01*
X1100440Y867559D01*
X1100619Y868224D01*
X1100816Y868885D01*
X1100826Y868989D01*
X1100853Y869090D01*
X1100960Y870395D01*
X1100960Y915431D01*
X1100950Y915535D01*
X1100957Y915639D01*
X1100871Y916322D01*
X1100803Y917009D01*
X1100772Y917109D01*
X1100759Y917212D01*
X1100540Y917864D01*
X1100338Y918525D01*
X1100288Y918616D01*
X1100255Y918715D01*
X1099912Y919311D01*
X1099583Y919919D01*
X1099516Y919999D01*
X1099464Y920089D01*
X1098617Y921088D01*
X1082167Y937538D01*
X1082171Y937587D01*
X1082087Y938305D01*
X1082015Y939026D01*
X1081995Y939093D01*
X1081987Y939162D01*
X1081763Y939848D01*
X1081550Y940542D01*
X1081517Y940603D01*
X1081496Y940669D01*
X1081141Y941297D01*
X1080795Y941936D01*
X1080751Y941989D01*
X1080717Y942050D01*
X1080244Y942598D01*
X1079781Y943154D01*
X1079727Y943197D01*
X1079681Y943250D01*
X1079108Y943695D01*
X1078545Y944148D01*
X1078484Y944180D01*
X1078429Y944222D01*
X1077779Y944546D01*
X1077138Y944878D01*
X1077072Y944897D01*
X1077010Y944928D01*
X1076309Y945117D01*
X1075615Y945317D01*
X1075546Y945323D01*
X1075479Y945341D01*
X1074173Y945448D01*
X1026898Y945448D01*
X1026812Y945439D01*
X1026725Y945446D01*
X1026024Y945361D01*
X1025320Y945291D01*
X1025237Y945266D01*
X1025151Y945255D01*
X1024483Y945034D01*
X1023805Y944826D01*
X1023728Y944784D01*
X1023646Y944757D01*
X1023034Y944409D01*
X1022411Y944071D01*
X1022344Y944015D01*
X1022269Y943973D01*
X1021737Y943510D01*
X1021193Y943056D01*
X1021138Y942988D01*
X1021073Y942932D01*
X1020642Y942372D01*
X1020199Y941821D01*
X1020159Y941744D01*
X1020106Y941675D01*
X1019507Y940510D01*
X1018436Y937923D01*
X1007746Y927233D01*
X993779Y921448D01*
X978662Y921448D01*
X964695Y927233D01*
X954005Y937923D01*
X948220Y951890D01*
X948220Y967008D01*
X954005Y980974D01*
X964695Y991664D01*
X978662Y997449D01*
X993779Y997449D01*
X1007746Y991664D01*
X1018436Y980974D01*
X1019507Y978387D01*
X1019549Y978311D01*
X1019575Y978229D01*
X1019922Y977615D01*
X1020256Y976990D01*
X1020312Y976923D01*
X1020354Y976848D01*
X1020817Y976311D01*
X1021266Y975768D01*
X1021333Y975714D01*
X1021390Y975648D01*
X1021948Y975214D01*
X1022497Y974769D01*
X1022574Y974728D01*
X1022642Y974675D01*
X1023273Y974361D01*
X1023901Y974032D01*
X1023984Y974008D01*
X1024061Y973969D01*
X1024745Y973785D01*
X1025422Y973587D01*
X1025508Y973579D01*
X1025592Y973557D01*
X1026898Y973449D01*
X1088266Y973449D01*
X1088370Y973460D01*
X1088473Y973452D01*
X1089157Y973538D01*
X1089844Y973607D01*
X1089943Y973637D01*
X1090046Y973650D01*
X1090698Y973869D01*
X1091359Y974072D01*
X1091451Y974121D01*
X1091549Y974154D01*
X1092146Y974498D01*
X1092753Y974827D01*
X1092833Y974893D01*
X1092923Y974945D01*
X1093922Y975792D01*
X1100918Y982788D01*
X1127428Y982788D01*
X1146174Y964042D01*
X1146174Y937532D01*
X1143384Y934743D01*
X1143362Y934716D01*
X1143336Y934694D01*
X1142862Y934104D01*
X1142380Y933516D01*
X1142363Y933485D01*
X1142342Y933459D01*
X1141993Y932786D01*
X1141637Y932116D01*
X1141627Y932083D01*
X1141611Y932052D01*
X1141400Y931317D01*
X1141185Y930596D01*
X1141182Y930562D01*
X1141172Y930528D01*
X1141111Y929776D01*
X1141042Y929017D01*
X1141045Y928983D01*
X1141043Y928948D01*
X1141130Y928200D01*
X1141212Y927441D01*
X1141223Y927408D01*
X1141227Y927374D01*
X1141460Y926657D01*
X1141690Y925930D01*
X1141707Y925899D01*
X1141718Y925866D01*
X1142086Y925214D01*
X1142457Y924542D01*
X1142480Y924516D01*
X1142497Y924486D01*
X1142990Y923915D01*
X1143483Y923333D01*
X1143510Y923312D01*
X1143533Y923285D01*
X1144131Y922821D01*
X1144727Y922350D01*
X1144758Y922334D01*
X1144785Y922313D01*
X1145464Y921975D01*
X1146140Y921632D01*
X1146173Y921623D01*
X1146204Y921607D01*
X1146936Y921410D01*
X1147667Y921206D01*
X1147702Y921203D01*
X1147735Y921195D01*
X1149041Y921087D01*
X1179306Y921087D01*
X1179340Y921091D01*
X1179375Y921087D01*
X1180135Y921170D01*
X1180883Y921244D01*
X1180916Y921254D01*
X1180951Y921258D01*
X1181673Y921487D01*
X1182399Y921709D01*
X1182430Y921726D01*
X1182462Y921736D01*
X1183124Y922102D01*
X1183793Y922464D01*
X1183820Y922486D01*
X1183850Y922503D01*
X1184430Y922996D01*
X1185011Y923479D01*
X1185032Y923506D01*
X1185059Y923529D01*
X1185534Y924129D01*
X1186004Y924714D01*
X1186020Y924745D01*
X1186042Y924773D01*
X1186386Y925450D01*
X1186735Y926121D01*
X1186745Y926155D01*
X1186760Y926186D01*
X1186963Y926913D01*
X1187174Y927645D01*
X1187177Y927679D01*
X1187186Y927713D01*
X1187242Y928470D01*
X1187304Y929225D01*
X1187300Y929259D01*
X1187302Y929294D01*
X1187208Y930047D01*
X1187119Y930799D01*
X1187109Y930832D01*
X1187104Y930867D01*
X1186862Y931589D01*
X1186628Y932307D01*
X1186611Y932336D01*
X1186600Y932370D01*
X1186221Y933029D01*
X1185849Y933687D01*
X1185827Y933714D01*
X1185809Y933744D01*
X1184962Y934743D01*
X1182172Y937532D01*
X1182172Y964042D01*
X1200918Y982788D01*
X1223060Y982788D01*
X1223164Y982798D01*
X1223268Y982791D01*
X1223951Y982877D01*
X1224638Y982945D01*
X1224738Y982976D01*
X1224841Y982989D01*
X1225493Y983207D01*
X1226154Y983410D01*
X1226245Y983460D01*
X1226344Y983493D01*
X1226940Y983836D01*
X1227548Y984165D01*
X1227628Y984232D01*
X1227718Y984284D01*
X1227941Y984473D01*
X1460524Y984473D01*
X1508079Y936918D01*
X1508133Y936874D01*
X1508177Y936821D01*
X1508743Y936374D01*
X1509305Y935914D01*
X1509367Y935881D01*
X1509421Y935838D01*
X1510065Y935511D01*
X1510706Y935171D01*
X1510773Y935151D01*
X1510834Y935120D01*
X1511528Y934926D01*
X1512225Y934719D01*
X1512295Y934712D01*
X1512361Y934694D01*
X1513078Y934641D01*
X1513804Y934575D01*
X1513874Y934583D01*
X1513943Y934578D01*
X1514659Y934668D01*
X1515380Y934746D01*
X1515446Y934767D01*
X1515516Y934776D01*
X1516202Y935006D01*
X1516892Y935224D01*
X1516953Y935258D01*
X1517018Y935280D01*
X1517647Y935642D01*
X1518279Y935991D01*
X1518332Y936036D01*
X1518392Y936071D01*
X1519391Y936918D01*
X1520473Y938000D01*
X1533705Y943481D01*
X1608027Y943481D01*
X1621259Y938000D01*
X1631386Y927873D01*
X1636867Y914641D01*
X1636867Y900319D01*
X1631386Y887088D01*
X1621259Y876960D01*
X1608027Y871480D01*
X1533705Y871480D01*
X1520473Y876960D01*
X1510346Y887088D01*
X1505324Y899211D01*
X1505267Y899318D01*
X1505228Y899433D01*
X1504894Y900015D01*
X1504576Y900609D01*
X1504498Y900702D01*
X1504438Y900807D01*
X1503590Y901806D01*
X1500916Y904481D01*
X1500889Y904503D01*
X1500867Y904529D01*
X1500278Y905003D01*
X1499689Y905485D01*
X1499659Y905501D01*
X1499632Y905523D01*
X1498962Y905871D01*
X1498289Y906228D01*
X1498255Y906238D01*
X1498225Y906254D01*
X1497504Y906462D01*
X1496769Y906680D01*
X1496734Y906683D01*
X1496702Y906693D01*
X1495955Y906754D01*
X1495191Y906823D01*
X1495156Y906820D01*
X1495122Y906822D01*
X1494374Y906735D01*
X1493615Y906653D01*
X1493581Y906642D01*
X1493547Y906638D01*
X1492826Y906403D01*
X1492103Y906174D01*
X1492072Y906158D01*
X1492040Y906147D01*
X1491379Y905774D01*
X1490716Y905408D01*
X1490689Y905385D01*
X1490659Y905368D01*
X1490080Y904868D01*
X1489507Y904382D01*
X1489485Y904355D01*
X1489459Y904332D01*
X1488989Y903727D01*
X1488523Y903138D01*
X1488508Y903108D01*
X1488486Y903080D01*
X1488146Y902396D01*
X1487805Y901725D01*
X1487796Y901692D01*
X1487780Y901661D01*
X1487582Y900925D01*
X1487391Y900242D01*
X1481780Y886694D01*
X1471652Y876567D01*
X1458421Y871086D01*
X1384099Y871086D01*
X1370867Y876567D01*
X1360740Y886694D01*
X1360138Y888148D01*
X1360097Y888224D01*
X1360070Y888307D01*
X1359723Y888921D01*
X1359389Y889545D01*
X1359334Y889612D01*
X1359291Y889688D01*
X1358830Y890222D01*
X1358379Y890767D01*
X1358312Y890822D01*
X1358255Y890888D01*
X1357698Y891320D01*
X1357148Y891766D01*
X1357071Y891807D01*
X1357003Y891860D01*
X1356371Y892174D01*
X1355745Y892503D01*
X1355662Y892527D01*
X1355584Y892566D01*
X1354901Y892750D01*
X1354223Y892949D01*
X1354136Y892956D01*
X1354053Y892979D01*
X1352747Y893086D01*
X1136961Y893086D01*
X1136891Y893079D01*
X1136822Y893085D01*
X1136104Y893001D01*
X1135383Y892929D01*
X1135317Y892908D01*
X1135248Y892900D01*
X1134561Y892677D01*
X1133867Y892464D01*
X1133806Y892430D01*
X1133740Y892409D01*
X1133112Y892055D01*
X1132473Y891709D01*
X1132420Y891664D01*
X1132360Y891630D01*
X1131812Y891157D01*
X1131256Y890694D01*
X1131212Y890640D01*
X1131159Y890594D01*
X1130714Y890021D01*
X1130262Y889459D01*
X1130230Y889397D01*
X1130187Y889342D01*
X1129864Y888692D01*
X1129531Y888052D01*
X1129512Y887985D01*
X1129481Y887923D01*
X1129292Y887222D01*
X1129092Y886528D01*
X1129087Y886459D01*
X1129069Y886392D01*
X1128961Y885087D01*
X1128961Y870395D01*
X1128972Y870292D01*
X1128964Y870188D01*
X1129050Y869505D01*
X1129118Y868818D01*
X1129149Y868718D01*
X1129162Y868615D01*
X1129381Y867963D01*
X1129583Y867302D01*
X1129633Y867210D01*
X1129666Y867112D01*
X1130009Y866516D01*
X1130338Y865908D01*
X1130405Y865828D01*
X1130457Y865738D01*
X1131304Y864739D01*
X1146961Y849082D01*
X1146961Y822572D01*
X1128216Y803826D01*
X1106073Y803826D01*
X1105970Y803816D01*
X1105866Y803823D01*
X1105183Y803737D01*
X1104496Y803669D01*
X1104396Y803638D01*
X1104293Y803625D01*
X1103641Y803407D01*
X1102980Y803204D01*
X1102888Y803154D01*
X1102790Y803121D01*
X1102194Y802778D01*
X1101586Y802449D01*
X1101506Y802382D01*
X1101416Y802330D01*
X1100417Y801483D01*
X1092437Y793503D01*
X1011884Y793503D01*
X1011798Y793495D01*
X1011712Y793501D01*
X1011010Y793416D01*
X1010307Y793346D01*
X1010224Y793321D01*
X1010138Y793310D01*
X1009468Y793089D01*
X1008791Y792881D01*
X1008715Y792840D01*
X1008633Y792813D01*
X1008018Y792462D01*
X1007397Y792126D01*
X1007331Y792071D01*
X1007255Y792028D01*
X1006723Y791564D01*
X1006180Y791111D01*
X1006125Y791043D01*
X1006060Y790987D01*
X1005628Y790426D01*
X1005186Y789876D01*
X1005146Y789799D01*
X1005093Y789730D01*
X1004494Y788565D01*
X1002250Y783146D01*
X990153Y771050D01*
X974349Y764503D01*
X957242Y764503D01*
G37*
%LPD*%
%LPC*%
G36*
X978662Y1921448D02*
X978662Y1921448D01*
X964695Y1927233D01*
X954005Y1937923D01*
X948220Y1951890D01*
X948220Y1967008D01*
X954005Y1980974D01*
X964695Y1991664D01*
X978662Y1997449D01*
X993779Y1997449D01*
X1007746Y1991664D01*
X1018436Y1980974D01*
X1019507Y1978388D01*
X1019548Y1978311D01*
X1019575Y1978229D01*
X1019922Y1977614D01*
X1020256Y1976990D01*
X1020311Y1976923D01*
X1020354Y1976848D01*
X1020817Y1976311D01*
X1021266Y1975768D01*
X1021333Y1975714D01*
X1021390Y1975648D01*
X1021948Y1975214D01*
X1022497Y1974769D01*
X1022574Y1974728D01*
X1022642Y1974675D01*
X1023275Y1974360D01*
X1023900Y1974032D01*
X1023983Y1974008D01*
X1024061Y1973969D01*
X1024744Y1973785D01*
X1025422Y1973587D01*
X1025508Y1973579D01*
X1025592Y1973557D01*
X1026898Y1973449D01*
X1056635Y1973449D01*
X1056739Y1973460D01*
X1056843Y1973452D01*
X1057526Y1973538D01*
X1058213Y1973607D01*
X1058312Y1973637D01*
X1058415Y1973650D01*
X1059068Y1973869D01*
X1059728Y1974072D01*
X1059820Y1974121D01*
X1059918Y1974154D01*
X1060515Y1974498D01*
X1061122Y1974827D01*
X1061202Y1974893D01*
X1061292Y1974945D01*
X1062292Y1975792D01*
X1109641Y2023141D01*
X1109641Y2023142D01*
X1118292Y2031792D01*
X1118314Y2031819D01*
X1118340Y2031842D01*
X1118814Y2032431D01*
X1119296Y2033019D01*
X1119313Y2033050D01*
X1119334Y2033077D01*
X1119680Y2033743D01*
X1120039Y2034420D01*
X1120049Y2034453D01*
X1120065Y2034484D01*
X1120273Y2035206D01*
X1120491Y2035939D01*
X1120494Y2035973D01*
X1120504Y2036007D01*
X1120566Y2036760D01*
X1120634Y2037518D01*
X1120631Y2037553D01*
X1120633Y2037587D01*
X1120546Y2038335D01*
X1120464Y2039094D01*
X1120453Y2039127D01*
X1120449Y2039162D01*
X1120214Y2039882D01*
X1119985Y2040605D01*
X1119969Y2040636D01*
X1119958Y2040669D01*
X1119584Y2041332D01*
X1119219Y2041993D01*
X1119196Y2042019D01*
X1119179Y2042050D01*
X1118683Y2042625D01*
X1118193Y2043202D01*
X1118166Y2043224D01*
X1118143Y2043250D01*
X1117545Y2043714D01*
X1116950Y2044185D01*
X1116918Y2044201D01*
X1116891Y2044222D01*
X1116212Y2044560D01*
X1115536Y2044904D01*
X1115503Y2044913D01*
X1115472Y2044928D01*
X1114738Y2045126D01*
X1114009Y2045329D01*
X1113975Y2045332D01*
X1113941Y2045341D01*
X1112635Y2045448D01*
X1026898Y2045448D01*
X1026811Y2045439D01*
X1026725Y2045446D01*
X1026023Y2045361D01*
X1025320Y2045291D01*
X1025237Y2045266D01*
X1025151Y2045255D01*
X1024482Y2045034D01*
X1023805Y2044826D01*
X1023728Y2044784D01*
X1023646Y2044757D01*
X1023033Y2044408D01*
X1022410Y2044071D01*
X1022344Y2044015D01*
X1022268Y2043972D01*
X1021735Y2043508D01*
X1021193Y2043056D01*
X1021138Y2042989D01*
X1021073Y2042931D01*
X1020640Y2042369D01*
X1020199Y2041821D01*
X1020159Y2041744D01*
X1020106Y2041675D01*
X1019507Y2040510D01*
X1018436Y2037923D01*
X1007746Y2027233D01*
X993779Y2021448D01*
X978662Y2021448D01*
X964695Y2027233D01*
X954005Y2037923D01*
X948220Y2051890D01*
X948220Y2067008D01*
X954005Y2080974D01*
X964695Y2091664D01*
X978662Y2097449D01*
X993779Y2097449D01*
X1007746Y2091664D01*
X1018436Y2080974D01*
X1019507Y2078388D01*
X1019548Y2078311D01*
X1019575Y2078229D01*
X1019922Y2077614D01*
X1020256Y2076990D01*
X1020311Y2076923D01*
X1020354Y2076848D01*
X1020817Y2076311D01*
X1021266Y2075768D01*
X1021333Y2075714D01*
X1021390Y2075648D01*
X1021948Y2075214D01*
X1022497Y2074769D01*
X1022574Y2074728D01*
X1022642Y2074675D01*
X1023275Y2074360D01*
X1023900Y2074032D01*
X1023983Y2074008D01*
X1024061Y2073969D01*
X1024744Y2073785D01*
X1025422Y2073587D01*
X1025508Y2073579D01*
X1025592Y2073557D01*
X1026898Y2073449D01*
X1509901Y2073449D01*
X1509988Y2073458D01*
X1510074Y2073451D01*
X1510777Y2073537D01*
X1511479Y2073607D01*
X1511562Y2073632D01*
X1511648Y2073642D01*
X1512318Y2073864D01*
X1512995Y2074072D01*
X1513071Y2074113D01*
X1513153Y2074140D01*
X1513766Y2074489D01*
X1514389Y2074827D01*
X1514455Y2074882D01*
X1514531Y2074925D01*
X1515063Y2075389D01*
X1515606Y2075841D01*
X1515661Y2075909D01*
X1515726Y2075966D01*
X1516158Y2076527D01*
X1516600Y2077077D01*
X1516640Y2077153D01*
X1516693Y2077222D01*
X1517292Y2078388D01*
X1518220Y2080629D01*
X1528347Y2090756D01*
X1541579Y2096237D01*
X1615901Y2096237D01*
X1629133Y2090756D01*
X1639260Y2080629D01*
X1644741Y2067397D01*
X1644741Y2053075D01*
X1639260Y2039844D01*
X1629133Y2029716D01*
X1615901Y2024235D01*
X1553853Y2024235D01*
X1553818Y2024232D01*
X1553783Y2024235D01*
X1553025Y2024153D01*
X1552275Y2024078D01*
X1552242Y2024068D01*
X1552207Y2024064D01*
X1551486Y2023836D01*
X1550759Y2023613D01*
X1550729Y2023597D01*
X1550696Y2023586D01*
X1550034Y2023220D01*
X1549365Y2022858D01*
X1549339Y2022836D01*
X1549308Y2022819D01*
X1548731Y2022330D01*
X1548148Y2021844D01*
X1548126Y2021816D01*
X1548099Y2021794D01*
X1547628Y2021198D01*
X1547154Y2020608D01*
X1547138Y2020578D01*
X1547116Y2020550D01*
X1546771Y2019870D01*
X1546423Y2019201D01*
X1546414Y2019168D01*
X1546398Y2019137D01*
X1546195Y2018408D01*
X1545984Y2017678D01*
X1545982Y2017643D01*
X1545972Y2017610D01*
X1545917Y2016852D01*
X1545855Y2016098D01*
X1545859Y2016064D01*
X1545856Y2016029D01*
X1545951Y2015278D01*
X1546039Y2014523D01*
X1546050Y2014490D01*
X1546054Y2014456D01*
X1546295Y2013738D01*
X1546530Y2013016D01*
X1546547Y2012986D01*
X1546558Y2012953D01*
X1546939Y2012292D01*
X1547309Y2011635D01*
X1547331Y2011609D01*
X1547349Y2011579D01*
X1548196Y2010580D01*
X1560197Y1998580D01*
X1560277Y1998514D01*
X1560345Y1998435D01*
X1560890Y1998012D01*
X1561423Y1997575D01*
X1561515Y1997526D01*
X1561597Y1997463D01*
X1562214Y1997156D01*
X1562824Y1996833D01*
X1562923Y1996803D01*
X1563016Y1996757D01*
X1563682Y1996577D01*
X1564343Y1996381D01*
X1564447Y1996371D01*
X1564547Y1996344D01*
X1565853Y1996237D01*
X1615901Y1996237D01*
X1629133Y1990756D01*
X1639260Y1980629D01*
X1644741Y1967397D01*
X1644741Y1953075D01*
X1639260Y1939844D01*
X1629133Y1929716D01*
X1615901Y1924235D01*
X1541579Y1924235D01*
X1528347Y1929716D01*
X1518220Y1939844D01*
X1512739Y1953075D01*
X1512739Y1967397D01*
X1518220Y1980629D01*
X1522727Y1985136D01*
X1522771Y1985190D01*
X1522824Y1985235D01*
X1523271Y1985800D01*
X1523732Y1986363D01*
X1523765Y1986424D01*
X1523807Y1986478D01*
X1524135Y1987123D01*
X1524475Y1987763D01*
X1524494Y1987830D01*
X1524526Y1987892D01*
X1524721Y1988591D01*
X1524927Y1989283D01*
X1524933Y1989352D01*
X1524952Y1989419D01*
X1525004Y1990140D01*
X1525070Y1990861D01*
X1525063Y1990931D01*
X1525068Y1991000D01*
X1524978Y1991713D01*
X1524899Y1992438D01*
X1524878Y1992504D01*
X1524870Y1992573D01*
X1524641Y1993255D01*
X1524421Y1993949D01*
X1524388Y1994010D01*
X1524366Y1994076D01*
X1524007Y1994700D01*
X1523654Y1995337D01*
X1523609Y1995390D01*
X1523575Y1995450D01*
X1522727Y1996449D01*
X1515835Y2003341D01*
X1515754Y2003407D01*
X1515686Y2003486D01*
X1515141Y2003909D01*
X1514608Y2004346D01*
X1514516Y2004394D01*
X1514434Y2004458D01*
X1513817Y2004765D01*
X1513208Y2005089D01*
X1513108Y2005118D01*
X1513015Y2005165D01*
X1512350Y2005344D01*
X1511688Y2005541D01*
X1511584Y2005550D01*
X1511484Y2005577D01*
X1510179Y2005684D01*
X1135097Y2005684D01*
X1134993Y2005674D01*
X1134890Y2005682D01*
X1134206Y2005596D01*
X1133519Y2005527D01*
X1133420Y2005497D01*
X1133317Y2005484D01*
X1132665Y2005265D01*
X1132004Y2005062D01*
X1131912Y2005012D01*
X1131814Y2004979D01*
X1131217Y2004636D01*
X1130610Y2004307D01*
X1130530Y2004241D01*
X1130440Y2004189D01*
X1129441Y2003341D01*
X1071547Y1945448D01*
X1026898Y1945448D01*
X1026811Y1945439D01*
X1026725Y1945446D01*
X1026023Y1945361D01*
X1025320Y1945291D01*
X1025237Y1945266D01*
X1025151Y1945255D01*
X1024482Y1945034D01*
X1023805Y1944826D01*
X1023728Y1944784D01*
X1023646Y1944757D01*
X1023033Y1944408D01*
X1022410Y1944071D01*
X1022344Y1944015D01*
X1022268Y1943972D01*
X1021735Y1943508D01*
X1021193Y1943056D01*
X1021138Y1942989D01*
X1021073Y1942931D01*
X1020640Y1942369D01*
X1020199Y1941821D01*
X1020159Y1941744D01*
X1020106Y1941675D01*
X1019507Y1940510D01*
X1018436Y1937923D01*
X1007746Y1927233D01*
X993779Y1921448D01*
X978662Y1921448D01*
G37*
%LPD*%
%LPC*%
G36*
X1093316Y148369D02*
X1093316Y148369D01*
X1059870Y162223D01*
X1034271Y187822D01*
X1022146Y217093D01*
X1022105Y217169D01*
X1022078Y217252D01*
X1021732Y217866D01*
X1021398Y218490D01*
X1021342Y218557D01*
X1021300Y218632D01*
X1020838Y219167D01*
X1020388Y219712D01*
X1020321Y219767D01*
X1020264Y219833D01*
X1019705Y220266D01*
X1019157Y220711D01*
X1019080Y220751D01*
X1019012Y220805D01*
X1018379Y221120D01*
X1017753Y221448D01*
X1017670Y221472D01*
X1017592Y221511D01*
X1016910Y221695D01*
X1016232Y221893D01*
X1016145Y221901D01*
X1016062Y221923D01*
X1014756Y222031D01*
X927386Y222031D01*
X927316Y222024D01*
X927248Y222030D01*
X926529Y221945D01*
X925808Y221874D01*
X925742Y221853D01*
X925673Y221845D01*
X924986Y221621D01*
X924293Y221409D01*
X924231Y221375D01*
X924166Y221354D01*
X923538Y221000D01*
X922898Y220654D01*
X922845Y220609D01*
X922785Y220575D01*
X922237Y220102D01*
X921681Y219639D01*
X921637Y219585D01*
X921585Y219539D01*
X921137Y218963D01*
X920687Y218404D01*
X920655Y218342D01*
X920612Y218287D01*
X920289Y217637D01*
X919956Y216997D01*
X919937Y216930D01*
X919906Y216868D01*
X919717Y216167D01*
X919517Y215473D01*
X919512Y215404D01*
X919494Y215337D01*
X919386Y214031D01*
X919386Y210113D01*
X915871Y206598D01*
X871530Y206598D01*
X868015Y210113D01*
X868015Y240508D01*
X868003Y240629D01*
X868011Y240750D01*
X867925Y241416D01*
X867858Y242086D01*
X867822Y242202D01*
X867807Y242322D01*
X867700Y242654D01*
X867700Y253466D01*
X867865Y254011D01*
X867876Y254132D01*
X867908Y254249D01*
X868015Y255555D01*
X868015Y285950D01*
X871530Y289465D01*
X915871Y289465D01*
X919386Y285950D01*
X919386Y282031D01*
X919393Y281962D01*
X919388Y281893D01*
X919472Y281175D01*
X919544Y280454D01*
X919564Y280388D01*
X919572Y280319D01*
X919796Y279632D01*
X920009Y278938D01*
X920042Y278877D01*
X920063Y278811D01*
X920417Y278183D01*
X920764Y277544D01*
X920808Y277491D01*
X920842Y277430D01*
X921315Y276882D01*
X921778Y276326D01*
X921832Y276283D01*
X921878Y276230D01*
X922452Y275784D01*
X923014Y275333D01*
X923075Y275301D01*
X923130Y275258D01*
X923780Y274935D01*
X924421Y274602D01*
X924487Y274583D01*
X924549Y274552D01*
X925250Y274363D01*
X925944Y274163D01*
X926013Y274157D01*
X926080Y274139D01*
X927386Y274032D01*
X1021931Y274032D01*
X1022017Y274041D01*
X1022104Y274034D01*
X1022806Y274119D01*
X1023509Y274189D01*
X1023592Y274215D01*
X1023678Y274225D01*
X1024348Y274447D01*
X1025024Y274654D01*
X1025101Y274696D01*
X1025183Y274723D01*
X1025798Y275073D01*
X1026419Y275409D01*
X1026485Y275465D01*
X1026561Y275508D01*
X1027095Y275973D01*
X1027636Y276424D01*
X1027690Y276491D01*
X1027756Y276549D01*
X1028189Y277111D01*
X1028630Y277659D01*
X1028670Y277736D01*
X1028723Y277805D01*
X1029322Y278970D01*
X1034271Y290918D01*
X1059870Y316517D01*
X1093316Y330371D01*
X1129518Y330371D01*
X1162965Y316517D01*
X1188564Y290918D01*
X1202418Y257471D01*
X1202418Y221269D01*
X1188564Y187822D01*
X1162965Y162223D01*
X1129518Y148369D01*
X1093316Y148369D01*
G37*
%LPD*%
%LPC*%
G36*
X761294Y206598D02*
X761294Y206598D01*
X757779Y210113D01*
X757779Y213638D01*
X757772Y213707D01*
X757778Y213776D01*
X757694Y214494D01*
X757622Y215215D01*
X757601Y215282D01*
X757593Y215351D01*
X757369Y216037D01*
X757157Y216731D01*
X757123Y216792D01*
X757102Y216858D01*
X756748Y217486D01*
X756402Y218125D01*
X756357Y218178D01*
X756323Y218239D01*
X755851Y218786D01*
X755387Y219343D01*
X755333Y219386D01*
X755287Y219439D01*
X754714Y219884D01*
X754152Y220336D01*
X754090Y220368D01*
X754035Y220411D01*
X753385Y220734D01*
X752745Y221067D01*
X752678Y221086D01*
X752616Y221117D01*
X751915Y221306D01*
X751221Y221506D01*
X751152Y221512D01*
X751085Y221530D01*
X749780Y221637D01*
X596095Y221637D01*
X595991Y221627D01*
X595887Y221634D01*
X595204Y221548D01*
X594517Y221480D01*
X594418Y221449D01*
X594314Y221436D01*
X593662Y221218D01*
X593002Y221015D01*
X592910Y220965D01*
X592812Y220932D01*
X592215Y220589D01*
X591608Y220260D01*
X591528Y220193D01*
X591438Y220141D01*
X590438Y219294D01*
X586990Y215846D01*
X573207Y210137D01*
X558289Y210137D01*
X544489Y215853D01*
X544452Y215896D01*
X543907Y216319D01*
X543374Y216755D01*
X543282Y216804D01*
X543200Y216868D01*
X542583Y217175D01*
X541974Y217498D01*
X541874Y217528D01*
X541781Y217574D01*
X541116Y217753D01*
X540454Y217950D01*
X540350Y217960D01*
X540250Y217986D01*
X538945Y218094D01*
X345233Y218094D01*
X345130Y218083D01*
X345026Y218091D01*
X344343Y218005D01*
X343656Y217937D01*
X343556Y217906D01*
X343453Y217893D01*
X342801Y217674D01*
X342140Y217472D01*
X342048Y217422D01*
X341950Y217389D01*
X341354Y217046D01*
X340746Y216717D01*
X340666Y216650D01*
X340576Y216598D01*
X339577Y215751D01*
X337400Y213574D01*
X324169Y208094D01*
X249847Y208094D01*
X236615Y213574D01*
X226488Y223702D01*
X221007Y236933D01*
X221007Y251255D01*
X226488Y264487D01*
X236615Y274614D01*
X249847Y280095D01*
X324169Y280095D01*
X337400Y274614D01*
X339577Y272438D01*
X339657Y272372D01*
X339725Y272293D01*
X340271Y271870D01*
X340804Y271434D01*
X340895Y271385D01*
X340978Y271321D01*
X341595Y271014D01*
X342204Y270691D01*
X342304Y270661D01*
X342397Y270615D01*
X343062Y270436D01*
X343724Y270239D01*
X343828Y270229D01*
X343928Y270202D01*
X345233Y270095D01*
X531858Y270095D01*
X531961Y270105D01*
X532065Y270098D01*
X532749Y270184D01*
X533435Y270252D01*
X533535Y270283D01*
X533638Y270296D01*
X534290Y270515D01*
X534951Y270717D01*
X535043Y270767D01*
X535141Y270800D01*
X535738Y271143D01*
X536345Y271472D01*
X536425Y271539D01*
X536515Y271591D01*
X537514Y272438D01*
X544506Y279429D01*
X558289Y285138D01*
X573207Y285138D01*
X586990Y279429D01*
X590438Y275981D01*
X590519Y275915D01*
X590587Y275837D01*
X591132Y275413D01*
X591665Y274977D01*
X591757Y274928D01*
X591839Y274864D01*
X592456Y274557D01*
X593065Y274234D01*
X593165Y274204D01*
X593258Y274158D01*
X593923Y273979D01*
X594585Y273782D01*
X594689Y273773D01*
X594789Y273746D01*
X596095Y273638D01*
X749780Y273638D01*
X749849Y273645D01*
X749918Y273640D01*
X750636Y273724D01*
X751357Y273796D01*
X751423Y273816D01*
X751492Y273824D01*
X752179Y274048D01*
X752873Y274261D01*
X752934Y274294D01*
X753000Y274315D01*
X753628Y274669D01*
X754267Y275016D01*
X754320Y275060D01*
X754380Y275094D01*
X754929Y275567D01*
X755484Y276030D01*
X755528Y276084D01*
X755581Y276130D01*
X756026Y276703D01*
X756478Y277266D01*
X756510Y277327D01*
X756553Y277382D01*
X756876Y278032D01*
X757209Y278672D01*
X757228Y278739D01*
X757259Y278801D01*
X757448Y279502D01*
X757648Y280196D01*
X757653Y280265D01*
X757672Y280332D01*
X757779Y281638D01*
X757779Y285950D01*
X761294Y289465D01*
X805635Y289465D01*
X809150Y285950D01*
X809150Y255555D01*
X809162Y255434D01*
X809154Y255313D01*
X809241Y254647D01*
X809307Y253977D01*
X809343Y253861D01*
X809359Y253741D01*
X809465Y253409D01*
X809465Y242596D01*
X809301Y242052D01*
X809289Y241931D01*
X809258Y241814D01*
X809150Y240508D01*
X809150Y210113D01*
X805635Y206598D01*
X761294Y206598D01*
G37*
%LPD*%
%LPC*%
G36*
X234732Y599763D02*
X234732Y599763D01*
X209037Y606648D01*
X186001Y619948D01*
X167192Y638757D01*
X153892Y661793D01*
X147007Y687487D01*
X147007Y714087D01*
X153892Y739781D01*
X167192Y762818D01*
X186001Y781627D01*
X209037Y794927D01*
X234732Y801812D01*
X261331Y801812D01*
X287026Y794927D01*
X310062Y781627D01*
X328871Y762818D01*
X342171Y739781D01*
X349056Y714087D01*
X349056Y687487D01*
X342171Y661793D01*
X328871Y638757D01*
X310062Y619948D01*
X287026Y606648D01*
X261331Y599763D01*
X234732Y599763D01*
G37*
%LPD*%
%LPC*%
G36*
X1565440Y1694251D02*
X1565440Y1694251D01*
X1539746Y1701136D01*
X1516710Y1714436D01*
X1497900Y1733245D01*
X1484601Y1756281D01*
X1477716Y1781976D01*
X1477716Y1808575D01*
X1484601Y1834270D01*
X1497900Y1857306D01*
X1516710Y1876115D01*
X1539746Y1889415D01*
X1565440Y1896300D01*
X1592040Y1896300D01*
X1617734Y1889415D01*
X1640770Y1876115D01*
X1659580Y1857306D01*
X1672880Y1834270D01*
X1679764Y1808575D01*
X1679764Y1781976D01*
X1672880Y1756281D01*
X1659580Y1733245D01*
X1640770Y1714436D01*
X1617734Y1701136D01*
X1592040Y1694251D01*
X1565440Y1694251D01*
G37*
%LPD*%
%LPC*%
G36*
X1557566Y426535D02*
X1557566Y426535D01*
X1531872Y433419D01*
X1508836Y446719D01*
X1490026Y465529D01*
X1476727Y488565D01*
X1469842Y514259D01*
X1469842Y540859D01*
X1476727Y566553D01*
X1490026Y589589D01*
X1508836Y608399D01*
X1531872Y621699D01*
X1557566Y628583D01*
X1584166Y628583D01*
X1609860Y621699D01*
X1632896Y608399D01*
X1651706Y589589D01*
X1665006Y566553D01*
X1671890Y540859D01*
X1671890Y514259D01*
X1665006Y488565D01*
X1651706Y465529D01*
X1632896Y446719D01*
X1609860Y433419D01*
X1584166Y426535D01*
X1557566Y426535D01*
G37*
%LPD*%
%LPC*%
G36*
X215047Y1528897D02*
X215047Y1528897D01*
X189352Y1535782D01*
X166316Y1549081D01*
X147507Y1567891D01*
X134207Y1590927D01*
X127322Y1616621D01*
X127322Y1643221D01*
X134207Y1668915D01*
X147507Y1691951D01*
X166316Y1710761D01*
X189352Y1724061D01*
X215047Y1730945D01*
X241646Y1730945D01*
X267341Y1724061D01*
X290377Y1710761D01*
X309186Y1691951D01*
X322486Y1668915D01*
X329371Y1643221D01*
X329371Y1616621D01*
X322486Y1590927D01*
X309186Y1567891D01*
X290377Y1549081D01*
X267341Y1535782D01*
X241646Y1528897D01*
X215047Y1528897D01*
G37*
%LPD*%
%LPC*%
G36*
X283989Y1734928D02*
X283989Y1734928D01*
X265243Y1753674D01*
X265243Y1780184D01*
X268705Y1783646D01*
X268750Y1783700D01*
X268802Y1783745D01*
X269249Y1784310D01*
X269710Y1784873D01*
X269743Y1784934D01*
X269785Y1784989D01*
X270113Y1785633D01*
X270453Y1786273D01*
X270472Y1786340D01*
X270504Y1786402D01*
X270699Y1787101D01*
X270905Y1787793D01*
X270911Y1787862D01*
X270930Y1787929D01*
X270983Y1788650D01*
X271048Y1789372D01*
X271041Y1789441D01*
X271046Y1789510D01*
X270956Y1790225D01*
X270877Y1790948D01*
X270856Y1791014D01*
X270848Y1791083D01*
X270619Y1791766D01*
X270399Y1792459D01*
X270366Y1792520D01*
X270344Y1792586D01*
X269985Y1793210D01*
X269633Y1793847D01*
X269587Y1793900D01*
X269553Y1793960D01*
X268706Y1794959D01*
X239016Y1824648D01*
X238935Y1824714D01*
X238867Y1824793D01*
X238322Y1825216D01*
X237789Y1825653D01*
X237698Y1825702D01*
X237615Y1825765D01*
X236998Y1826072D01*
X236389Y1826396D01*
X236289Y1826425D01*
X236196Y1826472D01*
X235531Y1826651D01*
X234869Y1826848D01*
X234765Y1826857D01*
X234665Y1826884D01*
X233360Y1826991D01*
X183311Y1826991D01*
X170080Y1832472D01*
X159952Y1842599D01*
X154472Y1855831D01*
X154472Y1870153D01*
X159952Y1883385D01*
X170080Y1893512D01*
X183311Y1898993D01*
X257633Y1898993D01*
X270865Y1893512D01*
X280992Y1883385D01*
X281594Y1881931D01*
X281635Y1881854D01*
X281662Y1881772D01*
X282009Y1881157D01*
X282343Y1880534D01*
X282399Y1880467D01*
X282441Y1880391D01*
X282902Y1879857D01*
X283353Y1879311D01*
X283420Y1879257D01*
X283477Y1879191D01*
X284034Y1878758D01*
X284584Y1878312D01*
X284661Y1878272D01*
X284729Y1878219D01*
X285361Y1877904D01*
X285987Y1877576D01*
X286071Y1877551D01*
X286148Y1877512D01*
X286831Y1877328D01*
X287509Y1877130D01*
X287596Y1877123D01*
X287679Y1877100D01*
X288985Y1876993D01*
X647011Y1876993D01*
X647097Y1877001D01*
X647184Y1876995D01*
X647886Y1877080D01*
X648588Y1877150D01*
X648672Y1877175D01*
X648758Y1877186D01*
X649427Y1877407D01*
X650104Y1877615D01*
X650181Y1877656D01*
X650263Y1877684D01*
X650875Y1878033D01*
X651498Y1878370D01*
X651565Y1878426D01*
X651640Y1878469D01*
X652172Y1878931D01*
X652716Y1879385D01*
X652770Y1879453D01*
X652836Y1879510D01*
X653268Y1880071D01*
X653710Y1880620D01*
X653749Y1880697D01*
X653803Y1880766D01*
X653809Y1880779D01*
X664695Y1891664D01*
X678662Y1897449D01*
X693779Y1897449D01*
X707746Y1891664D01*
X718436Y1880974D01*
X724221Y1867008D01*
X724221Y1851890D01*
X718436Y1837923D01*
X707746Y1827233D01*
X693779Y1821448D01*
X678662Y1821448D01*
X664695Y1827233D01*
X654005Y1837923D01*
X651466Y1844053D01*
X651425Y1844130D01*
X651398Y1844212D01*
X651051Y1844827D01*
X650717Y1845451D01*
X650662Y1845518D01*
X650619Y1845593D01*
X650158Y1846128D01*
X649707Y1846673D01*
X649640Y1846727D01*
X649583Y1846793D01*
X649025Y1847227D01*
X648476Y1847672D01*
X648400Y1847712D01*
X648331Y1847765D01*
X647698Y1848080D01*
X647073Y1848409D01*
X646989Y1848433D01*
X646912Y1848472D01*
X646229Y1848656D01*
X645551Y1848854D01*
X645465Y1848862D01*
X645381Y1848884D01*
X644075Y1848991D01*
X288985Y1848991D01*
X288899Y1848983D01*
X288812Y1848990D01*
X288109Y1848904D01*
X287407Y1848834D01*
X287324Y1848809D01*
X287238Y1848798D01*
X286569Y1848577D01*
X285892Y1848369D01*
X285815Y1848328D01*
X285733Y1848301D01*
X285120Y1847952D01*
X284498Y1847614D01*
X284431Y1847559D01*
X284356Y1847516D01*
X283822Y1847051D01*
X283280Y1846599D01*
X283226Y1846532D01*
X283160Y1846475D01*
X282727Y1845912D01*
X282286Y1845364D01*
X282246Y1845288D01*
X282193Y1845218D01*
X281594Y1844053D01*
X280992Y1842599D01*
X276485Y1838092D01*
X276441Y1838038D01*
X276388Y1837993D01*
X275941Y1837428D01*
X275481Y1836866D01*
X275448Y1836804D01*
X275405Y1836750D01*
X275078Y1836106D01*
X274738Y1835465D01*
X274718Y1835399D01*
X274687Y1835337D01*
X274492Y1834637D01*
X274286Y1833946D01*
X274280Y1833877D01*
X274261Y1833810D01*
X274208Y1833089D01*
X274142Y1832367D01*
X274150Y1832297D01*
X274145Y1832228D01*
X274235Y1831513D01*
X274313Y1830791D01*
X274334Y1830724D01*
X274343Y1830656D01*
X274573Y1829969D01*
X274791Y1829279D01*
X274825Y1829218D01*
X274847Y1829153D01*
X275206Y1828529D01*
X275558Y1827892D01*
X275603Y1827838D01*
X275638Y1827779D01*
X276485Y1826779D01*
X301992Y1801273D01*
X302072Y1801207D01*
X302140Y1801128D01*
X302685Y1800705D01*
X303218Y1800268D01*
X303310Y1800220D01*
X303392Y1800156D01*
X304010Y1799849D01*
X304619Y1799525D01*
X304719Y1799496D01*
X304812Y1799449D01*
X305477Y1799270D01*
X306138Y1799073D01*
X306242Y1799064D01*
X306343Y1799037D01*
X307648Y1798930D01*
X310499Y1798930D01*
X329245Y1780184D01*
X329245Y1753674D01*
X310499Y1734928D01*
X283989Y1734928D01*
G37*
%LPD*%
%LPC*%
G36*
X1533705Y1371480D02*
X1533705Y1371480D01*
X1520473Y1376960D01*
X1510219Y1387214D01*
X1510145Y1387347D01*
X1509811Y1387970D01*
X1509755Y1388037D01*
X1509713Y1388113D01*
X1509252Y1388647D01*
X1508801Y1389192D01*
X1508734Y1389247D01*
X1508677Y1389313D01*
X1508119Y1389746D01*
X1507570Y1390192D01*
X1507493Y1390232D01*
X1507425Y1390285D01*
X1506793Y1390600D01*
X1506166Y1390928D01*
X1506083Y1390953D01*
X1506005Y1390991D01*
X1505323Y1391175D01*
X1504645Y1391374D01*
X1504558Y1391381D01*
X1504475Y1391404D01*
X1503169Y1391511D01*
X1462705Y1391511D01*
X1411110Y1443105D01*
X1411030Y1443171D01*
X1410962Y1443250D01*
X1410417Y1443673D01*
X1409884Y1444109D01*
X1409792Y1444158D01*
X1409710Y1444222D01*
X1409093Y1444529D01*
X1408483Y1444852D01*
X1408384Y1444882D01*
X1408290Y1444928D01*
X1407626Y1445108D01*
X1406964Y1445304D01*
X1406860Y1445314D01*
X1406760Y1445341D01*
X1405454Y1445448D01*
X1026898Y1445448D01*
X1026811Y1445439D01*
X1026725Y1445446D01*
X1026023Y1445361D01*
X1025320Y1445291D01*
X1025237Y1445266D01*
X1025151Y1445255D01*
X1024482Y1445034D01*
X1023805Y1444826D01*
X1023728Y1444784D01*
X1023646Y1444757D01*
X1023033Y1444408D01*
X1022410Y1444071D01*
X1022344Y1444015D01*
X1022268Y1443972D01*
X1021735Y1443508D01*
X1021193Y1443056D01*
X1021138Y1442989D01*
X1021073Y1442931D01*
X1020640Y1442369D01*
X1020199Y1441821D01*
X1020159Y1441744D01*
X1020106Y1441675D01*
X1019507Y1440510D01*
X1018436Y1437923D01*
X1007746Y1427233D01*
X993779Y1421448D01*
X978662Y1421448D01*
X964695Y1427233D01*
X954005Y1437923D01*
X948220Y1451890D01*
X948220Y1467008D01*
X954005Y1480974D01*
X964695Y1491664D01*
X978662Y1497449D01*
X993779Y1497449D01*
X1007746Y1491664D01*
X1018436Y1480974D01*
X1019507Y1478388D01*
X1019548Y1478311D01*
X1019575Y1478229D01*
X1019922Y1477614D01*
X1020256Y1476990D01*
X1020311Y1476923D01*
X1020354Y1476848D01*
X1020816Y1476312D01*
X1021266Y1475768D01*
X1021333Y1475714D01*
X1021390Y1475648D01*
X1021948Y1475214D01*
X1022497Y1474769D01*
X1022574Y1474728D01*
X1022642Y1474675D01*
X1023275Y1474360D01*
X1023900Y1474032D01*
X1023983Y1474008D01*
X1024061Y1473969D01*
X1024744Y1473785D01*
X1025422Y1473587D01*
X1025508Y1473579D01*
X1025592Y1473557D01*
X1026898Y1473449D01*
X1420366Y1473449D01*
X1471960Y1421855D01*
X1472041Y1421789D01*
X1472109Y1421711D01*
X1472654Y1421287D01*
X1473187Y1420851D01*
X1473279Y1420802D01*
X1473361Y1420738D01*
X1473978Y1420431D01*
X1474587Y1420108D01*
X1474687Y1420078D01*
X1474780Y1420032D01*
X1475445Y1419853D01*
X1476107Y1419656D01*
X1476211Y1419647D01*
X1476311Y1419620D01*
X1477617Y1419512D01*
X1501538Y1419512D01*
X1501624Y1419521D01*
X1501711Y1419514D01*
X1502413Y1419600D01*
X1503116Y1419670D01*
X1503199Y1419695D01*
X1503285Y1419705D01*
X1503955Y1419927D01*
X1504631Y1420135D01*
X1504708Y1420176D01*
X1504790Y1420203D01*
X1505404Y1420553D01*
X1506025Y1420890D01*
X1506092Y1420945D01*
X1506167Y1420988D01*
X1506702Y1421453D01*
X1507243Y1421904D01*
X1507297Y1421972D01*
X1507363Y1422029D01*
X1507795Y1422591D01*
X1508237Y1423140D01*
X1508277Y1423216D01*
X1508330Y1423285D01*
X1508929Y1424451D01*
X1510346Y1427873D01*
X1520473Y1438000D01*
X1533705Y1443481D01*
X1608027Y1443481D01*
X1621259Y1438000D01*
X1631386Y1427873D01*
X1636867Y1414641D01*
X1636867Y1400319D01*
X1631386Y1387088D01*
X1621259Y1376960D01*
X1608027Y1371480D01*
X1533705Y1371480D01*
G37*
%LPD*%
%LPC*%
G36*
X1533705Y1071480D02*
X1533705Y1071480D01*
X1520473Y1076960D01*
X1510346Y1087088D01*
X1510233Y1087360D01*
X1510192Y1087437D01*
X1510165Y1087519D01*
X1509819Y1088133D01*
X1509484Y1088758D01*
X1509429Y1088825D01*
X1509386Y1088900D01*
X1508924Y1089436D01*
X1508475Y1089980D01*
X1508408Y1090034D01*
X1508351Y1090100D01*
X1507792Y1090534D01*
X1507244Y1090979D01*
X1507167Y1091019D01*
X1507098Y1091072D01*
X1506465Y1091388D01*
X1505840Y1091716D01*
X1505757Y1091740D01*
X1505679Y1091779D01*
X1504996Y1091963D01*
X1504319Y1092161D01*
X1504232Y1092169D01*
X1504148Y1092191D01*
X1502843Y1092298D01*
X1411523Y1092298D01*
X1400980Y1102842D01*
X1400979Y1102843D01*
X1360717Y1143105D01*
X1360636Y1143171D01*
X1360568Y1143250D01*
X1360023Y1143673D01*
X1359490Y1144109D01*
X1359398Y1144158D01*
X1359316Y1144222D01*
X1358698Y1144530D01*
X1358090Y1144852D01*
X1357990Y1144882D01*
X1357897Y1144928D01*
X1357232Y1145108D01*
X1356570Y1145304D01*
X1356466Y1145314D01*
X1356366Y1145341D01*
X1355060Y1145448D01*
X1026898Y1145448D01*
X1026812Y1145439D01*
X1026725Y1145446D01*
X1026024Y1145361D01*
X1025320Y1145291D01*
X1025237Y1145266D01*
X1025151Y1145255D01*
X1024483Y1145034D01*
X1023805Y1144826D01*
X1023728Y1144784D01*
X1023646Y1144757D01*
X1023034Y1144409D01*
X1022411Y1144071D01*
X1022344Y1144015D01*
X1022269Y1143973D01*
X1021737Y1143510D01*
X1021193Y1143056D01*
X1021138Y1142988D01*
X1021073Y1142932D01*
X1020642Y1142372D01*
X1020199Y1141821D01*
X1020159Y1141744D01*
X1020106Y1141675D01*
X1019507Y1140510D01*
X1018436Y1137923D01*
X1007746Y1127233D01*
X993779Y1121448D01*
X978662Y1121448D01*
X964695Y1127233D01*
X954005Y1137923D01*
X948220Y1151890D01*
X948220Y1167008D01*
X954005Y1180974D01*
X964695Y1191664D01*
X978662Y1197449D01*
X993779Y1197449D01*
X1007746Y1191664D01*
X1018436Y1180974D01*
X1019507Y1178387D01*
X1019549Y1178311D01*
X1019575Y1178229D01*
X1019922Y1177615D01*
X1020256Y1176990D01*
X1020312Y1176923D01*
X1020354Y1176848D01*
X1020817Y1176311D01*
X1021266Y1175768D01*
X1021333Y1175714D01*
X1021390Y1175648D01*
X1021948Y1175214D01*
X1022497Y1174769D01*
X1022574Y1174728D01*
X1022642Y1174675D01*
X1023273Y1174361D01*
X1023901Y1174032D01*
X1023984Y1174008D01*
X1024061Y1173969D01*
X1024745Y1173785D01*
X1025422Y1173587D01*
X1025508Y1173579D01*
X1025592Y1173557D01*
X1026898Y1173449D01*
X1369972Y1173449D01*
X1420779Y1122643D01*
X1420860Y1122577D01*
X1420928Y1122498D01*
X1421473Y1122075D01*
X1422006Y1121638D01*
X1422097Y1121590D01*
X1422180Y1121526D01*
X1422797Y1121219D01*
X1423406Y1120896D01*
X1423506Y1120866D01*
X1423599Y1120820D01*
X1424264Y1120640D01*
X1424926Y1120444D01*
X1425030Y1120434D01*
X1425130Y1120407D01*
X1426435Y1120300D01*
X1501864Y1120300D01*
X1501950Y1120308D01*
X1502037Y1120302D01*
X1502739Y1120387D01*
X1503442Y1120457D01*
X1503525Y1120482D01*
X1503611Y1120493D01*
X1504281Y1120714D01*
X1504957Y1120922D01*
X1505034Y1120963D01*
X1505116Y1120991D01*
X1505731Y1121341D01*
X1506352Y1121677D01*
X1506418Y1121732D01*
X1506493Y1121775D01*
X1507026Y1122239D01*
X1507569Y1122692D01*
X1507624Y1122760D01*
X1507689Y1122816D01*
X1508120Y1123377D01*
X1508563Y1123927D01*
X1508603Y1124004D01*
X1508656Y1124073D01*
X1509255Y1125238D01*
X1510346Y1127873D01*
X1520473Y1138000D01*
X1533705Y1143481D01*
X1608027Y1143481D01*
X1621259Y1138000D01*
X1631386Y1127873D01*
X1636867Y1114641D01*
X1636867Y1100319D01*
X1631386Y1087088D01*
X1621259Y1076960D01*
X1608027Y1071480D01*
X1533705Y1071480D01*
G37*
%LPD*%
%LPC*%
G36*
X1533705Y1271480D02*
X1533705Y1271480D01*
X1520473Y1276960D01*
X1510346Y1287088D01*
X1509907Y1288148D01*
X1509866Y1288224D01*
X1509839Y1288307D01*
X1509493Y1288920D01*
X1509158Y1289545D01*
X1509103Y1289612D01*
X1509060Y1289688D01*
X1508599Y1290222D01*
X1508148Y1290767D01*
X1508081Y1290822D01*
X1508024Y1290888D01*
X1507466Y1291321D01*
X1506918Y1291766D01*
X1506841Y1291807D01*
X1506772Y1291860D01*
X1506138Y1292175D01*
X1505514Y1292503D01*
X1505431Y1292527D01*
X1505353Y1292566D01*
X1504669Y1292750D01*
X1503992Y1292949D01*
X1503906Y1292956D01*
X1503822Y1292979D01*
X1502517Y1293086D01*
X1423335Y1293086D01*
X1373315Y1343105D01*
X1373235Y1343171D01*
X1373167Y1343250D01*
X1372622Y1343673D01*
X1372089Y1344109D01*
X1371997Y1344158D01*
X1371914Y1344222D01*
X1371297Y1344529D01*
X1370688Y1344852D01*
X1370588Y1344882D01*
X1370495Y1344928D01*
X1369830Y1345108D01*
X1369169Y1345304D01*
X1369065Y1345314D01*
X1368964Y1345341D01*
X1367659Y1345448D01*
X1026898Y1345448D01*
X1026811Y1345439D01*
X1026725Y1345446D01*
X1026023Y1345361D01*
X1025320Y1345291D01*
X1025237Y1345266D01*
X1025151Y1345255D01*
X1024482Y1345034D01*
X1023805Y1344826D01*
X1023728Y1344784D01*
X1023646Y1344757D01*
X1023033Y1344408D01*
X1022410Y1344071D01*
X1022344Y1344015D01*
X1022268Y1343972D01*
X1021735Y1343508D01*
X1021193Y1343056D01*
X1021138Y1342989D01*
X1021073Y1342931D01*
X1020640Y1342369D01*
X1020199Y1341821D01*
X1020159Y1341744D01*
X1020106Y1341675D01*
X1019507Y1340510D01*
X1018436Y1337923D01*
X1007746Y1327233D01*
X993779Y1321448D01*
X978662Y1321448D01*
X964695Y1327233D01*
X954005Y1337923D01*
X948220Y1351890D01*
X948220Y1367008D01*
X954005Y1380974D01*
X964695Y1391664D01*
X978662Y1397449D01*
X993779Y1397449D01*
X1007746Y1391664D01*
X1018436Y1380974D01*
X1019507Y1378388D01*
X1019548Y1378311D01*
X1019575Y1378229D01*
X1019922Y1377614D01*
X1020256Y1376990D01*
X1020311Y1376923D01*
X1020354Y1376848D01*
X1020816Y1376312D01*
X1021266Y1375768D01*
X1021333Y1375714D01*
X1021390Y1375648D01*
X1021948Y1375214D01*
X1022497Y1374769D01*
X1022574Y1374728D01*
X1022642Y1374675D01*
X1023275Y1374360D01*
X1023900Y1374032D01*
X1023983Y1374008D01*
X1024061Y1373969D01*
X1024744Y1373785D01*
X1025422Y1373587D01*
X1025508Y1373579D01*
X1025592Y1373557D01*
X1026898Y1373449D01*
X1382571Y1373449D01*
X1432590Y1323430D01*
X1432671Y1323364D01*
X1432739Y1323285D01*
X1433284Y1322862D01*
X1433817Y1322426D01*
X1433909Y1322377D01*
X1433991Y1322313D01*
X1434608Y1322006D01*
X1435217Y1321683D01*
X1435317Y1321653D01*
X1435410Y1321607D01*
X1436075Y1321428D01*
X1436737Y1321231D01*
X1436841Y1321221D01*
X1436941Y1321195D01*
X1438247Y1321087D01*
X1502190Y1321087D01*
X1502277Y1321096D01*
X1502363Y1321089D01*
X1503065Y1321174D01*
X1503768Y1321244D01*
X1503851Y1321270D01*
X1503937Y1321280D01*
X1504607Y1321502D01*
X1505284Y1321709D01*
X1505360Y1321751D01*
X1505442Y1321778D01*
X1506057Y1322128D01*
X1506678Y1322464D01*
X1506744Y1322520D01*
X1506820Y1322563D01*
X1507352Y1323027D01*
X1507895Y1323479D01*
X1507950Y1323547D01*
X1508015Y1323604D01*
X1508446Y1324164D01*
X1508889Y1324714D01*
X1508929Y1324791D01*
X1508982Y1324860D01*
X1509581Y1326025D01*
X1510346Y1327873D01*
X1520473Y1338000D01*
X1533705Y1343481D01*
X1608027Y1343481D01*
X1621259Y1338000D01*
X1631386Y1327873D01*
X1636867Y1314641D01*
X1636867Y1300319D01*
X1631386Y1287088D01*
X1621259Y1276960D01*
X1608027Y1271480D01*
X1533705Y1271480D01*
G37*
%LPD*%
%LPC*%
G36*
X1533705Y1171480D02*
X1533705Y1171480D01*
X1520473Y1176960D01*
X1510346Y1187088D01*
X1509744Y1188541D01*
X1509703Y1188618D01*
X1509676Y1188700D01*
X1509330Y1189315D01*
X1508995Y1189939D01*
X1508940Y1190006D01*
X1508897Y1190081D01*
X1508436Y1190615D01*
X1507986Y1191161D01*
X1507918Y1191216D01*
X1507861Y1191281D01*
X1507304Y1191714D01*
X1506755Y1192160D01*
X1506678Y1192201D01*
X1506609Y1192254D01*
X1505977Y1192568D01*
X1505351Y1192897D01*
X1505268Y1192921D01*
X1505190Y1192960D01*
X1504507Y1193144D01*
X1503829Y1193342D01*
X1503743Y1193350D01*
X1503659Y1193372D01*
X1502354Y1193480D01*
X1420579Y1193480D01*
X1370953Y1243105D01*
X1370872Y1243171D01*
X1370805Y1243250D01*
X1370259Y1243673D01*
X1369726Y1244109D01*
X1369635Y1244158D01*
X1369552Y1244222D01*
X1368935Y1244529D01*
X1368326Y1244852D01*
X1368226Y1244882D01*
X1368133Y1244928D01*
X1367468Y1245108D01*
X1366806Y1245304D01*
X1366702Y1245314D01*
X1366602Y1245341D01*
X1365297Y1245448D01*
X1026898Y1245448D01*
X1026811Y1245439D01*
X1026725Y1245446D01*
X1026023Y1245361D01*
X1025320Y1245291D01*
X1025237Y1245266D01*
X1025151Y1245255D01*
X1024482Y1245034D01*
X1023805Y1244826D01*
X1023728Y1244784D01*
X1023646Y1244757D01*
X1023033Y1244408D01*
X1022410Y1244071D01*
X1022344Y1244015D01*
X1022268Y1243972D01*
X1021735Y1243508D01*
X1021193Y1243056D01*
X1021138Y1242989D01*
X1021073Y1242931D01*
X1020640Y1242369D01*
X1020199Y1241821D01*
X1020159Y1241744D01*
X1020106Y1241675D01*
X1019507Y1240510D01*
X1018436Y1237923D01*
X1007746Y1227233D01*
X993779Y1221448D01*
X978662Y1221448D01*
X964695Y1227233D01*
X954005Y1237923D01*
X948220Y1251890D01*
X948220Y1267008D01*
X954005Y1280974D01*
X964695Y1291664D01*
X978662Y1297449D01*
X993779Y1297449D01*
X1007746Y1291664D01*
X1018436Y1280974D01*
X1019507Y1278388D01*
X1019548Y1278311D01*
X1019575Y1278229D01*
X1019922Y1277614D01*
X1020256Y1276990D01*
X1020311Y1276923D01*
X1020354Y1276848D01*
X1020816Y1276312D01*
X1021266Y1275768D01*
X1021333Y1275714D01*
X1021390Y1275648D01*
X1021948Y1275214D01*
X1022497Y1274769D01*
X1022574Y1274728D01*
X1022642Y1274675D01*
X1023275Y1274360D01*
X1023900Y1274032D01*
X1023983Y1274008D01*
X1024061Y1273969D01*
X1024744Y1273785D01*
X1025422Y1273587D01*
X1025508Y1273579D01*
X1025592Y1273557D01*
X1026898Y1273449D01*
X1380209Y1273449D01*
X1429834Y1223824D01*
X1429915Y1223758D01*
X1429983Y1223679D01*
X1430528Y1223256D01*
X1431061Y1222820D01*
X1431153Y1222771D01*
X1431235Y1222707D01*
X1431852Y1222400D01*
X1432461Y1222077D01*
X1432561Y1222047D01*
X1432654Y1222001D01*
X1433319Y1221821D01*
X1433981Y1221625D01*
X1434085Y1221615D01*
X1434185Y1221588D01*
X1435491Y1221481D01*
X1502354Y1221481D01*
X1502440Y1221490D01*
X1502527Y1221483D01*
X1503229Y1221568D01*
X1503931Y1221638D01*
X1504014Y1221664D01*
X1504100Y1221674D01*
X1504770Y1221895D01*
X1505447Y1222103D01*
X1505523Y1222145D01*
X1505605Y1222172D01*
X1506218Y1222521D01*
X1506841Y1222858D01*
X1506907Y1222914D01*
X1506983Y1222957D01*
X1507516Y1223421D01*
X1508059Y1223873D01*
X1508113Y1223940D01*
X1508179Y1223998D01*
X1508611Y1224560D01*
X1509052Y1225108D01*
X1509092Y1225185D01*
X1509145Y1225254D01*
X1509744Y1226419D01*
X1510346Y1227873D01*
X1520473Y1238000D01*
X1533705Y1243481D01*
X1608027Y1243481D01*
X1621259Y1238000D01*
X1631386Y1227873D01*
X1636867Y1214641D01*
X1636867Y1200319D01*
X1631386Y1187088D01*
X1621259Y1176960D01*
X1608027Y1171480D01*
X1533705Y1171480D01*
G37*
%LPD*%
%LPC*%
G36*
X1533705Y971480D02*
X1533705Y971480D01*
X1520473Y976960D01*
X1510346Y987088D01*
X1504865Y1000319D01*
X1504865Y1001228D01*
X1504859Y1001298D01*
X1504864Y1001367D01*
X1504780Y1002085D01*
X1504708Y1002806D01*
X1504688Y1002872D01*
X1504680Y1002941D01*
X1504456Y1003628D01*
X1504243Y1004321D01*
X1504210Y1004383D01*
X1504189Y1004448D01*
X1503834Y1005077D01*
X1503488Y1005716D01*
X1503444Y1005769D01*
X1503410Y1005829D01*
X1502937Y1006377D01*
X1502473Y1006933D01*
X1502420Y1006977D01*
X1502374Y1007029D01*
X1501801Y1007475D01*
X1501238Y1007927D01*
X1501177Y1007959D01*
X1501122Y1008002D01*
X1500472Y1008325D01*
X1499831Y1008658D01*
X1499765Y1008677D01*
X1499703Y1008708D01*
X1499001Y1008897D01*
X1498308Y1009097D01*
X1498239Y1009102D01*
X1498172Y1009120D01*
X1496866Y1009228D01*
X1380421Y1009228D01*
X1346544Y1043105D01*
X1346463Y1043171D01*
X1346395Y1043250D01*
X1345850Y1043673D01*
X1345317Y1044109D01*
X1345225Y1044158D01*
X1345143Y1044222D01*
X1344526Y1044529D01*
X1343916Y1044852D01*
X1343817Y1044882D01*
X1343724Y1044928D01*
X1343059Y1045108D01*
X1342397Y1045304D01*
X1342293Y1045314D01*
X1342193Y1045341D01*
X1340887Y1045448D01*
X1026898Y1045448D01*
X1026812Y1045439D01*
X1026725Y1045446D01*
X1026024Y1045361D01*
X1025320Y1045291D01*
X1025237Y1045266D01*
X1025151Y1045255D01*
X1024483Y1045034D01*
X1023805Y1044826D01*
X1023728Y1044784D01*
X1023646Y1044757D01*
X1023034Y1044409D01*
X1022411Y1044071D01*
X1022344Y1044015D01*
X1022269Y1043973D01*
X1021737Y1043510D01*
X1021193Y1043056D01*
X1021138Y1042988D01*
X1021073Y1042932D01*
X1020642Y1042372D01*
X1020199Y1041821D01*
X1020159Y1041744D01*
X1020106Y1041675D01*
X1019507Y1040510D01*
X1018436Y1037923D01*
X1007746Y1027233D01*
X993779Y1021448D01*
X978662Y1021448D01*
X964695Y1027233D01*
X954005Y1037923D01*
X948220Y1051890D01*
X948220Y1067008D01*
X954005Y1080974D01*
X964695Y1091664D01*
X978662Y1097449D01*
X993779Y1097449D01*
X1007746Y1091664D01*
X1018436Y1080974D01*
X1019507Y1078387D01*
X1019549Y1078311D01*
X1019575Y1078229D01*
X1019922Y1077615D01*
X1020256Y1076990D01*
X1020312Y1076923D01*
X1020354Y1076848D01*
X1020817Y1076311D01*
X1021266Y1075768D01*
X1021333Y1075714D01*
X1021390Y1075648D01*
X1021948Y1075214D01*
X1022497Y1074769D01*
X1022574Y1074728D01*
X1022642Y1074675D01*
X1023273Y1074361D01*
X1023901Y1074032D01*
X1023984Y1074008D01*
X1024061Y1073969D01*
X1024745Y1073785D01*
X1025422Y1073587D01*
X1025508Y1073579D01*
X1025592Y1073557D01*
X1026898Y1073449D01*
X1355799Y1073449D01*
X1389677Y1039572D01*
X1389757Y1039506D01*
X1389825Y1039427D01*
X1390370Y1039004D01*
X1390903Y1038568D01*
X1390995Y1038519D01*
X1391078Y1038455D01*
X1391695Y1038148D01*
X1392304Y1037825D01*
X1392404Y1037795D01*
X1392497Y1037749D01*
X1393162Y1037570D01*
X1393823Y1037373D01*
X1393927Y1037363D01*
X1394028Y1037336D01*
X1395333Y1037229D01*
X1517020Y1037229D01*
X1517141Y1037241D01*
X1517262Y1037233D01*
X1517928Y1037319D01*
X1518598Y1037386D01*
X1518714Y1037422D01*
X1518834Y1037437D01*
X1520081Y1037838D01*
X1533705Y1043481D01*
X1608027Y1043481D01*
X1621259Y1038000D01*
X1631386Y1027873D01*
X1636867Y1014641D01*
X1636867Y1000319D01*
X1631386Y987088D01*
X1621259Y976960D01*
X1608027Y971480D01*
X1533705Y971480D01*
G37*
%LPD*%
%LPC*%
G36*
X978662Y2221448D02*
X978662Y2221448D01*
X964695Y2227233D01*
X954005Y2237923D01*
X948220Y2251890D01*
X948220Y2267008D01*
X954005Y2280974D01*
X964695Y2291664D01*
X978662Y2297449D01*
X993779Y2297449D01*
X1007746Y2291664D01*
X1018436Y2280974D01*
X1019507Y2278388D01*
X1019548Y2278311D01*
X1019575Y2278229D01*
X1019922Y2277614D01*
X1020256Y2276990D01*
X1020311Y2276923D01*
X1020354Y2276848D01*
X1020817Y2276311D01*
X1021266Y2275768D01*
X1021333Y2275714D01*
X1021390Y2275648D01*
X1021948Y2275214D01*
X1022497Y2274769D01*
X1022574Y2274728D01*
X1022642Y2274675D01*
X1023275Y2274360D01*
X1023900Y2274032D01*
X1023983Y2274008D01*
X1024061Y2273969D01*
X1024744Y2273785D01*
X1025422Y2273587D01*
X1025508Y2273579D01*
X1025592Y2273557D01*
X1026898Y2273449D01*
X1509901Y2273449D01*
X1509988Y2273458D01*
X1510074Y2273451D01*
X1510777Y2273537D01*
X1511479Y2273607D01*
X1511562Y2273632D01*
X1511648Y2273642D01*
X1512318Y2273864D01*
X1512995Y2274072D01*
X1513071Y2274113D01*
X1513153Y2274140D01*
X1513766Y2274489D01*
X1514389Y2274827D01*
X1514455Y2274882D01*
X1514531Y2274925D01*
X1515063Y2275389D01*
X1515606Y2275841D01*
X1515661Y2275909D01*
X1515726Y2275966D01*
X1516158Y2276527D01*
X1516600Y2277077D01*
X1516640Y2277153D01*
X1516693Y2277222D01*
X1517292Y2278388D01*
X1518220Y2280629D01*
X1528347Y2290756D01*
X1541579Y2296237D01*
X1615901Y2296237D01*
X1629133Y2290756D01*
X1639260Y2280629D01*
X1644741Y2267397D01*
X1644741Y2253075D01*
X1639260Y2239844D01*
X1629133Y2229716D01*
X1615901Y2224235D01*
X1541579Y2224235D01*
X1528347Y2229716D01*
X1518220Y2239843D01*
X1517944Y2240510D01*
X1517903Y2240587D01*
X1517876Y2240669D01*
X1517529Y2241284D01*
X1517195Y2241907D01*
X1517140Y2241974D01*
X1517097Y2242050D01*
X1516634Y2242586D01*
X1516186Y2243129D01*
X1516119Y2243184D01*
X1516062Y2243250D01*
X1515502Y2243684D01*
X1514955Y2244128D01*
X1514878Y2244169D01*
X1514809Y2244222D01*
X1514177Y2244537D01*
X1513551Y2244865D01*
X1513468Y2244890D01*
X1513390Y2244928D01*
X1512708Y2245112D01*
X1512030Y2245311D01*
X1511943Y2245318D01*
X1511859Y2245341D01*
X1510554Y2245448D01*
X1026898Y2245448D01*
X1026811Y2245439D01*
X1026725Y2245446D01*
X1026023Y2245361D01*
X1025320Y2245291D01*
X1025237Y2245266D01*
X1025151Y2245255D01*
X1024482Y2245034D01*
X1023805Y2244826D01*
X1023728Y2244784D01*
X1023646Y2244757D01*
X1023033Y2244408D01*
X1022410Y2244071D01*
X1022344Y2244015D01*
X1022268Y2243972D01*
X1021735Y2243508D01*
X1021193Y2243056D01*
X1021138Y2242989D01*
X1021073Y2242931D01*
X1020640Y2242369D01*
X1020199Y2241821D01*
X1020159Y2241744D01*
X1020106Y2241675D01*
X1019507Y2240510D01*
X1018436Y2237923D01*
X1007746Y2227233D01*
X993779Y2221448D01*
X978662Y2221448D01*
G37*
%LPD*%
%LPC*%
G36*
X978662Y2121448D02*
X978662Y2121448D01*
X964695Y2127233D01*
X954005Y2137923D01*
X948220Y2151890D01*
X948220Y2167008D01*
X954005Y2180974D01*
X964695Y2191664D01*
X978662Y2197449D01*
X993779Y2197449D01*
X1007746Y2191664D01*
X1018436Y2180974D01*
X1019507Y2178388D01*
X1019548Y2178311D01*
X1019575Y2178229D01*
X1019922Y2177614D01*
X1020256Y2176990D01*
X1020311Y2176923D01*
X1020354Y2176848D01*
X1020817Y2176311D01*
X1021266Y2175768D01*
X1021333Y2175714D01*
X1021390Y2175648D01*
X1021948Y2175214D01*
X1022497Y2174769D01*
X1022574Y2174728D01*
X1022642Y2174675D01*
X1023275Y2174360D01*
X1023900Y2174032D01*
X1023983Y2174008D01*
X1024061Y2173969D01*
X1024744Y2173785D01*
X1025422Y2173587D01*
X1025508Y2173579D01*
X1025592Y2173557D01*
X1026898Y2173449D01*
X1509901Y2173449D01*
X1509988Y2173458D01*
X1510074Y2173451D01*
X1510777Y2173537D01*
X1511479Y2173607D01*
X1511562Y2173632D01*
X1511648Y2173642D01*
X1512318Y2173864D01*
X1512995Y2174072D01*
X1513071Y2174113D01*
X1513153Y2174140D01*
X1513766Y2174489D01*
X1514389Y2174827D01*
X1514455Y2174882D01*
X1514531Y2174925D01*
X1515063Y2175389D01*
X1515606Y2175841D01*
X1515661Y2175909D01*
X1515726Y2175966D01*
X1516158Y2176527D01*
X1516600Y2177077D01*
X1516640Y2177153D01*
X1516693Y2177222D01*
X1517292Y2178388D01*
X1518220Y2180629D01*
X1528347Y2190756D01*
X1541579Y2196237D01*
X1615901Y2196237D01*
X1629133Y2190756D01*
X1639260Y2180629D01*
X1644741Y2167397D01*
X1644741Y2153075D01*
X1639260Y2139844D01*
X1629133Y2129716D01*
X1615901Y2124235D01*
X1541579Y2124235D01*
X1528347Y2129716D01*
X1518220Y2139843D01*
X1517944Y2140510D01*
X1517903Y2140586D01*
X1517876Y2140669D01*
X1517529Y2141284D01*
X1517195Y2141907D01*
X1517140Y2141974D01*
X1517097Y2142050D01*
X1516634Y2142586D01*
X1516186Y2143129D01*
X1516119Y2143184D01*
X1516062Y2143250D01*
X1515502Y2143684D01*
X1514955Y2144128D01*
X1514878Y2144169D01*
X1514809Y2144222D01*
X1514177Y2144537D01*
X1513551Y2144865D01*
X1513468Y2144890D01*
X1513390Y2144928D01*
X1512708Y2145112D01*
X1512030Y2145311D01*
X1511943Y2145318D01*
X1511859Y2145341D01*
X1510554Y2145448D01*
X1026898Y2145448D01*
X1026811Y2145439D01*
X1026725Y2145446D01*
X1026023Y2145361D01*
X1025320Y2145291D01*
X1025237Y2145266D01*
X1025151Y2145255D01*
X1024482Y2145034D01*
X1023805Y2144826D01*
X1023728Y2144784D01*
X1023646Y2144757D01*
X1023033Y2144408D01*
X1022410Y2144071D01*
X1022344Y2144015D01*
X1022268Y2143972D01*
X1021735Y2143508D01*
X1021193Y2143056D01*
X1021138Y2142989D01*
X1021073Y2142931D01*
X1020640Y2142369D01*
X1020199Y2141821D01*
X1020159Y2141744D01*
X1020106Y2141675D01*
X1019507Y2140510D01*
X1018436Y2137923D01*
X1007746Y2127233D01*
X993779Y2121448D01*
X978662Y2121448D01*
G37*
%LPD*%
%LPC*%
G36*
X678662Y1921448D02*
X678662Y1921448D01*
X664695Y1927233D01*
X654005Y1937923D01*
X651466Y1944053D01*
X651425Y1944130D01*
X651398Y1944212D01*
X651051Y1944827D01*
X650717Y1945451D01*
X650662Y1945518D01*
X650619Y1945593D01*
X650158Y1946128D01*
X649707Y1946673D01*
X649640Y1946727D01*
X649583Y1946793D01*
X649025Y1947227D01*
X648476Y1947672D01*
X648400Y1947712D01*
X648331Y1947765D01*
X647698Y1948080D01*
X647073Y1948409D01*
X646989Y1948433D01*
X646912Y1948472D01*
X646229Y1948656D01*
X645551Y1948854D01*
X645465Y1948862D01*
X645381Y1948884D01*
X644075Y1948991D01*
X288985Y1948991D01*
X288899Y1948983D01*
X288812Y1948990D01*
X288109Y1948904D01*
X287407Y1948834D01*
X287324Y1948809D01*
X287238Y1948798D01*
X286569Y1948577D01*
X285892Y1948369D01*
X285815Y1948328D01*
X285733Y1948301D01*
X285120Y1947952D01*
X284498Y1947614D01*
X284431Y1947559D01*
X284356Y1947516D01*
X283821Y1947050D01*
X283280Y1946599D01*
X283226Y1946532D01*
X283160Y1946475D01*
X282727Y1945912D01*
X282286Y1945364D01*
X282246Y1945288D01*
X282193Y1945218D01*
X281594Y1944053D01*
X280992Y1942599D01*
X270865Y1932472D01*
X257633Y1926991D01*
X183311Y1926991D01*
X170080Y1932472D01*
X159952Y1942599D01*
X154472Y1955831D01*
X154472Y1970153D01*
X159952Y1983385D01*
X170080Y1993512D01*
X183311Y1998993D01*
X257633Y1998993D01*
X270865Y1993512D01*
X280992Y1983385D01*
X281594Y1981931D01*
X281635Y1981854D01*
X281662Y1981772D01*
X282009Y1981157D01*
X282343Y1980534D01*
X282399Y1980467D01*
X282441Y1980391D01*
X282902Y1979857D01*
X283353Y1979311D01*
X283420Y1979257D01*
X283477Y1979191D01*
X284034Y1978758D01*
X284584Y1978312D01*
X284661Y1978272D01*
X284729Y1978219D01*
X285361Y1977904D01*
X285987Y1977576D01*
X286071Y1977551D01*
X286148Y1977512D01*
X286831Y1977328D01*
X287509Y1977130D01*
X287596Y1977123D01*
X287679Y1977100D01*
X288985Y1976993D01*
X647011Y1976993D01*
X647097Y1977001D01*
X647184Y1976995D01*
X647886Y1977080D01*
X648588Y1977150D01*
X648672Y1977175D01*
X648758Y1977186D01*
X649427Y1977407D01*
X650104Y1977615D01*
X650181Y1977656D01*
X650263Y1977684D01*
X650875Y1978033D01*
X651498Y1978370D01*
X651565Y1978426D01*
X651640Y1978469D01*
X652172Y1978931D01*
X652716Y1979385D01*
X652770Y1979453D01*
X652836Y1979510D01*
X653268Y1980071D01*
X653710Y1980620D01*
X653749Y1980697D01*
X653803Y1980766D01*
X653809Y1980779D01*
X664695Y1991664D01*
X678662Y1997449D01*
X693779Y1997449D01*
X707746Y1991664D01*
X718436Y1980974D01*
X724221Y1967008D01*
X724221Y1951890D01*
X718436Y1937923D01*
X707746Y1927233D01*
X693779Y1921448D01*
X678662Y1921448D01*
G37*
%LPD*%
%LPC*%
G36*
X678662Y2221448D02*
X678662Y2221448D01*
X664695Y2227233D01*
X654005Y2237923D01*
X651466Y2244053D01*
X651425Y2244130D01*
X651398Y2244212D01*
X651051Y2244827D01*
X650717Y2245451D01*
X650662Y2245518D01*
X650619Y2245593D01*
X650158Y2246128D01*
X649707Y2246673D01*
X649640Y2246727D01*
X649583Y2246793D01*
X649025Y2247227D01*
X648476Y2247672D01*
X648400Y2247712D01*
X648331Y2247765D01*
X647698Y2248080D01*
X647073Y2248409D01*
X646989Y2248433D01*
X646912Y2248472D01*
X646229Y2248656D01*
X645551Y2248854D01*
X645465Y2248862D01*
X645381Y2248884D01*
X644075Y2248991D01*
X288985Y2248991D01*
X288899Y2248983D01*
X288812Y2248990D01*
X288109Y2248904D01*
X287407Y2248834D01*
X287324Y2248809D01*
X287238Y2248798D01*
X286569Y2248577D01*
X285892Y2248369D01*
X285815Y2248328D01*
X285733Y2248301D01*
X285120Y2247952D01*
X284498Y2247614D01*
X284431Y2247559D01*
X284356Y2247516D01*
X283822Y2247051D01*
X283280Y2246599D01*
X283226Y2246532D01*
X283160Y2246475D01*
X282727Y2245912D01*
X282286Y2245364D01*
X282246Y2245288D01*
X282193Y2245218D01*
X281594Y2244053D01*
X280992Y2242599D01*
X270865Y2232472D01*
X257633Y2226991D01*
X183311Y2226991D01*
X170080Y2232472D01*
X159952Y2242599D01*
X154472Y2255831D01*
X154472Y2270153D01*
X159952Y2283385D01*
X170080Y2293512D01*
X183311Y2298993D01*
X257633Y2298993D01*
X270865Y2293512D01*
X280992Y2283385D01*
X281594Y2281931D01*
X281635Y2281854D01*
X281662Y2281772D01*
X282009Y2281157D01*
X282343Y2280534D01*
X282399Y2280467D01*
X282441Y2280391D01*
X282902Y2279857D01*
X283353Y2279311D01*
X283420Y2279257D01*
X283477Y2279191D01*
X284034Y2278758D01*
X284584Y2278312D01*
X284661Y2278272D01*
X284729Y2278219D01*
X285361Y2277904D01*
X285987Y2277576D01*
X286071Y2277551D01*
X286148Y2277512D01*
X286831Y2277328D01*
X287509Y2277130D01*
X287596Y2277123D01*
X287679Y2277100D01*
X288985Y2276993D01*
X647011Y2276993D01*
X647097Y2277001D01*
X647184Y2276995D01*
X647886Y2277080D01*
X648588Y2277150D01*
X648672Y2277175D01*
X648758Y2277186D01*
X649427Y2277407D01*
X650104Y2277615D01*
X650181Y2277656D01*
X650263Y2277684D01*
X650875Y2278033D01*
X651498Y2278370D01*
X651565Y2278426D01*
X651640Y2278469D01*
X652172Y2278931D01*
X652716Y2279385D01*
X652770Y2279453D01*
X652836Y2279510D01*
X653268Y2280071D01*
X653710Y2280620D01*
X653749Y2280697D01*
X653803Y2280766D01*
X653809Y2280779D01*
X664695Y2291664D01*
X678662Y2297449D01*
X693779Y2297449D01*
X707746Y2291664D01*
X718436Y2280974D01*
X724221Y2267008D01*
X724221Y2251890D01*
X718436Y2237923D01*
X707746Y2227233D01*
X693779Y2221448D01*
X678662Y2221448D01*
G37*
%LPD*%
%LPC*%
G36*
X678662Y2121448D02*
X678662Y2121448D01*
X664695Y2127233D01*
X654005Y2137923D01*
X651466Y2144053D01*
X651425Y2144130D01*
X651398Y2144212D01*
X651051Y2144827D01*
X650717Y2145451D01*
X650662Y2145518D01*
X650619Y2145593D01*
X650158Y2146128D01*
X649707Y2146673D01*
X649640Y2146727D01*
X649583Y2146793D01*
X649025Y2147227D01*
X648476Y2147672D01*
X648400Y2147712D01*
X648331Y2147765D01*
X647698Y2148080D01*
X647073Y2148409D01*
X646989Y2148433D01*
X646912Y2148472D01*
X646229Y2148656D01*
X645551Y2148854D01*
X645465Y2148862D01*
X645381Y2148884D01*
X644075Y2148991D01*
X288985Y2148991D01*
X288899Y2148983D01*
X288812Y2148990D01*
X288109Y2148904D01*
X287407Y2148834D01*
X287324Y2148809D01*
X287238Y2148798D01*
X286569Y2148577D01*
X285892Y2148369D01*
X285815Y2148328D01*
X285733Y2148301D01*
X285120Y2147952D01*
X284498Y2147614D01*
X284431Y2147559D01*
X284356Y2147516D01*
X283822Y2147051D01*
X283280Y2146599D01*
X283226Y2146532D01*
X283160Y2146475D01*
X282727Y2145912D01*
X282286Y2145364D01*
X282246Y2145288D01*
X282193Y2145218D01*
X281594Y2144053D01*
X280992Y2142599D01*
X270865Y2132472D01*
X257633Y2126991D01*
X183311Y2126991D01*
X170080Y2132472D01*
X159952Y2142599D01*
X154472Y2155831D01*
X154472Y2170153D01*
X159952Y2183385D01*
X170080Y2193512D01*
X183311Y2198993D01*
X257633Y2198993D01*
X270865Y2193512D01*
X280992Y2183385D01*
X281594Y2181931D01*
X281635Y2181854D01*
X281662Y2181772D01*
X282009Y2181157D01*
X282343Y2180534D01*
X282399Y2180467D01*
X282441Y2180391D01*
X282902Y2179857D01*
X283353Y2179311D01*
X283420Y2179257D01*
X283477Y2179191D01*
X284034Y2178758D01*
X284584Y2178312D01*
X284661Y2178272D01*
X284729Y2178219D01*
X285361Y2177904D01*
X285987Y2177576D01*
X286071Y2177551D01*
X286148Y2177512D01*
X286831Y2177328D01*
X287509Y2177130D01*
X287596Y2177123D01*
X287679Y2177100D01*
X288985Y2176993D01*
X647011Y2176993D01*
X647097Y2177001D01*
X647184Y2176995D01*
X647886Y2177080D01*
X648588Y2177150D01*
X648672Y2177175D01*
X648758Y2177186D01*
X649427Y2177407D01*
X650104Y2177615D01*
X650181Y2177656D01*
X650263Y2177684D01*
X650875Y2178033D01*
X651498Y2178370D01*
X651565Y2178426D01*
X651640Y2178469D01*
X652172Y2178931D01*
X652716Y2179385D01*
X652770Y2179453D01*
X652836Y2179510D01*
X653268Y2180071D01*
X653710Y2180620D01*
X653749Y2180697D01*
X653803Y2180766D01*
X653809Y2180779D01*
X664695Y2191664D01*
X678662Y2197449D01*
X693779Y2197449D01*
X707746Y2191664D01*
X718436Y2180974D01*
X724221Y2167008D01*
X724221Y2151890D01*
X718436Y2137923D01*
X707746Y2127233D01*
X693779Y2121448D01*
X678662Y2121448D01*
G37*
%LPD*%
%LPC*%
G36*
X678662Y2021448D02*
X678662Y2021448D01*
X664695Y2027233D01*
X654005Y2037923D01*
X651466Y2044053D01*
X651425Y2044130D01*
X651398Y2044212D01*
X651051Y2044827D01*
X650717Y2045451D01*
X650662Y2045518D01*
X650619Y2045593D01*
X650158Y2046128D01*
X649707Y2046673D01*
X649640Y2046727D01*
X649583Y2046793D01*
X649025Y2047227D01*
X648476Y2047672D01*
X648400Y2047712D01*
X648331Y2047765D01*
X647698Y2048080D01*
X647073Y2048409D01*
X646989Y2048433D01*
X646912Y2048472D01*
X646229Y2048656D01*
X645551Y2048854D01*
X645465Y2048862D01*
X645381Y2048884D01*
X644075Y2048991D01*
X288985Y2048991D01*
X288899Y2048983D01*
X288812Y2048990D01*
X288109Y2048904D01*
X287407Y2048834D01*
X287324Y2048809D01*
X287238Y2048798D01*
X286569Y2048577D01*
X285892Y2048369D01*
X285815Y2048328D01*
X285733Y2048301D01*
X285120Y2047952D01*
X284498Y2047614D01*
X284431Y2047559D01*
X284356Y2047516D01*
X283822Y2047051D01*
X283280Y2046599D01*
X283226Y2046532D01*
X283160Y2046475D01*
X282727Y2045912D01*
X282286Y2045364D01*
X282246Y2045288D01*
X282193Y2045218D01*
X281594Y2044053D01*
X280992Y2042599D01*
X270865Y2032472D01*
X257633Y2026991D01*
X183311Y2026991D01*
X170080Y2032472D01*
X159952Y2042599D01*
X154472Y2055831D01*
X154472Y2070153D01*
X159952Y2083385D01*
X170080Y2093512D01*
X183311Y2098993D01*
X257633Y2098993D01*
X270865Y2093512D01*
X280992Y2083385D01*
X281594Y2081931D01*
X281635Y2081854D01*
X281662Y2081772D01*
X282009Y2081157D01*
X282343Y2080534D01*
X282399Y2080467D01*
X282441Y2080391D01*
X282902Y2079857D01*
X283353Y2079311D01*
X283420Y2079257D01*
X283477Y2079191D01*
X284034Y2078758D01*
X284584Y2078312D01*
X284661Y2078272D01*
X284729Y2078219D01*
X285361Y2077904D01*
X285987Y2077576D01*
X286071Y2077551D01*
X286148Y2077512D01*
X286831Y2077328D01*
X287509Y2077130D01*
X287596Y2077123D01*
X287679Y2077100D01*
X288985Y2076993D01*
X647011Y2076993D01*
X647097Y2077001D01*
X647184Y2076995D01*
X647886Y2077080D01*
X648588Y2077150D01*
X648672Y2077175D01*
X648758Y2077186D01*
X649427Y2077407D01*
X650104Y2077615D01*
X650181Y2077656D01*
X650263Y2077684D01*
X650875Y2078033D01*
X651498Y2078370D01*
X651565Y2078426D01*
X651640Y2078469D01*
X652172Y2078931D01*
X652716Y2079385D01*
X652770Y2079453D01*
X652836Y2079510D01*
X653268Y2080071D01*
X653710Y2080620D01*
X653749Y2080697D01*
X653803Y2080766D01*
X653809Y2080779D01*
X664695Y2091664D01*
X678662Y2097449D01*
X693779Y2097449D01*
X707746Y2091664D01*
X718436Y2080974D01*
X724221Y2067008D01*
X724221Y2051890D01*
X718436Y2037923D01*
X707746Y2027233D01*
X693779Y2021448D01*
X678662Y2021448D01*
G37*
%LPD*%
%LPC*%
G36*
X678662Y1221448D02*
X678662Y1221448D01*
X664695Y1227233D01*
X654005Y1237923D01*
X653260Y1239723D01*
X653218Y1239800D01*
X653192Y1239882D01*
X652845Y1240495D01*
X652511Y1241120D01*
X652455Y1241187D01*
X652413Y1241262D01*
X651950Y1241799D01*
X651501Y1242342D01*
X651434Y1242397D01*
X651377Y1242462D01*
X650819Y1242896D01*
X650270Y1243341D01*
X650193Y1243382D01*
X650125Y1243435D01*
X649494Y1243749D01*
X648866Y1244078D01*
X648783Y1244102D01*
X648706Y1244141D01*
X648022Y1244325D01*
X647345Y1244523D01*
X647258Y1244531D01*
X647175Y1244553D01*
X645869Y1244661D01*
X292922Y1244661D01*
X292836Y1244652D01*
X292749Y1244659D01*
X292046Y1244573D01*
X291344Y1244504D01*
X291261Y1244478D01*
X291175Y1244468D01*
X290506Y1244246D01*
X289829Y1244039D01*
X289752Y1243997D01*
X289670Y1243970D01*
X289057Y1243621D01*
X288435Y1243284D01*
X288368Y1243228D01*
X288293Y1243185D01*
X287759Y1242720D01*
X287217Y1242269D01*
X287163Y1242201D01*
X287097Y1242144D01*
X286664Y1241581D01*
X286223Y1241033D01*
X286183Y1240957D01*
X286130Y1240888D01*
X285531Y1239722D01*
X284929Y1238269D01*
X274802Y1228141D01*
X261570Y1222661D01*
X187248Y1222661D01*
X174017Y1228141D01*
X163889Y1238269D01*
X158409Y1251500D01*
X158409Y1265822D01*
X163889Y1279054D01*
X174017Y1289181D01*
X187248Y1294662D01*
X261570Y1294662D01*
X274802Y1289181D01*
X284929Y1279054D01*
X285531Y1277600D01*
X285572Y1277524D01*
X285599Y1277441D01*
X285946Y1276827D01*
X286280Y1276203D01*
X286336Y1276136D01*
X286378Y1276060D01*
X286839Y1275526D01*
X287290Y1274981D01*
X287357Y1274926D01*
X287414Y1274860D01*
X287971Y1274427D01*
X288521Y1273982D01*
X288598Y1273941D01*
X288666Y1273888D01*
X289298Y1273574D01*
X289924Y1273245D01*
X290008Y1273220D01*
X290086Y1273182D01*
X290768Y1272998D01*
X291446Y1272799D01*
X291533Y1272792D01*
X291616Y1272769D01*
X292922Y1272662D01*
X645217Y1272662D01*
X645303Y1272671D01*
X645390Y1272664D01*
X646091Y1272749D01*
X646794Y1272819D01*
X646877Y1272845D01*
X646963Y1272855D01*
X647632Y1273076D01*
X648310Y1273284D01*
X648387Y1273326D01*
X648469Y1273353D01*
X649081Y1273702D01*
X649704Y1274039D01*
X649771Y1274095D01*
X649846Y1274138D01*
X650377Y1274600D01*
X650922Y1275054D01*
X650976Y1275122D01*
X651042Y1275179D01*
X651473Y1275739D01*
X651916Y1276289D01*
X651955Y1276366D01*
X652008Y1276435D01*
X652607Y1277600D01*
X654005Y1280974D01*
X664695Y1291664D01*
X678662Y1297449D01*
X693779Y1297449D01*
X707746Y1291664D01*
X718436Y1280974D01*
X724221Y1267008D01*
X724221Y1251890D01*
X718436Y1237923D01*
X707746Y1227233D01*
X693779Y1221448D01*
X678662Y1221448D01*
G37*
%LPD*%
%LPC*%
G36*
X678662Y921448D02*
X678662Y921448D01*
X664695Y927233D01*
X654005Y937923D01*
X653260Y939723D01*
X653218Y939800D01*
X653192Y939882D01*
X652845Y940495D01*
X652511Y941120D01*
X652455Y941187D01*
X652413Y941262D01*
X651950Y941799D01*
X651501Y942342D01*
X651434Y942397D01*
X651377Y942462D01*
X650819Y942896D01*
X650270Y943341D01*
X650193Y943382D01*
X650125Y943435D01*
X649494Y943749D01*
X648866Y944078D01*
X648783Y944102D01*
X648706Y944141D01*
X648022Y944325D01*
X647345Y944523D01*
X647258Y944531D01*
X647175Y944553D01*
X645869Y944661D01*
X292922Y944661D01*
X292836Y944652D01*
X292749Y944659D01*
X292046Y944573D01*
X291344Y944504D01*
X291261Y944478D01*
X291175Y944468D01*
X290506Y944246D01*
X289829Y944039D01*
X289752Y943997D01*
X289670Y943970D01*
X289057Y943621D01*
X288435Y943284D01*
X288368Y943228D01*
X288293Y943185D01*
X287759Y942720D01*
X287217Y942269D01*
X287163Y942201D01*
X287097Y942144D01*
X286664Y941581D01*
X286223Y941033D01*
X286183Y940957D01*
X286130Y940888D01*
X285531Y939722D01*
X284929Y938269D01*
X274802Y928141D01*
X261570Y922661D01*
X187248Y922661D01*
X174017Y928141D01*
X163889Y938269D01*
X158409Y951500D01*
X158409Y965822D01*
X163889Y979054D01*
X174017Y989181D01*
X187248Y994662D01*
X261570Y994662D01*
X274802Y989181D01*
X284929Y979054D01*
X285531Y977600D01*
X285572Y977524D01*
X285599Y977441D01*
X285946Y976827D01*
X286280Y976203D01*
X286336Y976136D01*
X286378Y976060D01*
X286839Y975526D01*
X287290Y974981D01*
X287357Y974926D01*
X287414Y974860D01*
X287971Y974427D01*
X288521Y973982D01*
X288598Y973941D01*
X288666Y973888D01*
X289298Y973574D01*
X289924Y973245D01*
X290008Y973220D01*
X290086Y973182D01*
X290768Y972998D01*
X291446Y972799D01*
X291533Y972792D01*
X291616Y972769D01*
X292922Y972662D01*
X645217Y972662D01*
X645303Y972671D01*
X645390Y972664D01*
X646091Y972749D01*
X646794Y972819D01*
X646877Y972845D01*
X646963Y972855D01*
X647632Y973076D01*
X648310Y973284D01*
X648387Y973326D01*
X648469Y973353D01*
X649081Y973702D01*
X649704Y974039D01*
X649771Y974095D01*
X649846Y974138D01*
X650377Y974600D01*
X650922Y975054D01*
X650976Y975122D01*
X651042Y975179D01*
X651473Y975739D01*
X651916Y976289D01*
X651955Y976366D01*
X652008Y976435D01*
X652607Y977600D01*
X654005Y980974D01*
X664695Y991664D01*
X678662Y997449D01*
X693779Y997449D01*
X707746Y991664D01*
X718436Y980974D01*
X724221Y967008D01*
X724221Y951890D01*
X718436Y937923D01*
X707746Y927233D01*
X693779Y921448D01*
X678662Y921448D01*
G37*
%LPD*%
%LPC*%
G36*
X678662Y1121448D02*
X678662Y1121448D01*
X664695Y1127233D01*
X654005Y1137923D01*
X653260Y1139723D01*
X653218Y1139800D01*
X653192Y1139882D01*
X652845Y1140495D01*
X652511Y1141120D01*
X652455Y1141187D01*
X652413Y1141262D01*
X651950Y1141799D01*
X651501Y1142342D01*
X651434Y1142397D01*
X651377Y1142462D01*
X650819Y1142896D01*
X650270Y1143341D01*
X650193Y1143382D01*
X650125Y1143435D01*
X649494Y1143749D01*
X648866Y1144078D01*
X648783Y1144102D01*
X648706Y1144141D01*
X648022Y1144325D01*
X647345Y1144523D01*
X647258Y1144531D01*
X647175Y1144553D01*
X645869Y1144661D01*
X292922Y1144661D01*
X292836Y1144652D01*
X292749Y1144659D01*
X292046Y1144573D01*
X291344Y1144504D01*
X291261Y1144478D01*
X291175Y1144468D01*
X290506Y1144246D01*
X289829Y1144039D01*
X289752Y1143997D01*
X289670Y1143970D01*
X289057Y1143621D01*
X288435Y1143284D01*
X288368Y1143228D01*
X288293Y1143185D01*
X287759Y1142720D01*
X287217Y1142269D01*
X287163Y1142201D01*
X287097Y1142144D01*
X286664Y1141581D01*
X286223Y1141033D01*
X286183Y1140957D01*
X286130Y1140888D01*
X285531Y1139722D01*
X284929Y1138269D01*
X274802Y1128141D01*
X261570Y1122661D01*
X187248Y1122661D01*
X174017Y1128141D01*
X163889Y1138269D01*
X158409Y1151500D01*
X158409Y1165822D01*
X163889Y1179054D01*
X174017Y1189181D01*
X187248Y1194662D01*
X261570Y1194662D01*
X274802Y1189181D01*
X284929Y1179054D01*
X285531Y1177600D01*
X285572Y1177524D01*
X285599Y1177441D01*
X285946Y1176827D01*
X286280Y1176203D01*
X286336Y1176136D01*
X286378Y1176060D01*
X286839Y1175526D01*
X287290Y1174981D01*
X287357Y1174926D01*
X287414Y1174860D01*
X287971Y1174427D01*
X288521Y1173982D01*
X288598Y1173941D01*
X288666Y1173888D01*
X289298Y1173574D01*
X289924Y1173245D01*
X290008Y1173220D01*
X290086Y1173182D01*
X290768Y1172998D01*
X291446Y1172799D01*
X291533Y1172792D01*
X291616Y1172769D01*
X292922Y1172662D01*
X645217Y1172662D01*
X645303Y1172671D01*
X645390Y1172664D01*
X646091Y1172749D01*
X646794Y1172819D01*
X646877Y1172845D01*
X646963Y1172855D01*
X647632Y1173076D01*
X648310Y1173284D01*
X648387Y1173326D01*
X648469Y1173353D01*
X649081Y1173702D01*
X649704Y1174039D01*
X649771Y1174095D01*
X649846Y1174138D01*
X650377Y1174600D01*
X650922Y1175054D01*
X650976Y1175122D01*
X651042Y1175179D01*
X651473Y1175739D01*
X651916Y1176289D01*
X651955Y1176366D01*
X652008Y1176435D01*
X652607Y1177600D01*
X654005Y1180974D01*
X664695Y1191664D01*
X678662Y1197449D01*
X693779Y1197449D01*
X707746Y1191664D01*
X718436Y1180974D01*
X724221Y1167008D01*
X724221Y1151890D01*
X718436Y1137923D01*
X707746Y1127233D01*
X693779Y1121448D01*
X678662Y1121448D01*
G37*
%LPD*%
%LPC*%
G36*
X678662Y1021448D02*
X678662Y1021448D01*
X664695Y1027233D01*
X654005Y1037923D01*
X653260Y1039723D01*
X653218Y1039800D01*
X653192Y1039882D01*
X652845Y1040495D01*
X652511Y1041120D01*
X652455Y1041187D01*
X652413Y1041262D01*
X651950Y1041799D01*
X651501Y1042342D01*
X651434Y1042397D01*
X651377Y1042462D01*
X650819Y1042896D01*
X650270Y1043341D01*
X650193Y1043382D01*
X650125Y1043435D01*
X649494Y1043749D01*
X648866Y1044078D01*
X648783Y1044102D01*
X648706Y1044141D01*
X648022Y1044325D01*
X647345Y1044523D01*
X647258Y1044531D01*
X647175Y1044553D01*
X645869Y1044661D01*
X292922Y1044661D01*
X292836Y1044652D01*
X292749Y1044659D01*
X292046Y1044573D01*
X291344Y1044504D01*
X291261Y1044478D01*
X291175Y1044468D01*
X290506Y1044246D01*
X289829Y1044039D01*
X289752Y1043997D01*
X289670Y1043970D01*
X289057Y1043621D01*
X288435Y1043284D01*
X288368Y1043228D01*
X288293Y1043185D01*
X287759Y1042720D01*
X287217Y1042269D01*
X287163Y1042201D01*
X287097Y1042144D01*
X286664Y1041581D01*
X286223Y1041033D01*
X286183Y1040957D01*
X286130Y1040888D01*
X285531Y1039722D01*
X284929Y1038269D01*
X274802Y1028141D01*
X261570Y1022661D01*
X187248Y1022661D01*
X174017Y1028141D01*
X163889Y1038269D01*
X158409Y1051500D01*
X158409Y1065822D01*
X163889Y1079054D01*
X174017Y1089181D01*
X187248Y1094662D01*
X261570Y1094662D01*
X274802Y1089181D01*
X284929Y1079054D01*
X285531Y1077600D01*
X285572Y1077524D01*
X285599Y1077441D01*
X285946Y1076827D01*
X286280Y1076203D01*
X286336Y1076136D01*
X286378Y1076060D01*
X286839Y1075526D01*
X287290Y1074981D01*
X287357Y1074926D01*
X287414Y1074860D01*
X287971Y1074427D01*
X288521Y1073982D01*
X288598Y1073941D01*
X288666Y1073888D01*
X289298Y1073574D01*
X289924Y1073245D01*
X290008Y1073220D01*
X290086Y1073182D01*
X290768Y1072998D01*
X291446Y1072799D01*
X291533Y1072792D01*
X291616Y1072769D01*
X292922Y1072662D01*
X645217Y1072662D01*
X645303Y1072671D01*
X645390Y1072664D01*
X646091Y1072749D01*
X646794Y1072819D01*
X646877Y1072845D01*
X646963Y1072855D01*
X647632Y1073076D01*
X648310Y1073284D01*
X648387Y1073326D01*
X648469Y1073353D01*
X649081Y1073702D01*
X649704Y1074039D01*
X649771Y1074095D01*
X649846Y1074138D01*
X650377Y1074600D01*
X650922Y1075054D01*
X650976Y1075122D01*
X651042Y1075179D01*
X651473Y1075739D01*
X651916Y1076289D01*
X651955Y1076366D01*
X652008Y1076435D01*
X652607Y1077600D01*
X654005Y1080974D01*
X664695Y1091664D01*
X678662Y1097449D01*
X693779Y1097449D01*
X707746Y1091664D01*
X718436Y1080974D01*
X724221Y1067008D01*
X724221Y1051890D01*
X718436Y1037923D01*
X707746Y1027233D01*
X693779Y1021448D01*
X678662Y1021448D01*
G37*
%LPD*%
%LPC*%
G36*
X678662Y1321448D02*
X678662Y1321448D01*
X664695Y1327233D01*
X654005Y1337923D01*
X653260Y1339723D01*
X653218Y1339800D01*
X653192Y1339882D01*
X652845Y1340495D01*
X652511Y1341120D01*
X652455Y1341187D01*
X652413Y1341262D01*
X651950Y1341799D01*
X651501Y1342342D01*
X651434Y1342397D01*
X651377Y1342462D01*
X650819Y1342896D01*
X650270Y1343341D01*
X650193Y1343382D01*
X650125Y1343435D01*
X649494Y1343749D01*
X648866Y1344078D01*
X648783Y1344102D01*
X648706Y1344141D01*
X648022Y1344325D01*
X647345Y1344523D01*
X647258Y1344531D01*
X647175Y1344553D01*
X645869Y1344661D01*
X292922Y1344661D01*
X292836Y1344652D01*
X292749Y1344659D01*
X292046Y1344573D01*
X291344Y1344504D01*
X291261Y1344478D01*
X291175Y1344468D01*
X290506Y1344246D01*
X289829Y1344039D01*
X289752Y1343997D01*
X289670Y1343970D01*
X289057Y1343621D01*
X288435Y1343284D01*
X288368Y1343228D01*
X288293Y1343185D01*
X287759Y1342720D01*
X287217Y1342269D01*
X287163Y1342201D01*
X287097Y1342144D01*
X286664Y1341581D01*
X286223Y1341033D01*
X286183Y1340957D01*
X286130Y1340888D01*
X285531Y1339722D01*
X284929Y1338269D01*
X274802Y1328141D01*
X261570Y1322661D01*
X187248Y1322661D01*
X174017Y1328141D01*
X163889Y1338269D01*
X158409Y1351500D01*
X158409Y1365822D01*
X163889Y1379054D01*
X174017Y1389181D01*
X187248Y1394662D01*
X261570Y1394662D01*
X274802Y1389181D01*
X284929Y1379054D01*
X285531Y1377600D01*
X285572Y1377524D01*
X285599Y1377441D01*
X285946Y1376827D01*
X286280Y1376203D01*
X286336Y1376136D01*
X286378Y1376060D01*
X286839Y1375526D01*
X287290Y1374981D01*
X287357Y1374926D01*
X287414Y1374860D01*
X287971Y1374427D01*
X288521Y1373982D01*
X288598Y1373941D01*
X288666Y1373888D01*
X289298Y1373574D01*
X289924Y1373245D01*
X290008Y1373220D01*
X290086Y1373182D01*
X290768Y1372998D01*
X291446Y1372799D01*
X291533Y1372792D01*
X291616Y1372769D01*
X292922Y1372662D01*
X645217Y1372662D01*
X645303Y1372671D01*
X645390Y1372664D01*
X646092Y1372749D01*
X646795Y1372819D01*
X646877Y1372845D01*
X646964Y1372855D01*
X647633Y1373077D01*
X648310Y1373284D01*
X648387Y1373326D01*
X648469Y1373353D01*
X649080Y1373701D01*
X649704Y1374039D01*
X649771Y1374095D01*
X649846Y1374138D01*
X650377Y1374600D01*
X650922Y1375054D01*
X650977Y1375122D01*
X651042Y1375179D01*
X651473Y1375739D01*
X651916Y1376289D01*
X651956Y1376366D01*
X652009Y1376435D01*
X652607Y1377600D01*
X654005Y1380974D01*
X664695Y1391664D01*
X678662Y1397449D01*
X693779Y1397449D01*
X707746Y1391664D01*
X718436Y1380974D01*
X724221Y1367008D01*
X724221Y1351890D01*
X718436Y1337923D01*
X707746Y1327233D01*
X693779Y1321448D01*
X678662Y1321448D01*
G37*
%LPD*%
%LPC*%
G36*
X678662Y1421448D02*
X678662Y1421448D01*
X664695Y1427233D01*
X654005Y1437923D01*
X653260Y1439723D01*
X653218Y1439800D01*
X653192Y1439882D01*
X652846Y1440494D01*
X652511Y1441120D01*
X652455Y1441187D01*
X652413Y1441262D01*
X651950Y1441799D01*
X651501Y1442342D01*
X651434Y1442397D01*
X651377Y1442462D01*
X650819Y1442896D01*
X650270Y1443341D01*
X650193Y1443382D01*
X650125Y1443435D01*
X649494Y1443749D01*
X648866Y1444078D01*
X648783Y1444102D01*
X648706Y1444141D01*
X648022Y1444325D01*
X647345Y1444523D01*
X647258Y1444531D01*
X647175Y1444553D01*
X645869Y1444661D01*
X292922Y1444661D01*
X292836Y1444652D01*
X292749Y1444659D01*
X292046Y1444573D01*
X291344Y1444504D01*
X291261Y1444478D01*
X291175Y1444468D01*
X290506Y1444246D01*
X289829Y1444039D01*
X289752Y1443997D01*
X289670Y1443970D01*
X289057Y1443621D01*
X288435Y1443284D01*
X288368Y1443228D01*
X288293Y1443185D01*
X287759Y1442720D01*
X287217Y1442269D01*
X287163Y1442201D01*
X287097Y1442144D01*
X286664Y1441581D01*
X286223Y1441033D01*
X286183Y1440957D01*
X286130Y1440888D01*
X285531Y1439722D01*
X284929Y1438269D01*
X274802Y1428141D01*
X261570Y1422661D01*
X187248Y1422661D01*
X174017Y1428141D01*
X163889Y1438269D01*
X158409Y1451500D01*
X158409Y1465822D01*
X163889Y1479054D01*
X174017Y1489181D01*
X187248Y1494662D01*
X261570Y1494662D01*
X274802Y1489181D01*
X284929Y1479054D01*
X285531Y1477600D01*
X285572Y1477524D01*
X285599Y1477441D01*
X285946Y1476827D01*
X286280Y1476203D01*
X286336Y1476136D01*
X286378Y1476060D01*
X286839Y1475526D01*
X287290Y1474981D01*
X287357Y1474926D01*
X287414Y1474860D01*
X287971Y1474427D01*
X288521Y1473982D01*
X288598Y1473941D01*
X288666Y1473888D01*
X289298Y1473574D01*
X289924Y1473245D01*
X290008Y1473220D01*
X290086Y1473182D01*
X290768Y1472998D01*
X291446Y1472799D01*
X291533Y1472792D01*
X291616Y1472769D01*
X292922Y1472662D01*
X645217Y1472662D01*
X645303Y1472671D01*
X645390Y1472664D01*
X646092Y1472749D01*
X646795Y1472819D01*
X646877Y1472845D01*
X646964Y1472855D01*
X647633Y1473077D01*
X648310Y1473284D01*
X648387Y1473326D01*
X648469Y1473353D01*
X649080Y1473701D01*
X649704Y1474039D01*
X649771Y1474095D01*
X649846Y1474138D01*
X650375Y1474598D01*
X650922Y1475054D01*
X650977Y1475122D01*
X651042Y1475179D01*
X651473Y1475739D01*
X651916Y1476289D01*
X651956Y1476366D01*
X652009Y1476435D01*
X652607Y1477600D01*
X654005Y1480974D01*
X664695Y1491664D01*
X678662Y1497449D01*
X693779Y1497449D01*
X707746Y1491664D01*
X718436Y1480974D01*
X724221Y1467008D01*
X724221Y1451890D01*
X718436Y1437923D01*
X707746Y1427233D01*
X693779Y1421448D01*
X678662Y1421448D01*
G37*
%LPD*%
%LPC*%
G36*
X1167539Y1666224D02*
X1167539Y1666224D01*
X1153388Y1672085D01*
X1142557Y1682916D01*
X1136696Y1697066D01*
X1136696Y1712383D01*
X1137885Y1715253D01*
X1137910Y1715336D01*
X1137949Y1715413D01*
X1138139Y1716093D01*
X1138344Y1716770D01*
X1138352Y1716857D01*
X1138375Y1716940D01*
X1138427Y1717646D01*
X1138494Y1718349D01*
X1138485Y1718435D01*
X1138491Y1718521D01*
X1138403Y1719222D01*
X1138330Y1719925D01*
X1138304Y1720008D01*
X1138293Y1720094D01*
X1138069Y1720764D01*
X1137858Y1721439D01*
X1137817Y1721515D01*
X1137789Y1721597D01*
X1137436Y1722211D01*
X1137097Y1722830D01*
X1137042Y1722896D01*
X1136998Y1722971D01*
X1136151Y1723970D01*
X1117016Y1743105D01*
X1116935Y1743171D01*
X1116867Y1743250D01*
X1116324Y1743672D01*
X1115789Y1744110D01*
X1115697Y1744159D01*
X1115615Y1744222D01*
X1114999Y1744529D01*
X1114389Y1744852D01*
X1114289Y1744882D01*
X1114196Y1744928D01*
X1113531Y1745108D01*
X1112869Y1745304D01*
X1112765Y1745314D01*
X1112665Y1745341D01*
X1111360Y1745448D01*
X1026898Y1745448D01*
X1026811Y1745439D01*
X1026725Y1745446D01*
X1026023Y1745361D01*
X1025320Y1745291D01*
X1025237Y1745266D01*
X1025151Y1745255D01*
X1024482Y1745034D01*
X1023805Y1744826D01*
X1023728Y1744784D01*
X1023646Y1744757D01*
X1023033Y1744408D01*
X1022410Y1744071D01*
X1022344Y1744015D01*
X1022268Y1743972D01*
X1021735Y1743508D01*
X1021193Y1743056D01*
X1021138Y1742989D01*
X1021073Y1742931D01*
X1020640Y1742369D01*
X1020199Y1741821D01*
X1020159Y1741744D01*
X1020106Y1741675D01*
X1019507Y1740510D01*
X1018436Y1737923D01*
X1007746Y1727233D01*
X993779Y1721448D01*
X978662Y1721448D01*
X964695Y1727233D01*
X954005Y1737923D01*
X948220Y1751890D01*
X948220Y1767008D01*
X954005Y1780974D01*
X964695Y1791664D01*
X978662Y1797449D01*
X993779Y1797449D01*
X1007746Y1791664D01*
X1018436Y1780974D01*
X1019507Y1778388D01*
X1019548Y1778311D01*
X1019575Y1778229D01*
X1019922Y1777614D01*
X1020256Y1776990D01*
X1020311Y1776923D01*
X1020354Y1776848D01*
X1020816Y1776312D01*
X1021266Y1775768D01*
X1021333Y1775714D01*
X1021390Y1775648D01*
X1021948Y1775214D01*
X1022497Y1774769D01*
X1022574Y1774728D01*
X1022642Y1774675D01*
X1023275Y1774360D01*
X1023900Y1774032D01*
X1023983Y1774008D01*
X1024061Y1773969D01*
X1024744Y1773785D01*
X1025422Y1773587D01*
X1025508Y1773579D01*
X1025592Y1773557D01*
X1026898Y1773449D01*
X1126272Y1773449D01*
X1155951Y1743770D01*
X1156018Y1743715D01*
X1156074Y1743649D01*
X1156631Y1743213D01*
X1157177Y1742766D01*
X1157254Y1742725D01*
X1157322Y1742672D01*
X1157952Y1742355D01*
X1158578Y1742023D01*
X1158662Y1741998D01*
X1158739Y1741959D01*
X1159417Y1741773D01*
X1160097Y1741571D01*
X1160184Y1741563D01*
X1160267Y1741540D01*
X1160970Y1741492D01*
X1161676Y1741428D01*
X1161763Y1741437D01*
X1161849Y1741431D01*
X1162547Y1741522D01*
X1163252Y1741598D01*
X1163335Y1741625D01*
X1163421Y1741636D01*
X1164668Y1742036D01*
X1167539Y1743225D01*
X1182855Y1743225D01*
X1197006Y1737364D01*
X1207836Y1726533D01*
X1209025Y1723663D01*
X1209066Y1723586D01*
X1209093Y1723504D01*
X1209439Y1722891D01*
X1209774Y1722266D01*
X1209829Y1722199D01*
X1209872Y1722123D01*
X1210333Y1721589D01*
X1210783Y1721044D01*
X1210851Y1720989D01*
X1210907Y1720923D01*
X1211466Y1720489D01*
X1212014Y1720045D01*
X1212091Y1720004D01*
X1212160Y1719951D01*
X1212795Y1719635D01*
X1213418Y1719308D01*
X1213501Y1719284D01*
X1213579Y1719245D01*
X1214263Y1719060D01*
X1214939Y1718862D01*
X1215026Y1718855D01*
X1215110Y1718832D01*
X1216415Y1718725D01*
X1319762Y1718725D01*
X1319866Y1718735D01*
X1319969Y1718728D01*
X1320653Y1718814D01*
X1321340Y1718882D01*
X1321439Y1718913D01*
X1321542Y1718926D01*
X1322195Y1719144D01*
X1322855Y1719347D01*
X1322947Y1719397D01*
X1323045Y1719430D01*
X1323642Y1719773D01*
X1324249Y1720102D01*
X1324329Y1720169D01*
X1324419Y1720221D01*
X1325419Y1721068D01*
X1339107Y1734757D01*
X1365617Y1734757D01*
X1384363Y1716011D01*
X1384363Y1689501D01*
X1365617Y1670755D01*
X1339107Y1670755D01*
X1321482Y1688381D01*
X1321401Y1688447D01*
X1321333Y1688525D01*
X1320788Y1688949D01*
X1320255Y1689385D01*
X1320163Y1689434D01*
X1320081Y1689498D01*
X1319464Y1689805D01*
X1318854Y1690128D01*
X1318755Y1690158D01*
X1318662Y1690204D01*
X1317997Y1690383D01*
X1317335Y1690580D01*
X1317231Y1690589D01*
X1317131Y1690616D01*
X1315825Y1690724D01*
X1216415Y1690724D01*
X1216329Y1690715D01*
X1216242Y1690722D01*
X1215540Y1690637D01*
X1214838Y1690567D01*
X1214755Y1690541D01*
X1214669Y1690531D01*
X1213999Y1690309D01*
X1213322Y1690102D01*
X1213246Y1690060D01*
X1213164Y1690033D01*
X1212549Y1689683D01*
X1211928Y1689347D01*
X1211861Y1689291D01*
X1211786Y1689248D01*
X1211253Y1688784D01*
X1210710Y1688332D01*
X1210656Y1688264D01*
X1210590Y1688207D01*
X1210159Y1687647D01*
X1209717Y1687096D01*
X1209677Y1687020D01*
X1209624Y1686951D01*
X1209025Y1685786D01*
X1207836Y1682916D01*
X1197006Y1672085D01*
X1182855Y1666224D01*
X1167539Y1666224D01*
G37*
%LPD*%
%LPC*%
G36*
X978662Y1821448D02*
X978662Y1821448D01*
X964695Y1827233D01*
X954005Y1837923D01*
X948220Y1851890D01*
X948220Y1867008D01*
X954005Y1880974D01*
X964695Y1891664D01*
X978662Y1897449D01*
X993779Y1897449D01*
X1007746Y1891664D01*
X1018436Y1880974D01*
X1019507Y1878388D01*
X1019548Y1878311D01*
X1019575Y1878229D01*
X1019922Y1877614D01*
X1020256Y1876990D01*
X1020311Y1876923D01*
X1020354Y1876848D01*
X1020816Y1876312D01*
X1021266Y1875768D01*
X1021333Y1875714D01*
X1021390Y1875648D01*
X1021948Y1875214D01*
X1022497Y1874769D01*
X1022574Y1874728D01*
X1022642Y1874675D01*
X1023275Y1874360D01*
X1023900Y1874032D01*
X1023983Y1874008D01*
X1024061Y1873969D01*
X1024744Y1873785D01*
X1025422Y1873587D01*
X1025508Y1873579D01*
X1025592Y1873557D01*
X1026898Y1873449D01*
X1120808Y1873449D01*
X1120912Y1873460D01*
X1121016Y1873452D01*
X1121699Y1873538D01*
X1122386Y1873607D01*
X1122486Y1873637D01*
X1122589Y1873650D01*
X1123241Y1873869D01*
X1123902Y1874072D01*
X1123993Y1874121D01*
X1124092Y1874154D01*
X1124688Y1874498D01*
X1125296Y1874827D01*
X1125376Y1874893D01*
X1125466Y1874945D01*
X1126465Y1875792D01*
X1136151Y1885478D01*
X1136206Y1885546D01*
X1136272Y1885602D01*
X1136708Y1886159D01*
X1137155Y1886705D01*
X1137196Y1886781D01*
X1137250Y1886850D01*
X1137568Y1887483D01*
X1137898Y1888106D01*
X1137923Y1888189D01*
X1137962Y1888266D01*
X1138149Y1888948D01*
X1138350Y1889625D01*
X1138358Y1889712D01*
X1138381Y1889795D01*
X1138430Y1890498D01*
X1138494Y1891204D01*
X1138484Y1891291D01*
X1138490Y1891377D01*
X1138399Y1892075D01*
X1138323Y1892780D01*
X1138297Y1892863D01*
X1138285Y1892949D01*
X1137885Y1894196D01*
X1136696Y1897066D01*
X1136696Y1912383D01*
X1142557Y1926533D01*
X1153388Y1937364D01*
X1167539Y1943225D01*
X1182855Y1943225D01*
X1197006Y1937364D01*
X1207836Y1926533D01*
X1209025Y1923663D01*
X1209066Y1923586D01*
X1209093Y1923504D01*
X1209439Y1922891D01*
X1209774Y1922266D01*
X1209829Y1922199D01*
X1209872Y1922123D01*
X1210333Y1921589D01*
X1210783Y1921044D01*
X1210851Y1920989D01*
X1210907Y1920923D01*
X1211466Y1920489D01*
X1212014Y1920045D01*
X1212091Y1920004D01*
X1212160Y1919951D01*
X1212794Y1919635D01*
X1213418Y1919308D01*
X1213501Y1919284D01*
X1213579Y1919245D01*
X1214263Y1919060D01*
X1214939Y1918862D01*
X1215026Y1918855D01*
X1215110Y1918832D01*
X1216415Y1918725D01*
X1317006Y1918725D01*
X1317110Y1918735D01*
X1317214Y1918728D01*
X1317897Y1918814D01*
X1318584Y1918882D01*
X1318683Y1918913D01*
X1318787Y1918926D01*
X1319439Y1919144D01*
X1320099Y1919347D01*
X1320191Y1919397D01*
X1320289Y1919430D01*
X1320886Y1919773D01*
X1321493Y1920102D01*
X1321573Y1920169D01*
X1321664Y1920221D01*
X1322663Y1921068D01*
X1341076Y1939481D01*
X1367586Y1939481D01*
X1386331Y1920735D01*
X1386331Y1894225D01*
X1367586Y1875480D01*
X1341076Y1875480D01*
X1328174Y1888381D01*
X1328094Y1888447D01*
X1328026Y1888525D01*
X1327481Y1888949D01*
X1326948Y1889385D01*
X1326856Y1889434D01*
X1326774Y1889498D01*
X1326157Y1889805D01*
X1325547Y1890128D01*
X1325448Y1890158D01*
X1325354Y1890204D01*
X1324690Y1890383D01*
X1324028Y1890580D01*
X1323924Y1890589D01*
X1323824Y1890616D01*
X1322518Y1890724D01*
X1216415Y1890724D01*
X1216329Y1890715D01*
X1216242Y1890722D01*
X1215540Y1890637D01*
X1214838Y1890567D01*
X1214755Y1890541D01*
X1214669Y1890531D01*
X1213999Y1890309D01*
X1213322Y1890102D01*
X1213246Y1890060D01*
X1213164Y1890033D01*
X1212549Y1889683D01*
X1211928Y1889347D01*
X1211861Y1889291D01*
X1211786Y1889248D01*
X1211253Y1888784D01*
X1210710Y1888332D01*
X1210656Y1888264D01*
X1210590Y1888207D01*
X1210159Y1887647D01*
X1209717Y1887096D01*
X1209677Y1887020D01*
X1209624Y1886951D01*
X1209025Y1885786D01*
X1207836Y1882916D01*
X1197006Y1872085D01*
X1182855Y1866224D01*
X1167539Y1866224D01*
X1164669Y1867413D01*
X1164585Y1867438D01*
X1164508Y1867477D01*
X1163829Y1867666D01*
X1163151Y1867871D01*
X1163064Y1867879D01*
X1162981Y1867903D01*
X1162276Y1867954D01*
X1161573Y1868021D01*
X1161487Y1868012D01*
X1161400Y1868019D01*
X1160699Y1867930D01*
X1159996Y1867857D01*
X1159913Y1867832D01*
X1159827Y1867821D01*
X1159158Y1867596D01*
X1158482Y1867386D01*
X1158406Y1867344D01*
X1158324Y1867317D01*
X1157712Y1866964D01*
X1157092Y1866625D01*
X1157025Y1866569D01*
X1156950Y1866526D01*
X1155951Y1865679D01*
X1135720Y1845448D01*
X1026898Y1845448D01*
X1026811Y1845439D01*
X1026725Y1845446D01*
X1026023Y1845361D01*
X1025320Y1845291D01*
X1025237Y1845266D01*
X1025151Y1845255D01*
X1024482Y1845034D01*
X1023805Y1844826D01*
X1023728Y1844784D01*
X1023646Y1844757D01*
X1023033Y1844408D01*
X1022410Y1844071D01*
X1022344Y1844015D01*
X1022268Y1843972D01*
X1021735Y1843508D01*
X1021193Y1843056D01*
X1021138Y1842989D01*
X1021073Y1842931D01*
X1020640Y1842369D01*
X1020199Y1841821D01*
X1020159Y1841744D01*
X1020106Y1841675D01*
X1019507Y1840510D01*
X1018436Y1837923D01*
X1007746Y1827233D01*
X993779Y1821448D01*
X978662Y1821448D01*
G37*
%LPD*%
%LPC*%
G36*
X476509Y1578235D02*
X476509Y1578235D01*
X457763Y1596981D01*
X457763Y1623491D01*
X476509Y1642237D01*
X498651Y1642237D01*
X498755Y1642247D01*
X498858Y1642240D01*
X499542Y1642326D01*
X500228Y1642394D01*
X500328Y1642425D01*
X500431Y1642438D01*
X501083Y1642656D01*
X501744Y1642859D01*
X501836Y1642909D01*
X501934Y1642942D01*
X502531Y1643285D01*
X503138Y1643614D01*
X503218Y1643681D01*
X503308Y1643732D01*
X504307Y1644580D01*
X580900Y1721173D01*
X580966Y1721253D01*
X581045Y1721321D01*
X581468Y1721867D01*
X581905Y1722399D01*
X581953Y1722491D01*
X582017Y1722574D01*
X582324Y1723191D01*
X582648Y1723800D01*
X582677Y1723900D01*
X582724Y1723993D01*
X582903Y1724658D01*
X583100Y1725320D01*
X583109Y1725423D01*
X583136Y1725524D01*
X583243Y1726829D01*
X583243Y1732361D01*
X583233Y1732464D01*
X583241Y1732568D01*
X583155Y1733251D01*
X583086Y1733938D01*
X583056Y1734038D01*
X583043Y1734141D01*
X582824Y1734793D01*
X582621Y1735454D01*
X582571Y1735546D01*
X582539Y1735644D01*
X582195Y1736241D01*
X581866Y1736848D01*
X581800Y1736928D01*
X581748Y1737018D01*
X580900Y1738017D01*
X565243Y1753674D01*
X565243Y1780184D01*
X583989Y1798930D01*
X610499Y1798930D01*
X629245Y1780184D01*
X629245Y1753674D01*
X613588Y1738017D01*
X613522Y1737937D01*
X613443Y1737869D01*
X613020Y1737323D01*
X612583Y1736790D01*
X612535Y1736699D01*
X612471Y1736616D01*
X612164Y1735999D01*
X611840Y1735390D01*
X611811Y1735290D01*
X611764Y1735197D01*
X611585Y1734532D01*
X611388Y1733870D01*
X611379Y1733766D01*
X611352Y1733666D01*
X611245Y1732361D01*
X611245Y1711917D01*
X524107Y1624780D01*
X524041Y1624699D01*
X523963Y1624631D01*
X523539Y1624086D01*
X523103Y1623553D01*
X523054Y1623461D01*
X522990Y1623379D01*
X522683Y1622762D01*
X522360Y1622153D01*
X522330Y1622053D01*
X522284Y1621960D01*
X522104Y1621291D01*
X521908Y1620633D01*
X521899Y1620529D01*
X521872Y1620429D01*
X521764Y1619123D01*
X521764Y1596981D01*
X503019Y1578235D01*
X476509Y1578235D01*
G37*
%LPD*%
%LPC*%
G36*
X489501Y806582D02*
X489501Y806582D01*
X470755Y825328D01*
X470755Y851838D01*
X489501Y870583D01*
X511643Y870583D01*
X511747Y870594D01*
X511851Y870586D01*
X512534Y870672D01*
X513221Y870740D01*
X513320Y870771D01*
X513423Y870784D01*
X514076Y871003D01*
X514736Y871205D01*
X514828Y871255D01*
X514927Y871288D01*
X515525Y871633D01*
X516130Y871960D01*
X516210Y872027D01*
X516301Y872079D01*
X517300Y872926D01*
X526175Y881802D01*
X526176Y881803D01*
X536720Y892347D01*
X575668Y892347D01*
X575771Y892357D01*
X575875Y892350D01*
X576558Y892436D01*
X577245Y892504D01*
X577345Y892535D01*
X577448Y892548D01*
X578100Y892766D01*
X578761Y892969D01*
X578853Y893019D01*
X578951Y893052D01*
X579548Y893396D01*
X580155Y893724D01*
X580235Y893791D01*
X580325Y893843D01*
X581324Y894690D01*
X596981Y910347D01*
X623491Y910347D01*
X642237Y891601D01*
X642237Y865091D01*
X623491Y846346D01*
X596981Y846346D01*
X581324Y862003D01*
X581244Y862069D01*
X581176Y862148D01*
X580631Y862571D01*
X580098Y863007D01*
X580006Y863056D01*
X579923Y863120D01*
X579306Y863427D01*
X578697Y863750D01*
X578597Y863780D01*
X578504Y863826D01*
X577839Y864005D01*
X577178Y864202D01*
X577074Y864211D01*
X576973Y864238D01*
X575668Y864346D01*
X551632Y864346D01*
X551529Y864335D01*
X551425Y864343D01*
X550740Y864257D01*
X550055Y864189D01*
X549956Y864158D01*
X549852Y864145D01*
X549198Y863926D01*
X548539Y863724D01*
X548447Y863674D01*
X548349Y863641D01*
X547753Y863298D01*
X547145Y862969D01*
X547065Y862902D01*
X546975Y862850D01*
X545976Y862003D01*
X537100Y853126D01*
X537034Y853046D01*
X536955Y852978D01*
X536531Y852433D01*
X536095Y851900D01*
X536046Y851808D01*
X535983Y851726D01*
X535675Y851108D01*
X535352Y850499D01*
X535323Y850399D01*
X535276Y850306D01*
X535096Y849639D01*
X534900Y848980D01*
X534891Y848876D01*
X534864Y848776D01*
X534757Y847470D01*
X534757Y825328D01*
X516011Y806582D01*
X489501Y806582D01*
G37*
%LPD*%
%LPC*%
G36*
X701242Y764503D02*
X701242Y764503D01*
X685437Y771050D01*
X673341Y783146D01*
X666795Y798950D01*
X666795Y816057D01*
X673341Y831862D01*
X685437Y843958D01*
X701242Y850505D01*
X718349Y850505D01*
X734153Y843958D01*
X746250Y831862D01*
X752796Y816057D01*
X752796Y798950D01*
X746250Y783146D01*
X734153Y771050D01*
X718349Y764503D01*
X701242Y764503D01*
G37*
%LPD*%
%LPC*%
G36*
X701242Y586503D02*
X701242Y586503D01*
X685437Y593050D01*
X673341Y605146D01*
X666795Y620950D01*
X666795Y638057D01*
X673341Y653862D01*
X685437Y665958D01*
X701242Y672505D01*
X718349Y672505D01*
X734153Y665958D01*
X746250Y653862D01*
X752796Y638057D01*
X752796Y620950D01*
X746250Y605146D01*
X734153Y593050D01*
X718349Y586503D01*
X701242Y586503D01*
G37*
%LPD*%
%LPC*%
G36*
X1245527Y440408D02*
X1245527Y440408D01*
X1245527Y518202D01*
X1255869Y515841D01*
X1265940Y512317D01*
X1275553Y507687D01*
X1284588Y502010D01*
X1292930Y495358D01*
X1300476Y487812D01*
X1307128Y479470D01*
X1312805Y470435D01*
X1317435Y460822D01*
X1320959Y450751D01*
X1323320Y440408D01*
X1245527Y440408D01*
G37*
%LPD*%
%LPC*%
G36*
X1363637Y255369D02*
X1363637Y255369D01*
X1363637Y333162D01*
X1373979Y330801D01*
X1384050Y327278D01*
X1393664Y322648D01*
X1402699Y316971D01*
X1411040Y310319D01*
X1418586Y302773D01*
X1425239Y294431D01*
X1430916Y285396D01*
X1435545Y275782D01*
X1439069Y265712D01*
X1441430Y255369D01*
X1363637Y255369D01*
G37*
%LPD*%
%LPC*%
G36*
X1135735Y440408D02*
X1135735Y440408D01*
X1138096Y450751D01*
X1141620Y460822D01*
X1146250Y470435D01*
X1151927Y479470D01*
X1158579Y487812D01*
X1166125Y495358D01*
X1174467Y502010D01*
X1183502Y507687D01*
X1193115Y512317D01*
X1203186Y515841D01*
X1213528Y518201D01*
X1213528Y440408D01*
X1135735Y440408D01*
G37*
%LPD*%
%LPC*%
G36*
X1245527Y408410D02*
X1245527Y408410D01*
X1323320Y408410D01*
X1320959Y398068D01*
X1317435Y387997D01*
X1312805Y378383D01*
X1307128Y369349D01*
X1300476Y361007D01*
X1292930Y353461D01*
X1284588Y346808D01*
X1275553Y341131D01*
X1265940Y336502D01*
X1255869Y332978D01*
X1245527Y330617D01*
X1245527Y408410D01*
G37*
%LPD*%
%LPC*%
G36*
X1253846Y255369D02*
X1253846Y255369D01*
X1256206Y265712D01*
X1259730Y275782D01*
X1264360Y285396D01*
X1270037Y294431D01*
X1276689Y302773D01*
X1284235Y310319D01*
X1292577Y316971D01*
X1301612Y322648D01*
X1311225Y327278D01*
X1321296Y330801D01*
X1331639Y333162D01*
X1331639Y255369D01*
X1253846Y255369D01*
G37*
%LPD*%
%LPC*%
G36*
X1363637Y223371D02*
X1363637Y223371D01*
X1441430Y223371D01*
X1439069Y213028D01*
X1435545Y202958D01*
X1430916Y193344D01*
X1425239Y184309D01*
X1418586Y175967D01*
X1411040Y168421D01*
X1402699Y161769D01*
X1393664Y156092D01*
X1384050Y151462D01*
X1373979Y147939D01*
X1363637Y145578D01*
X1363637Y223371D01*
G37*
%LPD*%
%LPC*%
G36*
X1203186Y332978D02*
X1203186Y332978D01*
X1193115Y336502D01*
X1183502Y341131D01*
X1174467Y346808D01*
X1166125Y353461D01*
X1158579Y361007D01*
X1151927Y369349D01*
X1146250Y378383D01*
X1141620Y387997D01*
X1138096Y398068D01*
X1135735Y408410D01*
X1213528Y408410D01*
X1213528Y330617D01*
X1203186Y332978D01*
G37*
%LPD*%
%LPC*%
G36*
X1321296Y147939D02*
X1321296Y147939D01*
X1311225Y151462D01*
X1301612Y156092D01*
X1292577Y161769D01*
X1284235Y168421D01*
X1276689Y175967D01*
X1270037Y184309D01*
X1264360Y193344D01*
X1259730Y202958D01*
X1256206Y213028D01*
X1253846Y223371D01*
X1331639Y223371D01*
X1331639Y145578D01*
X1321296Y147939D01*
G37*
%LPD*%
%LPC*%
G36*
X1431259Y817086D02*
X1431259Y817086D01*
X1431259Y847087D01*
X1454408Y847087D01*
X1460626Y846102D01*
X1466615Y844157D01*
X1472224Y841298D01*
X1477318Y837597D01*
X1481771Y833145D01*
X1485472Y828051D01*
X1488330Y822441D01*
X1488391Y822253D01*
X1488657Y821647D01*
X1488904Y821031D01*
X1488975Y820921D01*
X1489028Y820801D01*
X1489408Y820259D01*
X1489771Y819704D01*
X1489864Y819610D01*
X1489939Y819503D01*
X1490419Y819047D01*
X1490884Y818575D01*
X1490992Y818501D01*
X1491087Y818411D01*
X1491650Y818057D01*
X1492197Y817687D01*
X1492318Y817636D01*
X1492429Y817566D01*
X1493051Y817330D01*
X1493634Y817086D01*
X1431259Y817086D01*
G37*
%LPD*%
%LPC*%
G36*
X1537718Y767480D02*
X1537718Y767480D01*
X1531500Y768464D01*
X1525511Y770410D01*
X1519902Y773268D01*
X1514807Y776969D01*
X1510355Y781422D01*
X1506654Y786516D01*
X1503796Y792125D01*
X1503735Y792314D01*
X1503469Y792920D01*
X1503222Y793536D01*
X1503150Y793646D01*
X1503098Y793766D01*
X1502718Y794307D01*
X1502355Y794863D01*
X1502262Y794956D01*
X1502187Y795063D01*
X1501707Y795520D01*
X1501242Y795992D01*
X1501134Y796066D01*
X1501039Y796156D01*
X1500476Y796510D01*
X1499929Y796880D01*
X1499808Y796931D01*
X1499697Y797001D01*
X1499075Y797237D01*
X1498492Y797481D01*
X1560867Y797481D01*
X1560867Y767479D01*
X1537718Y767480D01*
G37*
%LPD*%
%LPC*%
G36*
X1499305Y817480D02*
X1499305Y817480D01*
X1499815Y817694D01*
X1499923Y817768D01*
X1500042Y817822D01*
X1500578Y818212D01*
X1501126Y818585D01*
X1501218Y818678D01*
X1501324Y818755D01*
X1501773Y819243D01*
X1502236Y819716D01*
X1502308Y819826D01*
X1502397Y819923D01*
X1502740Y820489D01*
X1503102Y821045D01*
X1503158Y821180D01*
X1503218Y821279D01*
X1503334Y821601D01*
X1503607Y822253D01*
X1503796Y822835D01*
X1506654Y828445D01*
X1510355Y833539D01*
X1514807Y837991D01*
X1519902Y841692D01*
X1525511Y844550D01*
X1531500Y846496D01*
X1537718Y847481D01*
X1560867Y847481D01*
X1560867Y817480D01*
X1499305Y817480D01*
G37*
%LPD*%
%LPC*%
G36*
X1431259Y767086D02*
X1431259Y767086D01*
X1431259Y797087D01*
X1492821Y797087D01*
X1492311Y796873D01*
X1492203Y796799D01*
X1492083Y796744D01*
X1491548Y796355D01*
X1491000Y795982D01*
X1490908Y795889D01*
X1490802Y795811D01*
X1490353Y795323D01*
X1489889Y794851D01*
X1489818Y794741D01*
X1489729Y794644D01*
X1489386Y794078D01*
X1489024Y793522D01*
X1488968Y793387D01*
X1488908Y793288D01*
X1488792Y792966D01*
X1488519Y792314D01*
X1488330Y791731D01*
X1485472Y786122D01*
X1481771Y781028D01*
X1477318Y776576D01*
X1472224Y772875D01*
X1466615Y770016D01*
X1460626Y768071D01*
X1454408Y767086D01*
X1431259Y767086D01*
G37*
%LPD*%
%LPC*%
G36*
X1580865Y817480D02*
X1580865Y817480D01*
X1580865Y847481D01*
X1604015Y847481D01*
X1610233Y846496D01*
X1616221Y844550D01*
X1621830Y841692D01*
X1626925Y837991D01*
X1631377Y833539D01*
X1635078Y828445D01*
X1637936Y822835D01*
X1639676Y817480D01*
X1580865Y817480D01*
G37*
%LPD*%
%LPC*%
G36*
X1580865Y1617480D02*
X1580865Y1617480D01*
X1580865Y1647481D01*
X1604015Y1647481D01*
X1610233Y1646496D01*
X1616221Y1644550D01*
X1621830Y1641692D01*
X1626925Y1637991D01*
X1631377Y1633539D01*
X1635078Y1628445D01*
X1637936Y1622835D01*
X1639676Y1617480D01*
X1580865Y1617480D01*
G37*
%LPD*%
%LPC*%
G36*
X297007Y354094D02*
X297007Y354094D01*
X297007Y384095D01*
X320156Y384095D01*
X326374Y383110D01*
X332363Y381164D01*
X337972Y378306D01*
X343066Y374605D01*
X347519Y370153D01*
X351220Y365059D01*
X354078Y359450D01*
X355818Y354094D01*
X297007Y354094D01*
G37*
%LPD*%
%LPC*%
G36*
X1352450Y817086D02*
X1352450Y817086D01*
X1354190Y822442D01*
X1357048Y828051D01*
X1360749Y833145D01*
X1365201Y837597D01*
X1370295Y841298D01*
X1375905Y844157D01*
X1381893Y846102D01*
X1388111Y847087D01*
X1411260Y847087D01*
X1411260Y817086D01*
X1352450Y817086D01*
G37*
%LPD*%
%LPC*%
G36*
X1502056Y1617480D02*
X1502056Y1617480D01*
X1503796Y1622835D01*
X1506654Y1628445D01*
X1510355Y1633539D01*
X1514807Y1637991D01*
X1519902Y1641692D01*
X1525511Y1644550D01*
X1531500Y1646496D01*
X1537718Y1647481D01*
X1560867Y1647481D01*
X1560867Y1617480D01*
X1502056Y1617480D01*
G37*
%LPD*%
%LPC*%
G36*
X218198Y354094D02*
X218198Y354094D01*
X219938Y359450D01*
X222796Y365059D01*
X226497Y370153D01*
X230949Y374605D01*
X236043Y378306D01*
X241653Y381164D01*
X247641Y383110D01*
X253859Y384095D01*
X277008Y384095D01*
X277008Y354094D01*
X218198Y354094D01*
G37*
%LPD*%
%LPC*%
G36*
X1580865Y1567480D02*
X1580865Y1567480D01*
X1580865Y1597481D01*
X1639676Y1597481D01*
X1637936Y1592125D01*
X1635078Y1586516D01*
X1631377Y1581422D01*
X1626925Y1576969D01*
X1621830Y1573268D01*
X1616221Y1570410D01*
X1610233Y1568464D01*
X1604015Y1567480D01*
X1580865Y1567480D01*
G37*
%LPD*%
%LPC*%
G36*
X297007Y304094D02*
X297007Y304094D01*
X297007Y334095D01*
X355818Y334095D01*
X354078Y328739D01*
X351220Y323130D01*
X347519Y318036D01*
X343066Y313584D01*
X337972Y309883D01*
X332363Y307024D01*
X326374Y305079D01*
X320156Y304094D01*
X297007Y304094D01*
G37*
%LPD*%
%LPC*%
G36*
X1580865Y767480D02*
X1580865Y767480D01*
X1580865Y797481D01*
X1639676Y797481D01*
X1637936Y792125D01*
X1635078Y786516D01*
X1631377Y781422D01*
X1626925Y776969D01*
X1621830Y773268D01*
X1616221Y770410D01*
X1610233Y768464D01*
X1604015Y767480D01*
X1580865Y767480D01*
G37*
%LPD*%
%LPC*%
G36*
X1537718Y1567480D02*
X1537718Y1567480D01*
X1531500Y1568464D01*
X1525511Y1570410D01*
X1519902Y1573268D01*
X1514807Y1576969D01*
X1510355Y1581422D01*
X1506654Y1586516D01*
X1503796Y1592125D01*
X1502056Y1597481D01*
X1560867Y1597481D01*
X1560867Y1567479D01*
X1537718Y1567480D01*
G37*
%LPD*%
%LPC*%
G36*
X253859Y304094D02*
X253859Y304094D01*
X247641Y305079D01*
X241653Y307024D01*
X236043Y309883D01*
X230949Y313584D01*
X226497Y318036D01*
X222796Y323130D01*
X219938Y328739D01*
X218198Y334095D01*
X277008Y334095D01*
X277008Y304094D01*
X253859Y304094D01*
G37*
%LPD*%
%LPC*%
G36*
X1388111Y767086D02*
X1388111Y767086D01*
X1381893Y768071D01*
X1375905Y770016D01*
X1370295Y772875D01*
X1365201Y776576D01*
X1360749Y781028D01*
X1357048Y786122D01*
X1354190Y791731D01*
X1352450Y797087D01*
X1411260Y797087D01*
X1411260Y767086D01*
X1388111Y767086D01*
G37*
%LPD*%
%LPC*%
G36*
X975795Y639503D02*
X975795Y639503D01*
X975795Y675507D01*
X976801Y675347D01*
X983837Y673061D01*
X990429Y669702D01*
X996414Y665354D01*
X1001646Y660122D01*
X1005994Y654138D01*
X1009352Y647546D01*
X1011639Y640509D01*
X1011798Y639503D01*
X975795Y639503D01*
G37*
%LPD*%
%LPC*%
G36*
X919792Y639503D02*
X919792Y639503D01*
X919952Y640509D01*
X922238Y647546D01*
X925597Y654138D01*
X929945Y660122D01*
X935177Y665354D01*
X941161Y669702D01*
X947753Y673061D01*
X954790Y675347D01*
X955796Y675507D01*
X955796Y639503D01*
X919792Y639503D01*
G37*
%LPD*%
%LPC*%
G36*
X975795Y619504D02*
X975795Y619504D01*
X1011798Y619504D01*
X1011639Y618498D01*
X1009352Y611462D01*
X1005994Y604870D01*
X1001646Y598885D01*
X996414Y593653D01*
X990429Y589305D01*
X983837Y585947D01*
X976801Y583660D01*
X975795Y583501D01*
X975795Y619504D01*
G37*
%LPD*%
%LPC*%
G36*
X954790Y583660D02*
X954790Y583660D01*
X947753Y585947D01*
X941161Y589305D01*
X935177Y593653D01*
X929945Y598885D01*
X925597Y604870D01*
X922238Y611462D01*
X919952Y618498D01*
X919792Y619504D01*
X955796Y619504D01*
X955796Y583501D01*
X954790Y583660D01*
G37*
%LPD*%
%LPC*%
G36*
X577685Y406031D02*
X577685Y406031D01*
X577685Y439532D01*
X586875Y439532D01*
X611186Y415221D01*
X611186Y406031D01*
X577685Y406031D01*
G37*
%LPD*%
%LPC*%
G36*
X573748Y155638D02*
X573748Y155638D01*
X573748Y189138D01*
X582938Y189138D01*
X607249Y164828D01*
X607249Y155638D01*
X573748Y155638D01*
G37*
%LPD*%
%LPC*%
G36*
X524247Y155638D02*
X524247Y155638D01*
X524247Y164828D01*
X548558Y189138D01*
X557748Y189138D01*
X557748Y155638D01*
X524247Y155638D01*
G37*
%LPD*%
%LPC*%
G36*
X528184Y406031D02*
X528184Y406031D01*
X528184Y415221D01*
X552495Y439532D01*
X561685Y439532D01*
X561685Y406031D01*
X528184Y406031D01*
G37*
%LPD*%
%LPC*%
G36*
X577685Y356531D02*
X577685Y356531D01*
X577685Y390031D01*
X611186Y390031D01*
X611186Y380841D01*
X586875Y356531D01*
X577685Y356531D01*
G37*
%LPD*%
%LPC*%
G36*
X573748Y106137D02*
X573748Y106137D01*
X573748Y139638D01*
X607249Y139638D01*
X607249Y130448D01*
X582938Y106137D01*
X573748Y106137D01*
G37*
%LPD*%
%LPC*%
G36*
X552495Y356531D02*
X552495Y356531D01*
X528184Y380841D01*
X528184Y390031D01*
X561685Y390031D01*
X561685Y356531D01*
X552495Y356531D01*
G37*
%LPD*%
%LPC*%
G36*
X548558Y106137D02*
X548558Y106137D01*
X524247Y130448D01*
X524247Y139638D01*
X557748Y139638D01*
X557748Y106137D01*
X548558Y106137D01*
G37*
%LPD*%
%LPC*%
G36*
X994220Y1667449D02*
X994220Y1667449D01*
X994220Y1700706D01*
X996056Y1700415D01*
X1002343Y1698372D01*
X1008234Y1695371D01*
X1013582Y1691485D01*
X1018257Y1686810D01*
X1022142Y1681462D01*
X1025144Y1675571D01*
X1027187Y1669284D01*
X1027477Y1667449D01*
X994220Y1667449D01*
G37*
%LPD*%
%LPC*%
G36*
X694220Y1567449D02*
X694220Y1567449D01*
X694220Y1600706D01*
X696056Y1600415D01*
X702343Y1598372D01*
X708234Y1595371D01*
X713582Y1591485D01*
X718257Y1586810D01*
X722142Y1581462D01*
X725144Y1575571D01*
X727187Y1569284D01*
X727477Y1567449D01*
X694220Y1567449D01*
G37*
%LPD*%
%LPC*%
G36*
X944963Y1667449D02*
X944963Y1667449D01*
X945254Y1669284D01*
X947297Y1675571D01*
X950298Y1681462D01*
X954184Y1686810D01*
X958859Y1691485D01*
X964207Y1695371D01*
X970098Y1698372D01*
X976385Y1700415D01*
X978220Y1700706D01*
X978220Y1667449D01*
X944963Y1667449D01*
G37*
%LPD*%
%LPC*%
G36*
X694220Y1551449D02*
X694220Y1551449D01*
X727477Y1551449D01*
X727187Y1549613D01*
X725144Y1543326D01*
X722142Y1537435D01*
X718257Y1532088D01*
X713582Y1527412D01*
X708234Y1523527D01*
X702343Y1520525D01*
X696056Y1518482D01*
X694220Y1518192D01*
X694220Y1551449D01*
G37*
%LPD*%
%LPC*%
G36*
X644963Y1567449D02*
X644963Y1567449D01*
X645254Y1569284D01*
X647297Y1575571D01*
X650298Y1581462D01*
X654184Y1586810D01*
X658859Y1591485D01*
X664207Y1595371D01*
X670098Y1598372D01*
X676385Y1600415D01*
X678220Y1600706D01*
X678220Y1567449D01*
X644963Y1567449D01*
G37*
%LPD*%
%LPC*%
G36*
X994220Y1651449D02*
X994220Y1651449D01*
X1027477Y1651449D01*
X1027187Y1649613D01*
X1025144Y1643326D01*
X1022142Y1637435D01*
X1018257Y1632088D01*
X1013582Y1627412D01*
X1008234Y1623527D01*
X1002343Y1620525D01*
X996056Y1618482D01*
X994220Y1618192D01*
X994220Y1651449D01*
G37*
%LPD*%
%LPC*%
G36*
X676385Y1518482D02*
X676385Y1518482D01*
X670098Y1520525D01*
X664207Y1523527D01*
X658859Y1527412D01*
X654184Y1532088D01*
X650298Y1537435D01*
X647297Y1543326D01*
X645254Y1549613D01*
X644963Y1551449D01*
X678220Y1551449D01*
X678220Y1518192D01*
X676385Y1518482D01*
G37*
%LPD*%
%LPC*%
G36*
X976385Y1618482D02*
X976385Y1618482D01*
X970098Y1620525D01*
X964207Y1623527D01*
X958859Y1627412D01*
X954184Y1632088D01*
X950298Y1637435D01*
X947297Y1643326D01*
X945254Y1649613D01*
X944963Y1651449D01*
X978220Y1651449D01*
X978220Y1618192D01*
X976385Y1618482D01*
G37*
%LPD*%
%LPC*%
G36*
X1460362Y1710756D02*
X1460362Y1710756D01*
X1460362Y1738757D01*
X1467274Y1738757D01*
X1488363Y1717668D01*
X1488363Y1710756D01*
X1460362Y1710756D01*
G37*
%LPD*%
%LPC*%
G36*
X1462330Y1915480D02*
X1462330Y1915480D01*
X1462330Y1943481D01*
X1469242Y1943481D01*
X1490331Y1922392D01*
X1490331Y1915480D01*
X1462330Y1915480D01*
G37*
%LPD*%
%LPC*%
G36*
X397764Y1618236D02*
X397764Y1618236D01*
X397764Y1646237D01*
X404676Y1646237D01*
X425764Y1625148D01*
X425764Y1618236D01*
X397764Y1618236D01*
G37*
%LPD*%
%LPC*%
G36*
X410756Y846582D02*
X410756Y846582D01*
X410756Y874583D01*
X417668Y874583D01*
X438757Y853494D01*
X438757Y846582D01*
X410756Y846582D01*
G37*
%LPD*%
%LPC*%
G36*
X1416361Y1710756D02*
X1416361Y1710756D01*
X1416361Y1717668D01*
X1437450Y1738757D01*
X1444362Y1738757D01*
X1444362Y1710756D01*
X1416361Y1710756D01*
G37*
%LPD*%
%LPC*%
G36*
X1418330Y1915480D02*
X1418330Y1915480D01*
X1418330Y1922392D01*
X1439419Y1943481D01*
X1446331Y1943481D01*
X1446331Y1915480D01*
X1418330Y1915480D01*
G37*
%LPD*%
%LPC*%
G36*
X366755Y846582D02*
X366755Y846582D01*
X366755Y853494D01*
X387844Y874583D01*
X394756Y874583D01*
X394756Y846582D01*
X366755Y846582D01*
G37*
%LPD*%
%LPC*%
G36*
X353763Y1618236D02*
X353763Y1618236D01*
X353763Y1625148D01*
X374852Y1646237D01*
X381764Y1646237D01*
X381764Y1618236D01*
X353763Y1618236D01*
G37*
%LPD*%
%LPC*%
G36*
X1460362Y1666755D02*
X1460362Y1666755D01*
X1460362Y1694756D01*
X1488363Y1694756D01*
X1488363Y1687844D01*
X1467274Y1666755D01*
X1460362Y1666755D01*
G37*
%LPD*%
%LPC*%
G36*
X1462330Y1871480D02*
X1462330Y1871480D01*
X1462330Y1899480D01*
X1490331Y1899480D01*
X1490331Y1892568D01*
X1469242Y1871480D01*
X1462330Y1871480D01*
G37*
%LPD*%
%LPC*%
G36*
X397764Y1574235D02*
X397764Y1574235D01*
X397764Y1602236D01*
X425764Y1602236D01*
X425764Y1595324D01*
X404676Y1574235D01*
X397764Y1574235D01*
G37*
%LPD*%
%LPC*%
G36*
X410756Y802582D02*
X410756Y802582D01*
X410756Y830583D01*
X438757Y830583D01*
X438757Y823671D01*
X417668Y802582D01*
X410756Y802582D01*
G37*
%LPD*%
%LPC*%
G36*
X1437450Y1666755D02*
X1437450Y1666755D01*
X1416361Y1687844D01*
X1416361Y1694756D01*
X1444362Y1694756D01*
X1444362Y1666755D01*
X1437450Y1666755D01*
G37*
%LPD*%
%LPC*%
G36*
X1439419Y1871480D02*
X1439419Y1871480D01*
X1418330Y1892568D01*
X1418330Y1899480D01*
X1446331Y1899480D01*
X1446331Y1871480D01*
X1439419Y1871480D01*
G37*
%LPD*%
%LPC*%
G36*
X374852Y1574235D02*
X374852Y1574235D01*
X353763Y1595324D01*
X353763Y1602236D01*
X381764Y1602236D01*
X381764Y1574235D01*
X374852Y1574235D01*
G37*
%LPD*%
%LPC*%
G36*
X387844Y802582D02*
X387844Y802582D01*
X366755Y823671D01*
X366755Y830583D01*
X394756Y830583D01*
X394756Y802582D01*
X387844Y802582D01*
G37*
%LPD*%
%LPC*%
G36*
X1347636Y239369D02*
X1347636Y239369D01*
X1347636Y239371D01*
X1347639Y239371D01*
X1347639Y239369D01*
X1347636Y239369D01*
G37*
%LPD*%
%LPC*%
G36*
X1229526Y424408D02*
X1229526Y424408D01*
X1229526Y424411D01*
X1229529Y424411D01*
X1229529Y424408D01*
X1229526Y424408D01*
G37*
%LPD*%
D10*
X565748Y147638D03*
D11*
X565748Y247638D03*
D10*
X569685Y398031D03*
D11*
X569685Y498031D03*
D12*
X1352362Y1702756D03*
X1452362Y1702756D03*
X1354331Y1907480D03*
X1454331Y1907480D03*
X1114173Y950787D03*
X1214173Y950787D03*
D13*
X1111417Y239370D03*
X1347638Y239370D03*
X1229528Y424409D03*
D14*
X489764Y1610236D03*
X389764Y1610236D03*
D15*
X1114961Y535827D03*
X1114961Y835827D03*
D12*
X297244Y1766929D03*
X597244Y1766929D03*
D16*
X965795Y629504D03*
X709795Y629504D03*
X965795Y807504D03*
X709795Y807504D03*
D17*
X317008Y244094D02*
X257008Y244094D01*
X257008Y344094D02*
X317008Y344094D01*
X317008Y444094D02*
X257008Y444094D01*
D18*
X986220Y959449D03*
X986220Y1059449D03*
X986220Y1159449D03*
X986220Y1259449D03*
X986220Y1359449D03*
X986220Y1459449D03*
X986220Y1559449D03*
X986220Y1659449D03*
X986220Y1759449D03*
X986220Y1859449D03*
X986220Y1959449D03*
X986220Y2059449D03*
X986220Y2159449D03*
X986220Y2259449D03*
X686220Y2259449D03*
X686220Y2159449D03*
X686220Y2059449D03*
X686220Y1959449D03*
X686220Y1859449D03*
X686220Y1759449D03*
X686220Y1659449D03*
X686220Y1559449D03*
X686220Y1459449D03*
X686220Y1359449D03*
X686220Y1259449D03*
X686220Y1159449D03*
X686220Y1059449D03*
X686220Y959449D03*
D19*
X1175197Y1904724D03*
X1175197Y1704724D03*
D14*
X502756Y838583D03*
X402756Y838583D03*
D15*
X610236Y578346D03*
X610236Y878346D03*
D17*
X254409Y1458661D02*
X194409Y1458661D01*
X194409Y1358661D02*
X254409Y1358661D01*
X254409Y1258661D02*
X194409Y1258661D01*
X194409Y1158661D02*
X254409Y1158661D01*
X254409Y1058661D02*
X194409Y1058661D01*
X194409Y958661D02*
X254409Y958661D01*
X250472Y2262992D02*
X190472Y2262992D01*
X190472Y2162992D02*
X250472Y2162992D01*
X250472Y2062992D02*
X190472Y2062992D01*
X190472Y1962992D02*
X250472Y1962992D01*
X250472Y1862992D02*
X190472Y1862992D01*
X1548740Y1960236D02*
X1608740Y1960236D01*
X1608740Y2060236D02*
X1548740Y2060236D01*
X1548740Y2160236D02*
X1608740Y2160236D01*
X1608740Y2260236D02*
X1548740Y2260236D01*
X1540866Y707480D02*
X1600866Y707480D01*
X1600866Y807480D02*
X1540866Y807480D01*
X1540866Y907480D02*
X1600866Y907480D01*
X1600866Y1007480D02*
X1540866Y1007480D01*
X1540866Y1107480D02*
X1600866Y1107480D01*
X1600866Y1207480D02*
X1540866Y1207480D01*
X1540866Y1307480D02*
X1600866Y1307480D01*
X1600866Y1407480D02*
X1540866Y1407480D01*
X1540866Y1507480D02*
X1600866Y1507480D01*
X1600866Y1607480D02*
X1540866Y1607480D01*
D20*
X783465Y248031D03*
X893701Y248031D03*
D17*
X1391260Y707087D02*
X1451260Y707087D01*
X1451260Y807087D02*
X1391260Y807087D01*
X1391260Y907087D02*
X1451260Y907087D01*
D21*
X566142Y247244D02*
X565748Y247638D01*
X569291Y244094D02*
X287008Y244094D01*
X566142Y247244D02*
X569291Y244094D01*
X565748Y247638D02*
X783071Y247638D01*
X783465Y248031D01*
X340945Y498031D02*
X287008Y444094D01*
X340945Y498031D02*
X569685Y498031D01*
D22*
X610236Y538583D01*
X610236Y578346D01*
D21*
X569685Y498031D02*
X761811Y498031D01*
X842520Y578740D02*
X842520Y1484252D01*
X917717Y1559449D01*
X986220Y1559449D01*
X842520Y578740D02*
X761811Y498031D01*
X786220Y1659449D02*
X686220Y1759449D01*
X786220Y1659449D02*
X842520Y1603150D01*
X842520Y1484252D01*
X786220Y1659449D02*
X686220Y1659449D01*
D23*
X986220Y1559449D02*
X1046850Y1559449D01*
X1090551Y1515748D01*
X1562598Y1515748D02*
X1570866Y1507480D01*
X1562598Y1515748D02*
X1090551Y1515748D01*
X1114961Y535827D02*
X885433Y535827D01*
X842520Y578740D01*
X1286614Y707480D02*
X1570866Y707480D01*
X1286614Y707480D02*
X1114961Y535827D01*
D24*
X1420866Y707480D02*
X1421260Y707087D01*
X1420866Y707480D02*
X1286614Y707480D01*
D22*
X1120472Y1759449D02*
X986220Y1759449D01*
X1120472Y1759449D02*
X1175197Y1704724D01*
X1350394Y1704724D01*
X1352362Y1702756D01*
X1129921Y1859449D02*
X986220Y1859449D01*
X1129921Y1859449D02*
X1175197Y1904724D01*
X1351575Y1904724D01*
X1354331Y1907480D01*
X1105512Y959449D02*
X986220Y959449D01*
X1105512Y959449D02*
X1114173Y950787D01*
X1086638Y807504D02*
X965795Y807504D01*
X1086638Y807504D02*
X1114961Y835827D01*
X1114961Y905512D01*
X1114961Y950000D01*
X1114173Y950787D01*
X1116535Y907087D02*
X1421260Y907087D01*
D24*
X1116535Y907087D02*
X1114961Y905512D01*
D22*
X682677Y1862992D02*
X220472Y1862992D01*
X682677Y1862992D02*
X686220Y1859449D01*
X297244Y1786220D02*
X220472Y1862992D01*
X297244Y1786220D02*
X297244Y1766929D01*
X489764Y1610236D02*
X597244Y1717717D01*
X597244Y1766929D01*
X1233858Y970472D02*
X1454724Y970472D01*
X1233858Y970472D02*
X1214173Y950787D01*
X1517717Y907480D02*
X1570866Y907480D01*
X1517717Y907480D02*
X1454724Y970472D01*
X1350000Y1059449D02*
X986220Y1059449D01*
X1555118Y1023228D02*
X1570866Y1007480D01*
X1555118Y1023228D02*
X1386220Y1023228D01*
X1350000Y1059449D01*
X1364173Y1159449D02*
X986220Y1159449D01*
X1364173Y1159449D02*
X1417323Y1106299D01*
X1569685Y1106299D01*
X1570866Y1107480D01*
X685433Y958661D02*
X224409Y958661D01*
X685433Y958661D02*
X686220Y959449D01*
X685433Y1058661D02*
X224409Y1058661D01*
X685433Y1058661D02*
X686220Y1059449D01*
X685433Y1158661D02*
X224409Y1158661D01*
X685433Y1158661D02*
X686220Y1159449D01*
X685433Y1258661D02*
X224409Y1258661D01*
X685433Y1258661D02*
X686220Y1259449D01*
X685433Y1358661D02*
X224409Y1358661D01*
X685433Y1358661D02*
X686220Y1359449D01*
X685433Y1458661D02*
X224409Y1458661D01*
X685433Y1458661D02*
X686220Y1459449D01*
X686220Y1959449D02*
X682677Y1962992D01*
X220472Y1962992D01*
X220472Y2062992D02*
X682677Y2062992D01*
X686220Y2059449D01*
X682677Y2162992D02*
X220472Y2162992D01*
X682677Y2162992D02*
X686220Y2159449D01*
X682677Y2262992D02*
X220472Y2262992D01*
X682677Y2262992D02*
X686220Y2259449D01*
X986220Y2259449D02*
X1577953Y2259449D01*
X1578740Y2260236D01*
X1577953Y2159449D02*
X986220Y2159449D01*
X1577953Y2159449D02*
X1578740Y2160236D01*
X1577953Y2059449D02*
X986220Y2059449D01*
X1577953Y2059449D02*
X1578740Y2060236D01*
X1065748Y1959449D02*
X986220Y1959449D01*
X1519291Y2019685D02*
X1578740Y1960236D01*
X1125984Y2019685D02*
X1065748Y1959449D01*
X1125984Y2019685D02*
X1519291Y2019685D01*
X1414567Y1459449D02*
X986220Y1459449D01*
X1414567Y1459449D02*
X1468504Y1405512D01*
X1568898Y1405512D01*
X1570866Y1407480D01*
X1376772Y1359449D02*
X986220Y1359449D01*
X1376772Y1359449D02*
X1429134Y1307087D01*
X1570472Y1307087D01*
X1570866Y1307480D01*
X1374409Y1259449D02*
X986220Y1259449D01*
X1426378Y1207480D02*
X1570866Y1207480D01*
X1426378Y1207480D02*
X1374409Y1259449D01*
X542520Y878346D02*
X502756Y838583D01*
X542520Y878346D02*
X610236Y878346D01*
D21*
X893701Y248031D02*
X1102756Y248031D01*
X1111417Y239370D01*
M02*
